ScienceGothic-Blk.ufo
<glyph name="exclam" format="1">
  <advance width="940"/>
  <unicode hex="0021"/>
  <outline>
    <contour>
      <point x="185" y="135" type="curve" smooth="yes"/>
      <point x="185" y="226" type="line" smooth="yes"/>
      <point x="185" y="343"/>
      <point x="206" y="364"/>
      <point x="326" y="364" type="curve" smooth="yes"/>
      <point x="613" y="364" type="line" smooth="yes"/>
      <point x="733" y="364"/>
      <point x="755" y="343"/>
      <point x="755" y="224" type="curve" smooth="yes"/>
      <point x="755" y="135" type="line" smooth="yes"/>
      <point x="755" y="15"/>
      <point x="734" y="-6"/>
      <point x="614" y="-6" type="curve" smooth="yes"/>
      <point x="326" y="-6" type="line" smooth="yes"/>
      <point x="206" y="-6"/>
      <point x="185" y="15"/>
    </contour>
    <contour>
      <point x="232" y="462" type="line"/>
      <point x="162" y="1400" type="line"/>
      <point x="778" y="1400" type="line"/>
      <point x="708" y="462" type="line"/>
    </contour>
  </outline>
</glyph>
<glyph name="numbersign" format="2">
  <advance width="1170"/>
  <unicode hex="0023"/>
  <outline>
    <contour>
      <point x="80" y="224" type="line"/>
      <point x="139" y="636" type="line"/>
      <point x="1004" y="636" type="line"/>
      <point x="945" y="224" type="line"/>
    </contour>
    <contour>
      <point x="156" y="765" type="line"/>
      <point x="215" y="1177" type="line"/>
      <point x="1080" y="1177" type="line"/>
      <point x="1021" y="765" type="line"/>
    </contour>
    <contour>
      <point x="184" y="0" type="line"/>
      <point x="382" y="1400" type="line"/>
      <point x="612" y="1400" type="line"/>
      <point x="414" y="0" type="line"/>
    </contour>
    <contour>
      <point x="549" y="0" type="line"/>
      <point x="747" y="1400" type="line"/>
      <point x="977" y="1400" type="line"/>
      <point x="779" y="0" type="line"/>
    </contour>
  </outline>
  <guideline y="524"/>
  <guideline y="1065"/>
</glyph>
<glyph name="dollar" format="1">
  <advance width="1950.64"/>
  <unicode hex="0024"/>
  <outline>
    <contour>
      <point x="158.4" y="410" type="line"/>
      <point x="704.4" y="462" type="line"/>
      <point x="704.4" y="372" type="line"/>
      <point x="704.4" y="372"/>
      <point x="704.4" y="372"/>
      <point x="704.4" y="372" type="curve"/>
      <point x="1230.4" y="372" type="line"/>
      <point x="1230.4" y="372"/>
      <point x="1230.4" y="372"/>
      <point x="1230.4" y="372" type="curve"/>
      <point x="1230.4" y="514" type="line"/>
      <point x="1230.4" y="514"/>
      <point x="1230.4" y="514"/>
      <point x="1230.4" y="514" type="curve"/>
      <point x="596.4" y="514" type="line"/>
      <point x="342.4" y="514"/>
      <point x="188.4" y="576"/>
      <point x="188.4" y="858" type="curve"/>
      <point x="188.4" y="1082" type="line"/>
      <point x="188.4" y="1358"/>
      <point x="360.4" y="1414"/>
      <point x="604.4" y="1414" type="curve"/>
      <point x="1346.4" y="1414" type="line"/>
      <point x="1590.4" y="1414"/>
      <point x="1756.4" y="1360"/>
      <point x="1756.4" y="1086" type="curve"/>
      <point x="1756.4" y="1008" type="line"/>
      <point x="1210.4" y="958" type="line"/>
      <point x="1210.4" y="1028" type="line"/>
      <point x="1210.4" y="1028"/>
      <point x="1210.4" y="1028"/>
      <point x="1210.4" y="1028" type="curve"/>
      <point x="734.4" y="1028" type="line"/>
      <point x="734.4" y="1028"/>
      <point x="734.4" y="1028"/>
      <point x="734.4" y="1028" type="curve"/>
      <point x="734.4" y="900" type="line"/>
      <point x="734.4" y="900"/>
      <point x="734.4" y="900"/>
      <point x="734.4" y="900" type="curve"/>
      <point x="1364.4" y="900" type="line"/>
      <point x="1608.4" y="900"/>
      <point x="1776.4" y="848"/>
      <point x="1776.4" y="572" type="curve"/>
      <point x="1776.4" y="330" type="line"/>
      <point x="1776.4" y="46"/>
      <point x="1620.4" y="-14"/>
      <point x="1364.4" y="-14" type="curve"/>
      <point x="568.4" y="-14" type="line"/>
      <point x="314.4" y="-14"/>
      <point x="158.4" y="46"/>
      <point x="158.4" y="328" type="curve"/>
    </contour>
    <contour>
      <point x="820" y="-164" type="line"/>
      <point x="820" y="1564" type="line"/>
      <point x="1130" y="1564" type="line"/>
      <point x="1130" y="-164" type="line"/>
    </contour>
  </outline>
</glyph>
<glyph name="ampersand" format="2">
  <advance width="1889"/>
  <unicode hex="0026"/>
  <outline>
    <contour>
      <point x="346" y="-10" type="line"/>
      <point x="830" y="-10" type="line" smooth="yes"/>
      <point x="877" y="-10"/>
      <point x="955" y="2"/>
      <point x="1024" y="29"/>
      <point x="1089" y="74"/>
      <point x="1122" y="107" type="qcurve"/>
      <point x="1123" y="108" type="line"/>
      <point x="1231" y="0" type="line"/>
      <point x="1889" y="0" type="line"/>
      <point x="1475" y="414" type="line"/>
      <point x="1753" y="669" type="line"/>
      <point x="1463" y="959" type="line"/>
      <point x="1180" y="700" type="line"/>
      <point x="869" y="1019" type="line"/>
      <point x="869" y="1019"/>
      <point x="869" y="1019"/>
      <point x="869" y="1019"/>
      <point x="869" y="1019"/>
      <point x="869" y="1019" type="qcurve"/>
      <point x="869" y="1048" type="line"/>
      <point x="869" y="1048"/>
      <point x="869" y="1048"/>
      <point x="869" y="1048"/>
      <point x="869" y="1048"/>
      <point x="869" y="1048" type="qcurve"/>
      <point x="998" y="1048" type="line"/>
      <point x="998" y="1048"/>
      <point x="998" y="1048"/>
      <point x="998" y="1048"/>
      <point x="998" y="1048"/>
      <point x="998" y="1048" type="qcurve"/>
      <point x="998" y="968" type="line"/>
      <point x="1463" y="1043" type="line"/>
      <point x="1463" y="1119" type="line" smooth="yes"/>
      <point x="1463" y="1188"/>
      <point x="1416" y="1297"/>
      <point x="1328" y="1373"/>
      <point x="1202" y="1414"/>
      <point x="1122" y="1414" type="qcurve" smooth="yes"/>
      <point x="684" y="1414" type="line" smooth="yes"/>
      <point x="609" y="1414"/>
      <point x="492" y="1373"/>
      <point x="412" y="1295"/>
      <point x="370" y="1182"/>
      <point x="370" y="1109" type="qcurve" smooth="yes"/>
      <point x="370" y="1061" type="line" smooth="yes"/>
      <point x="370" y="1041"/>
      <point x="373" y="999"/>
      <point x="379" y="960"/>
      <point x="388" y="925"/>
      <point x="394" y="910" type="qcurve"/>
      <point x="190" y="764" type="line" smooth="yes"/>
      <point x="152" y="737"/>
      <point x="97" y="679"/>
      <point x="62" y="616"/>
      <point x="45" y="545"/>
      <point x="45" y="504" type="qcurve" smooth="yes"/>
      <point x="45" y="246" type="line" smooth="yes"/>
      <point x="45" y="198"/>
      <point x="97" y="106"/>
      <point x="182" y="34"/>
      <point x="290" y="-10"/>
      <point x="346" y="-10" type="qcurve"/>
    </contour>
    <contour>
      <point x="510" y="400" type="line"/>
      <point x="510" y="400"/>
      <point x="510" y="400"/>
      <point x="510" y="400"/>
      <point x="510" y="400"/>
      <point x="510" y="400" type="qcurve"/>
      <point x="510" y="478" type="line"/>
      <point x="510" y="478"/>
      <point x="510" y="478"/>
      <point x="510" y="478"/>
      <point x="510" y="478"/>
      <point x="510" y="478" type="qcurve"/>
      <point x="647" y="578" type="line"/>
      <point x="825" y="400" type="line"/>
      <point x="825" y="400" type="line"/>
      <point x="825" y="400"/>
      <point x="825" y="400"/>
      <point x="825" y="400"/>
      <point x="825" y="400"/>
      <point x="825" y="400" type="qcurve"/>
    </contour>
  </outline>
</glyph>
<glyph name="quotesingle" format="2">
  <advance width="894"/>
  <unicode hex="0027"/>
  <outline>
    <contour>
      <point x="162" y="1184" type="line"/>
      <point x="162" y="1333" type="line" smooth="yes"/>
      <point x="162" y="1376"/>
      <point x="166" y="1423"/>
      <point x="185" y="1446"/>
      <point x="225" y="1450"/>
      <point x="261" y="1450" type="qcurve" smooth="yes"/>
      <point x="633" y="1450" type="line" smooth="yes"/>
      <point x="669" y="1450"/>
      <point x="709" y="1446"/>
      <point x="728" y="1423"/>
      <point x="732" y="1376"/>
      <point x="732" y="1333" type="qcurve" smooth="yes"/>
      <point x="732" y="1184" type="line"/>
      <point x="592" y="785" type="line"/>
      <point x="302" y="785" type="line"/>
    </contour>
  </outline>
</glyph>
<glyph name="parenleft" format="1">
  <advance width="819"/>
  <unicode hex="0028"/>
  <outline>
    <contour>
      <point x="809.8" y="-256" type="curve"/>
      <point x="494.8" y="-256" type="line"/>
      <point x="273.8" y="-58"/>
      <point x="118.8" y="287"/>
      <point x="118.8" y="622" type="curve" smooth="yes"/>
      <point x="118.8" y="957"/>
      <point x="273.8" y="1303"/>
      <point x="494.8" y="1500" type="curve"/>
      <point x="809.8" y="1500" type="line"/>
      <point x="652.8" y="1296"/>
      <point x="550.8" y="952"/>
      <point x="550.8" y="622" type="curve" smooth="yes"/>
      <point x="550.8" y="292"/>
      <point x="652.8" y="-52"/>
    </contour>
  </outline>
</glyph>
<glyph name="asterisk" format="2">
  <advance width="824"/>
  <unicode hex="002A"/>
  <outline>
    <contour>
      <point x="308" y="802" type="line"/>
      <point x="308" y="971" type="line"/>
      <point x="164" y="874" type="line"/>
      <point x="59" y="1030" type="line"/>
      <point x="217" y="1136" type="line"/>
      <point x="59" y="1240" type="line"/>
      <point x="167" y="1400" type="line"/>
      <point x="308" y="1308" type="line"/>
      <point x="308" y="1472" type="line"/>
      <point x="516" y="1472" type="line"/>
      <point x="516" y="1306" type="line"/>
      <point x="660" y="1400" type="line"/>
      <point x="765" y="1244" type="line"/>
      <point x="607" y="1140" type="line"/>
      <point x="765" y="1034" type="line"/>
      <point x="657" y="874" type="line"/>
      <point x="516" y="969" type="line"/>
      <point x="516" y="802" type="line"/>
    </contour>
  </outline>
</glyph>
<glyph name="plus" format="1">
  <advance width="1317"/>
  <unicode hex="002B"/>
  <outline>
    <contour>
      <point x="1265.43" y="732" type="line"/>
      <point x="1265.43" y="442" type="line"/>
      <point x="829.429" y="442" type="line"/>
      <point x="829.429" y="0" type="line"/>
      <point x="487.429" y="0" type="line"/>
      <point x="487.429" y="442" type="line"/>
      <point x="51.4286" y="442" type="line"/>
      <point x="51.4286" y="732" type="line"/>
      <point x="487.429" y="732" type="line"/>
      <point x="487.429" y="1168" type="line"/>
      <point x="829.429" y="1168" type="line"/>
      <point x="829.429" y="732" type="line"/>
    </contour>
  </outline>
</glyph>
<glyph name="comma" format="1">
  <advance width="894"/>
  <unicode hex="002C"/>
  <outline>
    <contour>
      <point x="162" y="145" type="curve" smooth="yes"/>
      <point x="162" y="385" type="line" smooth="yes"/>
      <point x="162" y="503"/>
      <point x="183" y="524"/>
      <point x="303" y="524" type="curve" smooth="yes"/>
      <point x="591" y="524" type="line" smooth="yes"/>
      <point x="711" y="524"/>
      <point x="732" y="503"/>
      <point x="732" y="385" type="curve" smooth="yes"/>
      <point x="732" y="145" type="line" smooth="yes"/>
      <point x="732" y="25"/>
      <point x="711" y="4"/>
      <point x="591" y="4" type="curve" smooth="yes"/>
      <point x="303" y="4" type="line" smooth="yes"/>
      <point x="183" y="4"/>
      <point x="162" y="25"/>
    </contour>
    <contour>
      <point x="214" y="-298" type="curve"/>
      <point x="214" y="-298"/>
      <point x="382" y="22"/>
      <point x="382" y="22" type="curve"/>
      <point x="712" y="36" type="line"/>
      <point x="426" y="-342" type="line"/>
      <point x="426" y="-342"/>
      <point x="214" y="-298"/>
    </contour>
  </outline>
</glyph>
<glyph name="period" format="1">
  <advance width="894"/>
  <unicode hex="002E"/>
  <outline>
    <contour>
      <point x="162" y="135" type="curve" smooth="yes"/>
      <point x="162" y="386" type="line" smooth="yes"/>
      <point x="162" y="503"/>
      <point x="183" y="524"/>
      <point x="303" y="524" type="curve" smooth="yes"/>
      <point x="590" y="524" type="line" smooth="yes"/>
      <point x="710" y="524"/>
      <point x="732" y="503"/>
      <point x="732" y="384" type="curve" smooth="yes"/>
      <point x="732" y="135" type="line" smooth="yes"/>
      <point x="732" y="15"/>
      <point x="711" y="-6"/>
      <point x="591" y="-6" type="curve" smooth="yes"/>
      <point x="303" y="-6" type="line" smooth="yes"/>
      <point x="183" y="-6"/>
      <point x="162" y="15"/>
    </contour>
  </outline>
</glyph>
<glyph name="slash" format="2">
  <advance width="1139"/>
  <unicode hex="002F"/>
  <outline>
    <contour>
      <point x="638" y="1430" type="line"/>
      <point x="1058" y="1430" type="line"/>
      <point x="501" y="-100" type="line"/>
      <point x="81" y="-100" type="line"/>
    </contour>
  </outline>
</glyph>
<glyph name="zero" format="1">
  <advance width="1860" height="1448"/>
  <unicode hex="0030"/>
  <outline>
    <contour>
      <point x="592" y="-14" type="curve" smooth="yes"/>
      <point x="1266" y="-14" type="line" smooth="yes"/>
      <point x="1530" y="-14"/>
      <point x="1680" y="56"/>
      <point x="1680" y="332" type="curve" smooth="yes"/>
      <point x="1680" y="1080" type="line" smooth="yes"/>
      <point x="1680" y="1348"/>
      <point x="1518" y="1414"/>
      <point x="1266" y="1414" type="curve" smooth="yes"/>
      <point x="592" y="1414" type="line" smooth="yes"/>
      <point x="340" y="1414"/>
      <point x="180" y="1348"/>
      <point x="180" y="1080" type="curve" smooth="yes"/>
      <point x="180" y="332" type="line" smooth="yes"/>
      <point x="180" y="58"/>
      <point x="328" y="-14"/>
    </contour>
    <contour>
      <point x="752" y="470" type="line"/>
      <point x="752" y="470"/>
      <point x="752" y="470"/>
      <point x="752" y="470" type="curve"/>
      <point x="752" y="930" type="line"/>
      <point x="752" y="930"/>
      <point x="752" y="930"/>
      <point x="752" y="930" type="curve"/>
      <point x="1108" y="930" type="line"/>
      <point x="1108" y="930"/>
      <point x="1108" y="930"/>
      <point x="1108" y="930" type="curve"/>
      <point x="1108" y="470" type="line"/>
      <point x="1108" y="470"/>
      <point x="1108" y="470"/>
      <point x="1108" y="470" type="curve"/>
    </contour>
  </outline>
</glyph>
<glyph name="one" format="1">
  <advance width="1212" height="1448"/>
  <unicode hex="0031"/>
  <outline>
    <contour>
      <point x="460" y="0" type="line"/>
      <point x="1032" y="0" type="line"/>
      <point x="1032" y="1400" type="line"/>
      <point x="180" y="1286" type="line"/>
      <point x="180" y="884" type="line"/>
      <point x="460" y="898" type="line"/>
    </contour>
  </outline>
</glyph>
<glyph name="two" format="2">
  <advance width="1773"/>
  <unicode hex="0032"/>
  <outline>
    <contour>
      <point x="144" y="-14" type="line"/>
      <point x="144" y="295" type="line" smooth="yes"/>
      <point x="144" y="380"/>
      <point x="192" y="516"/>
      <point x="292" y="629"/>
      <point x="447" y="724"/>
      <point x="555" y="767" type="qcurve" smooth="yes"/>
      <point x="1021" y="954" type="line" smooth="yes"/>
      <point x="1026" y="956"/>
      <point x="1034" y="961"/>
      <point x="1040" y="967"/>
      <point x="1043" y="973"/>
      <point x="1043" y="977" type="qcurve" smooth="yes"/>
      <point x="1043" y="1028" type="line"/>
      <point x="1043" y="1028"/>
      <point x="1043" y="1028"/>
      <point x="1043" y="1028" type="qcurve"/>
      <point x="709" y="1028" type="line"/>
      <point x="709" y="1028"/>
      <point x="709" y="1028"/>
      <point x="709" y="1028" type="qcurve"/>
      <point x="709" y="912" type="line"/>
      <point x="163" y="1008" type="line"/>
      <point x="163" y="1086" type="line" smooth="yes"/>
      <point x="163" y="1189"/>
      <point x="223" y="1317"/>
      <point x="331" y="1389"/>
      <point x="482" y="1414"/>
      <point x="573" y="1414" type="qcurve" smooth="yes"/>
      <point x="1173" y="1414" type="line" smooth="yes"/>
      <point x="1265" y="1414"/>
      <point x="1417" y="1388"/>
      <point x="1528" y="1315"/>
      <point x="1589" y="1186"/>
      <point x="1589" y="1082" type="qcurve" smooth="yes"/>
      <point x="1589" y="1010" type="line" smooth="yes"/>
      <point x="1589" y="926"/>
      <point x="1553" y="806"/>
      <point x="1460" y="712"/>
      <point x="1303" y="632"/>
      <point x="1181" y="586" type="qcurve" smooth="yes"/>
      <point x="734" y="417" type="line" smooth="yes"/>
      <point x="720" y="412"/>
      <point x="701" y="403"/>
      <point x="690" y="393"/>
      <point x="686" y="382"/>
      <point x="686" y="374" type="qcurve"/>
      <point x="686" y="372" type="line"/>
      <point x="1083" y="372" type="line"/>
      <point x="1083" y="372"/>
      <point x="1083" y="372"/>
      <point x="1083" y="372" type="qcurve"/>
      <point x="1083" y="478" type="line"/>
      <point x="1629" y="382" type="line"/>
      <point x="1629" y="328" type="line" smooth="yes"/>
      <point x="1629" y="222"/>
      <point x="1572" y="89"/>
      <point x="1466" y="14"/>
      <point x="1314" y="-14"/>
      <point x="1219" y="-14" type="qcurve" smooth="yes"/>
    </contour>
  </outline>
</glyph>
<glyph name="three" format="2">
  <advance width="1842" height="1448"/>
  <unicode hex="0033"/>
  <outline>
    <contour>
      <point x="180" y="404" type="line"/>
      <point x="652" y="488" type="line"/>
      <point x="652" y="386" type="line"/>
      <point x="652" y="386"/>
      <point x="652" y="386"/>
      <point x="652" y="386"/>
      <point x="652" y="386"/>
      <point x="652" y="386" type="qcurve"/>
      <point x="1111" y="386" type="line" smooth="yes"/>
      <point x="1128" y="386"/>
      <point x="1157" y="393"/>
      <point x="1178" y="408"/>
      <point x="1190" y="430"/>
      <point x="1190" y="445" type="qcurve" smooth="yes"/>
      <point x="1190" y="485" type="line" smooth="yes"/>
      <point x="1190" y="500"/>
      <point x="1178" y="522"/>
      <point x="1156" y="535"/>
      <point x="1126" y="542"/>
      <point x="1109" y="542" type="qcurve" smooth="yes"/>
      <point x="816" y="542" type="line"/>
      <point x="816" y="874" type="line"/>
      <point x="1081" y="874" type="line" smooth="yes"/>
      <point x="1098" y="874"/>
      <point x="1128" y="882"/>
      <point x="1150" y="897"/>
      <point x="1162" y="917"/>
      <point x="1162" y="930" type="qcurve" smooth="yes"/>
      <point x="1162" y="956" type="line" smooth="yes"/>
      <point x="1162" y="969"/>
      <point x="1150" y="990"/>
      <point x="1129" y="1005"/>
      <point x="1099" y="1014"/>
      <point x="1081" y="1014" type="qcurve" smooth="yes"/>
      <point x="664" y="1014" type="line"/>
      <point x="664" y="1014"/>
      <point x="664" y="1014"/>
      <point x="664" y="1014" type="qcurve"/>
      <point x="664" y="894" type="line"/>
      <point x="192" y="978" type="line"/>
      <point x="192" y="1106" type="line" smooth="yes"/>
      <point x="192" y="1183"/>
      <point x="240" y="1298"/>
      <point x="336" y="1375"/>
      <point x="482" y="1414"/>
      <point x="580" y="1414" type="qcurve" smooth="yes"/>
      <point x="1246" y="1414" type="line" smooth="yes"/>
      <point x="1443" y="1414"/>
      <point x="1634" y="1249"/>
      <point x="1634" y="1096" type="qcurve" smooth="yes"/>
      <point x="1634" y="1014" type="line" smooth="yes"/>
      <point x="1634" y="947"/>
      <point x="1609" y="845"/>
      <point x="1558" y="773"/>
      <point x="1481" y="730"/>
      <point x="1428" y="720" type="qcurve"/>
      <point x="1485" y="716"/>
      <point x="1572" y="679"/>
      <point x="1632" y="605"/>
      <point x="1662" y="491"/>
      <point x="1662" y="408" type="qcurve" smooth="yes"/>
      <point x="1662" y="316" type="line" smooth="yes"/>
      <point x="1662" y="221"/>
      <point x="1603" y="94"/>
      <point x="1496" y="18"/>
      <point x="1346" y="-14"/>
      <point x="1254" y="-14" type="qcurve" smooth="yes"/>
      <point x="568" y="-14" type="line" smooth="yes"/>
      <point x="477" y="-14"/>
      <point x="333" y="15"/>
      <point x="233" y="87"/>
      <point x="180" y="211"/>
      <point x="180" y="306" type="qcurve" smooth="yes"/>
    </contour>
  </outline>
</glyph>
<glyph name="four" format="1">
  <advance width="1777"/>
  <unicode hex="0034"/>
  <outline>
    <contour>
      <point x="51" y="238" type="line"/>
      <point x="946" y="238" type="line"/>
      <point x="946" y="0" type="line"/>
      <point x="1518" y="0" type="line"/>
      <point x="1518" y="238" type="line"/>
      <point x="1725" y="238" type="line"/>
      <point x="1725" y="640" type="line"/>
      <point x="1518" y="640" type="line"/>
      <point x="1518" y="1400" type="line"/>
      <point x="818" y="1400" type="line"/>
      <point x="51" y="588" type="line"/>
    </contour>
    <contour>
      <point x="644" y="640" type="line"/>
      <point x="946" y="957" type="line"/>
      <point x="946" y="640" type="line"/>
    </contour>
  </outline>
</glyph>
<glyph name="five" format="2">
  <advance width="1727"/>
  <unicode hex="0035"/>
  <outline>
    <contour>
      <point x="824" y="-12" type="line"/>
      <point x="771" y="-12"/>
      <point x="629" y="-7"/>
      <point x="475" y="5"/>
      <point x="320" y="27"/>
      <point x="252" y="44" type="qcurve"/>
      <point x="168" y="382" type="line"/>
      <point x="202" y="378"/>
      <point x="277" y="369"/>
      <point x="364" y="362"/>
      <point x="462" y="356"/>
      <point x="577" y="352"/>
      <point x="708" y="350"/>
      <point x="784" y="350" type="qcurve" smooth="yes"/>
      <point x="855" y="350"/>
      <point x="962" y="358"/>
      <point x="1034" y="377"/>
      <point x="1070" y="409"/>
      <point x="1070" y="434" type="qcurve" smooth="yes"/>
      <point x="1070" y="456"/>
      <point x="1043" y="487"/>
      <point x="974" y="508"/>
      <point x="853" y="518"/>
      <point x="758" y="518" type="qcurve" smooth="yes"/>
      <point x="652" y="518"/>
      <point x="480" y="512"/>
      <point x="338" y="502"/>
      <point x="218" y="489"/>
      <point x="162" y="482" type="qcurve"/>
      <point x="238" y="1400" type="line"/>
      <point x="1478" y="1400" type="line"/>
      <point x="1386" y="970" type="line"/>
      <point x="560" y="970" type="line"/>
      <point x="552" y="860" type="line"/>
      <point x="587" y="865"/>
      <point x="676" y="875"/>
      <point x="781" y="882"/>
      <point x="898" y="886"/>
      <point x="960" y="886" type="qcurve" smooth="yes"/>
      <point x="1074" y="886"/>
      <point x="1263" y="864"/>
      <point x="1416" y="818"/>
      <point x="1531" y="746"/>
      <point x="1607" y="647"/>
      <point x="1646" y="518"/>
      <point x="1646" y="438" type="qcurve" smooth="yes"/>
      <point x="1646" y="341"/>
      <point x="1584" y="198"/>
      <point x="1474" y="98"/>
      <point x="1320" y="36"/>
      <point x="1138" y="0"/>
      <point x="932" y="-12"/>
      <point x="824" y="-12" type="qcurve"/>
    </contour>
  </outline>
</glyph>
<glyph name="six" format="2">
  <advance width="1819"/>
  <unicode hex="0036"/>
  <outline>
    <contour>
      <point x="913" y="-14" type="line"/>
      <point x="1069" y="-14"/>
      <point x="1306" y="-6"/>
      <point x="1481" y="26"/>
      <point x="1597" y="90"/>
      <point x="1668" y="203"/>
      <point x="1697" y="373"/>
      <point x="1697" y="494" type="qcurve" smooth="yes"/>
      <point x="1697" y="597"/>
      <point x="1650" y="741"/>
      <point x="1559" y="836"/>
      <point x="1424" y="889"/>
      <point x="1246" y="916"/>
      <point x="1027" y="922"/>
      <point x="897" y="922" type="qcurve" smooth="yes"/>
      <point x="812" y="922"/>
      <point x="632" y="899"/>
      <point x="467" y="863"/>
      <point x="329" y="820"/>
      <point x="285" y="800" type="qcurve"/>
      <point x="285" y="496" type="line"/>
      <point x="341" y="510"/>
      <point x="495" y="532"/>
      <point x="659" y="549"/>
      <point x="818" y="558"/>
      <point x="879" y="558" type="qcurve" smooth="yes"/>
      <point x="931" y="558"/>
      <point x="1007" y="555"/>
      <point x="1062" y="548"/>
      <point x="1097" y="534"/>
      <point x="1117" y="513"/>
      <point x="1125" y="482"/>
      <point x="1125" y="462" type="qcurve" smooth="yes"/>
      <point x="1125" y="444"/>
      <point x="1119" y="415"/>
      <point x="1104" y="391"/>
      <point x="1076" y="375"/>
      <point x="1032" y="363"/>
      <point x="969" y="358"/>
      <point x="926" y="358" type="qcurve" smooth="yes"/>
      <point x="882" y="358"/>
      <point x="816" y="360"/>
      <point x="767" y="370"/>
      <point x="735" y="390"/>
      <point x="715" y="425"/>
      <point x="707" y="478"/>
      <point x="707" y="516" type="qcurve" smooth="yes"/>
      <point x="707" y="632"/>
      <point x="729" y="806"/>
      <point x="783" y="931"/>
      <point x="870" y="1013"/>
      <point x="1002" y="1061"/>
      <point x="1180" y="1080"/>
      <point x="1297" y="1080" type="qcurve" smooth="yes"/>
      <point x="1308" y="1080"/>
      <point x="1340" y="1079"/>
      <point x="1372" y="1076"/>
      <point x="1401" y="1072"/>
      <point x="1409" y="1070" type="qcurve"/>
      <point x="1217" y="1410" type="line"/>
      <point x="1210" y="1412"/>
      <point x="1183" y="1414"/>
      <point x="1147" y="1417"/>
      <point x="1104" y="1418"/>
      <point x="1079" y="1418" type="qcurve" smooth="yes"/>
      <point x="924" y="1418"/>
      <point x="664" y="1364"/>
      <point x="454" y="1257"/>
      <point x="295" y="1099"/>
      <point x="189" y="890"/>
      <point x="135" y="631"/>
      <point x="135" y="478" type="qcurve" smooth="yes"/>
      <point x="135" y="360"/>
      <point x="166" y="195"/>
      <point x="238" y="86"/>
      <point x="355" y="24"/>
      <point x="528" y="-7"/>
      <point x="761" y="-14"/>
      <point x="913" y="-14" type="qcurve"/>
    </contour>
  </outline>
</glyph>
<glyph name="seven" format="1">
  <advance width="1587"/>
  <unicode hex="0037"/>
  <outline>
    <contour>
      <point x="332" y="0" type="line"/>
      <point x="983" y="0" type="line"/>
      <point x="1536" y="1028" type="line"/>
      <point x="1536" y="1400" type="line"/>
      <point x="70" y="1400" type="line"/>
      <point x="70" y="953" type="line"/>
      <point x="614" y="854" type="line"/>
      <point x="614" y="1000" type="line"/>
      <point x="876" y="1000" type="line"/>
    </contour>
  </outline>
</glyph>
<glyph name="eight" format="2">
  <advance width="1916"/>
  <unicode hex="0038"/>
  <outline>
    <contour>
      <point x="703" y="429" type="line" smooth="yes"/>
      <point x="703" y="414"/>
      <point x="714" y="390"/>
      <point x="737" y="374"/>
      <point x="770" y="365"/>
      <point x="792" y="365" type="qcurve" smooth="yes"/>
      <point x="1124" y="365" type="line" smooth="yes"/>
      <point x="1146" y="365"/>
      <point x="1179" y="374"/>
      <point x="1202" y="390"/>
      <point x="1213" y="414"/>
      <point x="1213" y="429" type="qcurve" smooth="yes"/>
      <point x="1213" y="457" type="line" smooth="yes"/>
      <point x="1213" y="472"/>
      <point x="1202" y="496"/>
      <point x="1179" y="512"/>
      <point x="1146" y="521"/>
      <point x="1124" y="521" type="qcurve" smooth="yes"/>
      <point x="792" y="521" type="line" smooth="yes"/>
      <point x="770" y="521"/>
      <point x="737" y="512"/>
      <point x="714" y="496"/>
      <point x="703" y="472"/>
      <point x="703" y="457" type="qcurve" smooth="yes"/>
    </contour>
    <contour>
      <point x="1180" y="971" type="line" smooth="yes"/>
      <point x="1180" y="986"/>
      <point x="1169" y="1009"/>
      <point x="1146" y="1025"/>
      <point x="1113" y="1034"/>
      <point x="1091" y="1034" type="qcurve" smooth="yes"/>
      <point x="825" y="1034" type="line" smooth="yes"/>
      <point x="803" y="1034"/>
      <point x="770" y="1025"/>
      <point x="747" y="1009"/>
      <point x="736" y="986"/>
      <point x="736" y="971" type="qcurve" smooth="yes"/>
      <point x="736" y="957" type="line" smooth="yes"/>
      <point x="736" y="942"/>
      <point x="747" y="919"/>
      <point x="770" y="903"/>
      <point x="803" y="894"/>
      <point x="825" y="894" type="qcurve" smooth="yes"/>
      <point x="1091" y="894" type="line" smooth="yes"/>
      <point x="1113" y="894"/>
      <point x="1146" y="903"/>
      <point x="1169" y="919"/>
      <point x="1180" y="942"/>
      <point x="1180" y="957" type="qcurve" smooth="yes"/>
    </contour>
    <contour>
      <point x="162" y="339" type="line"/>
      <point x="162" y="392" type="line" smooth="yes"/>
      <point x="162" y="477"/>
      <point x="200" y="592"/>
      <point x="265" y="665"/>
      <point x="351" y="703"/>
      <point x="399" y="712" type="qcurve"/>
      <point x="353" y="721"/>
      <point x="276" y="765"/>
      <point x="222" y="833"/>
      <point x="192" y="923"/>
      <point x="192" y="977" type="qcurve" smooth="yes"/>
      <point x="192" y="1075" type="line" smooth="yes"/>
      <point x="192" y="1153"/>
      <point x="242" y="1278"/>
      <point x="343" y="1367"/>
      <point x="494" y="1414"/>
      <point x="594" y="1414" type="qcurve" smooth="yes"/>
      <point x="1323" y="1414" type="line" smooth="yes"/>
      <point x="1424" y="1414"/>
      <point x="1574" y="1367"/>
      <point x="1674" y="1279"/>
      <point x="1724" y="1154"/>
      <point x="1724" y="1076" type="qcurve" smooth="yes"/>
      <point x="1724" y="977" type="line" smooth="yes"/>
      <point x="1724" y="923"/>
      <point x="1693" y="833"/>
      <point x="1639" y="765"/>
      <point x="1563" y="721"/>
      <point x="1518" y="712" type="qcurve"/>
      <point x="1566" y="704"/>
      <point x="1651" y="667"/>
      <point x="1716" y="595"/>
      <point x="1754" y="481"/>
      <point x="1754" y="396" type="qcurve" smooth="yes"/>
      <point x="1754" y="340" type="line" smooth="yes"/>
      <point x="1754" y="239"/>
      <point x="1690" y="103"/>
      <point x="1576" y="21"/>
      <point x="1420" y="-14"/>
      <point x="1328" y="-14" type="qcurve" smooth="yes"/>
      <point x="587" y="-14" type="line" smooth="yes"/>
      <point x="497" y="-14"/>
      <point x="341" y="20"/>
      <point x="227" y="102"/>
      <point x="162" y="238"/>
      <point x="162" y="339" type="qcurve"/>
    </contour>
  </outline>
</glyph>
<glyph name="nine" format="1">
  <advance width="1832"/>
  <unicode hex="0039"/>
  <outline>
    <contour>
      <point x="910" y="1416" type="curve" smooth="yes"/>
      <point x="296" y="1416"/>
      <point x="126" y="1374"/>
      <point x="126" y="908" type="curve" smooth="yes"/>
      <point x="126" y="496"/>
      <point x="408" y="480"/>
      <point x="926" y="480" type="curve" smooth="yes"/>
      <point x="1154" y="480"/>
      <point x="1422" y="551"/>
      <point x="1538" y="604" type="curve"/>
      <point x="1538" y="914" type="line"/>
      <point x="1388" y="878"/>
      <point x="1108" y="852"/>
      <point x="944" y="852" type="curve" smooth="yes"/>
      <point x="738" y="852"/>
      <point x="698" y="866"/>
      <point x="698" y="948" type="curve" smooth="yes"/>
      <point x="698" y="1020"/>
      <point x="725" y="1052"/>
      <point x="897" y="1052" type="curve" smooth="yes"/>
      <point x="1072" y="1052"/>
      <point x="1116" y="1046"/>
      <point x="1116" y="886" type="curve" smooth="yes"/>
      <point x="1116" y="422"/>
      <point x="994" y="322"/>
      <point x="526" y="322" type="curve" smooth="yes"/>
      <point x="496" y="322"/>
      <point x="436" y="326"/>
      <point x="414" y="332" type="curve"/>
      <point x="606" y="-8" type="line"/>
      <point x="626" y="-12"/>
      <point x="678" y="-16"/>
      <point x="744" y="-16" type="curve" smooth="yes"/>
      <point x="1364" y="-16"/>
      <point x="1688" y="310"/>
      <point x="1688" y="924" type="curve" smooth="yes"/>
      <point x="1688" y="1396"/>
      <point x="1517" y="1416"/>
    </contour>
  </outline>
</glyph>
<glyph name="colon" format="1">
  <advance width="894"/>
  <unicode hex="003A"/>
  <outline>
    <contour>
      <point x="162" y="135" type="curve" smooth="yes"/>
      <point x="162" y="316" type="line" smooth="yes"/>
      <point x="162" y="433"/>
      <point x="183" y="454"/>
      <point x="303" y="454" type="curve" smooth="yes"/>
      <point x="590" y="454" type="line" smooth="yes"/>
      <point x="710" y="454"/>
      <point x="732" y="433"/>
      <point x="732" y="314" type="curve" smooth="yes"/>
      <point x="732" y="135" type="line" smooth="yes"/>
      <point x="732" y="15"/>
      <point x="711" y="-6"/>
      <point x="591" y="-6" type="curve" smooth="yes"/>
      <point x="303" y="-6" type="line" smooth="yes"/>
      <point x="183" y="-6"/>
      <point x="162" y="15"/>
    </contour>
    <contour>
      <point x="162" y="715" type="curve" smooth="yes"/>
      <point x="162" y="896" type="line" smooth="yes"/>
      <point x="162" y="1013"/>
      <point x="183" y="1034"/>
      <point x="303" y="1034" type="curve" smooth="yes"/>
      <point x="590" y="1034" type="line" smooth="yes"/>
      <point x="710" y="1034"/>
      <point x="732" y="1013"/>
      <point x="732" y="894" type="curve" smooth="yes"/>
      <point x="732" y="715" type="line" smooth="yes"/>
      <point x="732" y="595"/>
      <point x="711" y="574"/>
      <point x="591" y="574" type="curve" smooth="yes"/>
      <point x="303" y="574" type="line" smooth="yes"/>
      <point x="183" y="574"/>
      <point x="162" y="595"/>
    </contour>
  </outline>
</glyph>
<glyph name="semicolon" format="2">
  <advance width="894"/>
  <unicode hex="003B"/>
  <outline>
    <contour>
      <point x="162" y="715" type="line"/>
      <point x="162" y="896" type="line" smooth="yes"/>
      <point x="162" y="940"/>
      <point x="172" y="994"/>
      <point x="203" y="1024"/>
      <point x="258" y="1034"/>
      <point x="303" y="1034" type="qcurve" smooth="yes"/>
      <point x="590" y="1034" type="line" smooth="yes"/>
      <point x="635" y="1034"/>
      <point x="691" y="1024"/>
      <point x="721" y="994"/>
      <point x="732" y="939"/>
      <point x="732" y="894" type="qcurve" smooth="yes"/>
      <point x="732" y="715" type="line" smooth="yes"/>
      <point x="732" y="670"/>
      <point x="722" y="615"/>
      <point x="691" y="584"/>
      <point x="636" y="574"/>
      <point x="591" y="574" type="qcurve" smooth="yes"/>
      <point x="303" y="574" type="line" smooth="yes"/>
      <point x="258" y="574"/>
      <point x="203" y="584"/>
      <point x="172" y="615"/>
      <point x="162" y="670"/>
      <point x="162" y="715" type="qcurve"/>
    </contour>
    <contour>
      <point x="162" y="145" type="line"/>
      <point x="162" y="315" type="line" smooth="yes"/>
      <point x="162" y="359"/>
      <point x="172" y="414"/>
      <point x="203" y="444"/>
      <point x="258" y="454"/>
      <point x="303" y="454" type="qcurve" smooth="yes"/>
      <point x="591" y="454" type="line" smooth="yes"/>
      <point x="636" y="454"/>
      <point x="691" y="444"/>
      <point x="722" y="414"/>
      <point x="732" y="359"/>
      <point x="732" y="315" type="qcurve" smooth="yes"/>
      <point x="732" y="145" type="line" smooth="yes"/>
      <point x="732" y="100"/>
      <point x="722" y="45"/>
      <point x="691" y="14"/>
      <point x="636" y="4"/>
      <point x="591" y="4" type="qcurve" smooth="yes"/>
      <point x="303" y="4" type="line" smooth="yes"/>
      <point x="258" y="4"/>
      <point x="203" y="14"/>
      <point x="172" y="45"/>
      <point x="162" y="100"/>
      <point x="162" y="145" type="qcurve"/>
    </contour>
    <contour>
      <point x="214" y="-298" type="line"/>
      <point x="382" y="22" type="line"/>
      <point x="712" y="36" type="line"/>
      <point x="426" y="-342" type="line"/>
      <point x="214" y="-298" type="line"/>
    </contour>
  </outline>
</glyph>
<glyph name="less" format="2">
  <advance width="1448"/>
  <unicode hex="003C"/>
  <outline>
    <contour>
      <point x="1331" y="0" type="line"/>
      <point x="1331" y="308" type="line"/>
      <point x="580" y="586" type="line"/>
      <point x="1331" y="864" type="line"/>
      <point x="1331" y="1168" type="line"/>
      <point x="117" y="719" type="line"/>
      <point x="117" y="449" type="line"/>
      <point x="1331" y="0" type="line"/>
    </contour>
  </outline>
</glyph>
<glyph name="question" format="2">
  <advance width="1421"/>
  <unicode hex="003F"/>
  <outline>
    <contour>
      <point x="419" y="462" type="line"/>
      <point x="419" y="658" type="line" smooth="yes"/>
      <point x="419" y="702"/>
      <point x="449" y="785"/>
      <point x="507" y="850"/>
      <point x="596" y="890"/>
      <point x="654" y="890" type="qcurve" smooth="yes"/>
      <point x="826" y="890" type="line"/>
      <point x="826" y="890"/>
      <point x="826" y="890"/>
      <point x="826" y="890"/>
      <point x="826" y="890"/>
      <point x="826" y="890" type="qcurve"/>
      <point x="826" y="1028" type="line"/>
      <point x="826" y="1028"/>
      <point x="826" y="1028"/>
      <point x="826" y="1028"/>
      <point x="826" y="1028"/>
      <point x="826" y="1028" type="qcurve"/>
      <point x="541" y="1028" type="line"/>
      <point x="541" y="1028"/>
      <point x="541" y="1028"/>
      <point x="541" y="1028"/>
      <point x="541" y="1028"/>
      <point x="541" y="1028" type="qcurve"/>
      <point x="541" y="935" type="line"/>
      <point x="36" y="1008" type="line"/>
      <point x="36" y="1117" type="line" smooth="yes"/>
      <point x="36" y="1196"/>
      <point x="79" y="1309"/>
      <point x="171" y="1381"/>
      <point x="315" y="1414"/>
      <point x="417" y="1414" type="qcurve" smooth="yes"/>
      <point x="953" y="1414" type="line" smooth="yes"/>
      <point x="1055" y="1414"/>
      <point x="1198" y="1381"/>
      <point x="1289" y="1311"/>
      <point x="1331" y="1199"/>
      <point x="1331" y="1119" type="qcurve" smooth="yes"/>
      <point x="1331" y="822" type="line" smooth="yes"/>
      <point x="1331" y="763"/>
      <point x="1301" y="655"/>
      <point x="1235" y="573"/>
      <point x="1131" y="524"/>
      <point x="1057" y="524" type="qcurve" smooth="yes"/>
      <point x="894" y="524" type="line"/>
      <point x="894" y="524"/>
      <point x="894" y="524"/>
      <point x="894" y="524"/>
      <point x="894" y="524"/>
      <point x="894" y="524" type="qcurve"/>
      <point x="894" y="462" type="line"/>
    </contour>
    <contour>
      <point x="371" y="135" type="line"/>
      <point x="371" y="226" type="line" smooth="yes"/>
      <point x="371" y="270"/>
      <point x="381" y="324"/>
      <point x="412" y="354"/>
      <point x="467" y="364"/>
      <point x="512" y="364" type="qcurve" smooth="yes"/>
      <point x="799" y="364" type="line" smooth="yes"/>
      <point x="844" y="364"/>
      <point x="900" y="354"/>
      <point x="930" y="324"/>
      <point x="941" y="269"/>
      <point x="941" y="224" type="qcurve" smooth="yes"/>
      <point x="941" y="135" type="line" smooth="yes"/>
      <point x="941" y="90"/>
      <point x="931" y="35"/>
      <point x="900" y="4"/>
      <point x="845" y="-6"/>
      <point x="800" y="-6" type="qcurve" smooth="yes"/>
      <point x="512" y="-6" type="line" smooth="yes"/>
      <point x="467" y="-6"/>
      <point x="412" y="4"/>
      <point x="381" y="35"/>
      <point x="371" y="90"/>
      <point x="371" y="135" type="qcurve"/>
    </contour>
  </outline>
</glyph>
<glyph name="at" format="2">
  <advance width="2110" height="1020.84"/>
  <unicode hex="0040"/>
  <outline>
    <contour>
      <point x="158" y="80" type="line"/>
      <point x="158" y="971" type="line" smooth="yes"/>
      <point x="158" y="1059"/>
      <point x="209" y="1169"/>
      <point x="302" y="1231"/>
      <point x="431" y="1253"/>
      <point x="509" y="1253" type="qcurve" smooth="yes"/>
      <point x="1600" y="1253" type="line" smooth="yes"/>
      <point x="1678" y="1253"/>
      <point x="1807" y="1231"/>
      <point x="1900" y="1169"/>
      <point x="1952" y="1059"/>
      <point x="1952" y="971" type="qcurve" smooth="yes"/>
      <point x="1952" y="426" type="line" smooth="yes"/>
      <point x="1952" y="335"/>
      <point x="1906" y="228"/>
      <point x="1826" y="171"/>
      <point x="1722" y="154"/>
      <point x="1663" y="154" type="qcurve" smooth="yes"/>
      <point x="1377" y="154" type="line" smooth="yes"/>
      <point x="1322" y="154"/>
      <point x="1241" y="175"/>
      <point x="1187" y="208"/>
      <point x="1161" y="248"/>
      <point x="1161" y="266" type="qcurve"/>
      <point x="1152" y="234"/>
      <point x="1116" y="191"/>
      <point x="1065" y="165"/>
      <point x="1001" y="154"/>
      <point x="964" y="154" type="qcurve" smooth="yes"/>
      <point x="785" y="154" type="line" smooth="yes"/>
      <point x="729" y="154"/>
      <point x="648" y="176"/>
      <point x="596" y="221"/>
      <point x="571" y="291"/>
      <point x="571" y="339" type="qcurve" smooth="yes"/>
      <point x="571" y="707" type="line" smooth="yes"/>
      <point x="571" y="753"/>
      <point x="596" y="820"/>
      <point x="648" y="864"/>
      <point x="729" y="885"/>
      <point x="785" y="885" type="qcurve" smooth="yes"/>
      <point x="970" y="885" type="line" smooth="yes"/>
      <point x="1045" y="885"/>
      <point x="1138" y="846"/>
      <point x="1161" y="806" type="qcurve"/>
      <point x="1161" y="878" type="line"/>
      <point x="1528" y="878" type="line"/>
      <point x="1528" y="462" type="line" smooth="yes"/>
      <point x="1528" y="451"/>
      <point x="1533" y="434"/>
      <point x="1545" y="423"/>
      <point x="1564" y="417"/>
      <point x="1577" y="417" type="qcurve" smooth="yes"/>
      <point x="1592" y="417" type="line" smooth="yes"/>
      <point x="1608" y="417"/>
      <point x="1628" y="427"/>
      <point x="1640" y="448"/>
      <point x="1644" y="479"/>
      <point x="1644" y="500" type="qcurve" smooth="yes"/>
      <point x="1644" y="886" type="line" smooth="yes"/>
      <point x="1644" y="909"/>
      <point x="1629" y="947"/>
      <point x="1592" y="975"/>
      <point x="1531" y="990"/>
      <point x="1485" y="990" type="qcurve" smooth="yes"/>
      <point x="614" y="990" type="line" smooth="yes"/>
      <point x="581" y="990"/>
      <point x="527" y="981"/>
      <point x="488" y="958"/>
      <point x="467" y="918"/>
      <point x="467" y="886" type="qcurve" smooth="yes"/>
      <point x="467" y="164" type="line" smooth="yes"/>
      <point x="467" y="138"/>
      <point x="479" y="96"/>
      <point x="511" y="66"/>
      <point x="568" y="49"/>
      <point x="614" y="49" type="qcurve" smooth="yes"/>
      <point x="1663" y="49" type="line"/>
      <point x="1664" y="-213" type="line"/>
      <point x="509" y="-213" type="line" smooth="yes"/>
      <point x="427" y="-213"/>
      <point x="297" y="-189"/>
      <point x="206" y="-124"/>
      <point x="158" y="-10"/>
      <point x="158" y="80" type="qcurve"/>
    </contour>
    <contour>
      <point x="937" y="421" type="line"/>
      <point x="937" y="421"/>
      <point x="937" y="421"/>
      <point x="937" y="421" type="qcurve"/>
      <point x="1161" y="421" type="line"/>
      <point x="1161" y="421"/>
      <point x="1161" y="421"/>
      <point x="1161" y="421" type="qcurve"/>
      <point x="1161" y="617" type="line"/>
      <point x="937" y="617" type="line"/>
      <point x="937" y="617"/>
      <point x="937" y="617"/>
      <point x="937" y="617" type="qcurve"/>
    </contour>
  </outline>
</glyph>
<glyph name="A" format="2">
  <advance width="2002" height="1448"/>
  <unicode hex="0041"/>
  <anchor x="1002" y="1550" name="top"/>
  <anchor x="1002" y="-150" name="bottom"/>
  <anchor x="1336" y="0" name="ogonek_in"/>
  <outline>
    <contour>
      <point x="0" y="0" type="line"/>
      <point x="588" y="0" type="line"/>
      <point x="679" y="176" type="line"/>
      <point x="1258" y="176" type="line"/>
      <point x="1336" y="0" type="line"/>
      <point x="2002" y="0" type="line"/>
      <point x="1276" y="1400" type="line"/>
      <point x="726" y="1400" type="line"/>
    </contour>
    <contour>
      <point x="856" y="516" type="line"/>
      <point x="991" y="776" type="line"/>
      <point x="1107" y="516" type="line"/>
    </contour>
  </outline>
</glyph>
<glyph name="B" format="1">
  <advance width="1839.04"/>
  <unicode hex="0042"/>
  <outline>
    <contour>
      <point x="180" y="0" type="line"/>
      <point x="1346" y="0" type="line" smooth="yes"/>
      <point x="1626.21" y="0"/>
      <point x="1744" y="118.703"/>
      <point x="1744" y="335.969" type="curve" smooth="yes"/>
      <point x="1744" y="375.969" type="line" smooth="yes"/>
      <point x="1744" y="525.623"/>
      <point x="1683.77" y="638.935"/>
      <point x="1548" y="704" type="curve"/>
      <point x="1668.58" y="767.549"/>
      <point x="1728" y="867.886"/>
      <point x="1728" y="1003.39" type="curve" smooth="yes"/>
      <point x="1728" y="1053.39" type="line" smooth="yes"/>
      <point x="1728" y="1272.04"/>
      <point x="1601.64" y="1400"/>
      <point x="1330" y="1400" type="curve" smooth="yes"/>
      <point x="180" y="1400" type="line"/>
    </contour>
    <contour>
      <point x="752" y="376" type="line"/>
      <point x="752" y="516" type="line"/>
      <point x="1096" y="516" type="line" smooth="yes"/>
      <point x="1148" y="516"/>
      <point x="1172" y="492"/>
      <point x="1172" y="456" type="curve" smooth="yes"/>
      <point x="1172" y="436" type="line" smooth="yes"/>
      <point x="1172" y="400"/>
      <point x="1148" y="376"/>
      <point x="1096" y="376" type="curve" smooth="yes"/>
    </contour>
    <contour>
      <point x="752" y="888" type="line"/>
      <point x="752" y="1028" type="line"/>
      <point x="1096" y="1028" type="line" smooth="yes"/>
      <point x="1148" y="1028"/>
      <point x="1172" y="1004"/>
      <point x="1172" y="968" type="curve" smooth="yes"/>
      <point x="1172" y="948" type="line" smooth="yes"/>
      <point x="1172" y="912"/>
      <point x="1148" y="888"/>
      <point x="1096" y="888" type="curve" smooth="yes"/>
    </contour>
    <contour>
      <point x="920" y="1550" type="move" name="top"/>
    </contour>
    <contour>
      <point x="920" y="-150" type="move" name="bottom"/>
    </contour>
  </outline>
</glyph>
<glyph name="C" format="1">
  <advance width="1903.12" height="1448"/>
  <unicode hex="0043"/>
  <outline>
    <contour>
      <point x="158.4" y="1080" type="curve" smooth="yes"/>
      <point x="158.4" y="332" type="line" smooth="yes"/>
      <point x="158.4" y="58"/>
      <point x="306.4" y="-14"/>
      <point x="570.4" y="-14" type="curve" smooth="yes"/>
      <point x="1362.4" y="-14" type="line" smooth="yes"/>
      <point x="1626.4" y="-14"/>
      <point x="1776.4" y="56"/>
      <point x="1776.4" y="332" type="curve" smooth="yes"/>
      <point x="1776.4" y="454" type="line"/>
      <point x="1204.4" y="566" type="line"/>
      <point x="1204.4" y="450" type="line"/>
      <point x="1204.4" y="450"/>
      <point x="1204.4" y="450"/>
      <point x="1204.4" y="450" type="curve"/>
      <point x="730.4" y="450" type="line"/>
      <point x="730.4" y="450"/>
      <point x="730.4" y="450"/>
      <point x="730.4" y="450" type="curve"/>
      <point x="730.4" y="950" type="line"/>
      <point x="730.4" y="950"/>
      <point x="730.4" y="950"/>
      <point x="730.4" y="950" type="curve"/>
      <point x="1198.4" y="950" type="line"/>
      <point x="1198.4" y="950"/>
      <point x="1198.4" y="950"/>
      <point x="1198.4" y="950" type="curve"/>
      <point x="1198.4" y="860" type="line"/>
      <point x="1770.4" y="966" type="line"/>
      <point x="1770.4" y="1080" type="line" smooth="yes"/>
      <point x="1770.4" y="1348"/>
      <point x="1608.4" y="1414"/>
      <point x="1356.4" y="1414" type="curve" smooth="yes"/>
      <point x="570.4" y="1414" type="line" smooth="yes"/>
      <point x="318.4" y="1414"/>
      <point x="158.4" y="1348"/>
    </contour>
    <contour>
      <point x="968" y="1564" type="move" name="top"/>
    </contour>
    <contour>
      <point x="968" y="-164" type="move" name="bottom"/>
    </contour>
  </outline>
</glyph>
<glyph name="D" format="2">
  <advance width="2060"/>
  <unicode hex="0044"/>
  <anchor x="927" y="1550" name="top"/>
  <anchor x="927" y="-150" name="bottom"/>
  <outline>
    <contour>
      <point x="752" y="444" type="line"/>
      <point x="1030" y="444" type="line" smooth="yes"/>
      <point x="1089" y="444"/>
      <point x="1183" y="457"/>
      <point x="1258" y="484"/>
      <point x="1312" y="526"/>
      <point x="1347" y="584"/>
      <point x="1364" y="659"/>
      <point x="1364" y="706" type="qcurve" smooth="yes"/>
      <point x="1364" y="752"/>
      <point x="1346" y="825"/>
      <point x="1311" y="880"/>
      <point x="1256" y="920"/>
      <point x="1182" y="945"/>
      <point x="1088" y="956"/>
      <point x="1030" y="956" type="qcurve" smooth="yes"/>
      <point x="752" y="956" type="line"/>
    </contour>
    <contour>
      <point x="180" y="0" type="line"/>
      <point x="180" y="1400" type="line"/>
      <point x="1195" y="1400" type="line" smooth="yes"/>
      <point x="1308" y="1400"/>
      <point x="1507" y="1362"/>
      <point x="1672" y="1285"/>
      <point x="1802" y="1169"/>
      <point x="1893" y="1013"/>
      <point x="1940" y="818"/>
      <point x="1940" y="700" type="qcurve" smooth="yes"/>
      <point x="1940" y="575"/>
      <point x="1887" y="373"/>
      <point x="1789" y="218"/>
      <point x="1653" y="106"/>
      <point x="1488" y="34"/>
      <point x="1297" y="0"/>
      <point x="1195" y="0" type="qcurve" smooth="yes"/>
    </contour>
  </outline>
  <guideline angle="0" x="0" y="1549"/>
  <guideline angle="0" x="0" y="1325"/>
  <guideline angle="0" x="0" y="73"/>
</glyph>
<glyph name="E" format="1">
  <advance width="1816"/>
  <unicode hex="0045"/>
  <outline>
    <contour>
      <point x="180" y="0" type="line"/>
      <point x="180" y="1400" type="line"/>
      <point x="1680" y="1400" type="line"/>
      <point x="1680" y="976" type="line"/>
      <point x="752" y="976" type="line"/>
      <point x="752" y="890" type="line"/>
      <point x="1294" y="890" type="line"/>
      <point x="1294" y="520" type="line"/>
      <point x="752" y="520" type="line"/>
      <point x="752" y="424" type="line"/>
      <point x="1700" y="424" type="line"/>
      <point x="1700" y="0" type="line"/>
    </contour>
    <contour>
      <point x="940" y="1550" type="move" name="top"/>
    </contour>
    <contour>
      <point x="940" y="-150" type="move" name="bottom"/>
    </contour>
  </outline>
</glyph>
<glyph name="F" format="1">
  <advance width="1771.57"/>
  <unicode hex="0046"/>
  <outline>
    <contour>
      <point x="180" y="0" type="line"/>
      <point x="180" y="1400" type="line"/>
      <point x="1688" y="1400" type="line"/>
      <point x="1688" y="956" type="line"/>
      <point x="752" y="956" type="line"/>
      <point x="752" y="834" type="line"/>
      <point x="1274" y="834" type="line"/>
      <point x="1274" y="390" type="line"/>
      <point x="752" y="390" type="line"/>
      <point x="752" y="0" type="line"/>
    </contour>
  </outline>
</glyph>
<glyph name="G" format="1">
  <advance width="1943" height="1448"/>
  <unicode hex="0047"/>
  <outline>
    <contour>
      <point x="158.4" y="1066" type="curve" smooth="yes"/>
      <point x="158.4" y="346" type="line" smooth="yes"/>
      <point x="158.4" y="72"/>
      <point x="306.4" y="0"/>
      <point x="570.4" y="0" type="curve" smooth="yes"/>
      <point x="1402.4" y="0" type="line" smooth="yes"/>
      <point x="1666.4" y="0"/>
      <point x="1816.4" y="70"/>
      <point x="1816.4" y="346" type="curve" smooth="yes"/>
      <point x="1816.4" y="864" type="line"/>
      <point x="988.4" y="864" type="line"/>
      <point x="988.4" y="494" type="line"/>
      <point x="1244.4" y="494" type="line"/>
      <point x="1244.4" y="424" type="line"/>
      <point x="1244.4" y="424"/>
      <point x="1244.4" y="424"/>
      <point x="1244.4" y="424" type="curve"/>
      <point x="730.4" y="424" type="line"/>
      <point x="730.4" y="424"/>
      <point x="730.4" y="424"/>
      <point x="730.4" y="424" type="curve"/>
      <point x="730.4" y="976" type="line"/>
      <point x="730.4" y="976"/>
      <point x="730.4" y="976"/>
      <point x="730.4" y="976" type="curve"/>
      <point x="1238.4" y="976" type="line"/>
      <point x="1238.4" y="976"/>
      <point x="1238.4" y="976"/>
      <point x="1238.4" y="976" type="curve"/>
      <point x="1238.4" y="906" type="line"/>
      <point x="1810.4" y="1012" type="line"/>
      <point x="1810.4" y="1066" type="line" smooth="yes"/>
      <point x="1810.4" y="1334"/>
      <point x="1648.4" y="1400"/>
      <point x="1396.4" y="1400" type="curve" smooth="yes"/>
      <point x="570.4" y="1400" type="line" smooth="yes"/>
      <point x="318.4" y="1400"/>
      <point x="158.4" y="1334"/>
    </contour>
    <contour>
      <point x="988" y="1550" type="move" name="top"/>
    </contour>
    <contour>
      <point x="988" y="-150" type="move" name="bottom"/>
    </contour>
  </outline>
</glyph>
<glyph name="H" format="1">
  <advance width="2074" height="1448"/>
  <unicode hex="0048"/>
  <outline>
    <contour>
      <point x="180" y="0" type="line"/>
      <point x="752" y="0" type="line"/>
      <point x="752" y="1400" type="line"/>
      <point x="180" y="1400" type="line"/>
    </contour>
    <contour>
      <point x="1322" y="0" type="line"/>
      <point x="1894" y="0" type="line"/>
      <point x="1894" y="1400" type="line"/>
      <point x="1322" y="1400" type="line"/>
    </contour>
    <contour>
      <point x="722" y="482" type="line"/>
      <point x="1352" y="482" type="line"/>
      <point x="1352" y="966" type="line"/>
      <point x="722" y="966" type="line"/>
    </contour>
    <contour>
      <point x="1038" y="1550" type="move" name="top"/>
    </contour>
    <contour>
      <point x="1038" y="-150" type="move" name="bottom"/>
    </contour>
    <contour>
      <point x="80" y="700" type="move" name="left"/>
    </contour>
  </outline>
</glyph>
<glyph name="I" format="1">
  <advance width="932" height="1448"/>
  <unicode hex="0049"/>
  <outline>
    <contour>
      <point x="180" y="0" type="line"/>
      <point x="180" y="1400" type="line"/>
      <point x="752" y="1400" type="line"/>
      <point x="752" y="0" type="line"/>
    </contour>
    <contour>
      <point x="466" y="1550" type="move" name="top"/>
    </contour>
    <contour>
      <point x="466" y="-150" type="move" name="bottom"/>
    </contour>
  </outline>
</glyph>
<glyph name="J" format="1">
  <advance width="1781.2" height="1448"/>
  <unicode hex="004A"/>
  <outline>
    <contour>
      <point x="1612" y="1400" type="line"/>
      <point x="1040" y="1400" type="line"/>
      <point x="1040" y="450" type="line"/>
      <point x="1040" y="450"/>
      <point x="1040" y="450"/>
      <point x="1040" y="450" type="curve"/>
      <point x="672" y="450" type="line"/>
      <point x="672" y="450"/>
      <point x="672" y="450"/>
      <point x="672" y="450" type="curve"/>
      <point x="672" y="740" type="line"/>
      <point x="100" y="634" type="line"/>
      <point x="100" y="320" type="line" smooth="yes"/>
      <point x="100" y="52"/>
      <point x="262" y="-14"/>
      <point x="514" y="-14" type="curve" smooth="yes"/>
      <point x="1200" y="-14" type="line" smooth="yes"/>
      <point x="1452" y="-14"/>
      <point x="1612" y="52"/>
      <point x="1612" y="320" type="curve" smooth="yes"/>
    </contour>
    <contour>
      <point x="1326" y="1564" type="move" name="top"/>
    </contour>
    <contour>
      <point x="842" y="-164" type="move" name="bottom"/>
    </contour>
  </outline>
</glyph>
<glyph name="K" format="1">
  <advance width="2088.2" height="1448"/>
  <unicode hex="004B"/>
  <outline>
    <contour>
      <point x="180" y="0" type="line"/>
      <point x="752" y="0" type="line"/>
      <point x="752" y="1400" type="line"/>
      <point x="180" y="1400" type="line"/>
    </contour>
    <contour>
      <point x="669" y="711" type="line"/>
      <point x="1272" y="711" type="line"/>
      <point x="1923" y="1400" type="line"/>
      <point x="1228" y="1400" type="line"/>
    </contour>
    <contour>
      <point x="642" y="711" type="line"/>
      <point x="1207" y="0" type="line"/>
      <point x="2081" y="0" type="line"/>
      <point x="1268" y="809" type="line"/>
    </contour>
    <contour>
      <point x="919" y="1598" type="move" name="top"/>
    </contour>
    <contour>
      <point x="919" y="-150" type="move" name="bottom"/>
    </contour>
  </outline>
</glyph>
<glyph name="M" format="1">
  <advance width="2188"/>
  <unicode hex="004D"/>
  <outline>
    <contour>
      <point x="180" y="0" type="line"/>
      <point x="664" y="0" type="line"/>
      <point x="664" y="616" type="line"/>
      <point x="1060" y="40" type="line"/>
      <point x="1436" y="613" type="line"/>
      <point x="1436" y="0" type="line"/>
      <point x="2008" y="0" type="line"/>
      <point x="2008" y="1400" type="line"/>
      <point x="1498" y="1400" type="line"/>
      <point x="1095" y="785" type="line"/>
      <point x="672" y="1400" type="line"/>
      <point x="180" y="1400" type="line"/>
    </contour>
    <contour>
      <point x="1094" y="1550" type="move" name="top"/>
    </contour>
    <contour>
      <point x="1094" y="-150" type="move" name="bottom"/>
    </contour>
  </outline>
</glyph>
<glyph name="N" format="1">
  <advance width="2070"/>
  <unicode hex="004E"/>
  <outline>
    <contour>
      <point x="180" y="0" type="line"/>
      <point x="712" y="0" type="line"/>
      <point x="712" y="549" type="line"/>
      <point x="1466" y="0" type="line"/>
      <point x="1890" y="0" type="line"/>
      <point x="1890" y="1400" type="line"/>
      <point x="1358" y="1400" type="line"/>
      <point x="1358" y="842" type="line"/>
      <point x="602" y="1400" type="line"/>
      <point x="180" y="1400" type="line"/>
    </contour>
    <contour>
      <point x="1035" y="1550" type="move" name="top"/>
    </contour>
    <contour>
      <point x="1035" y="-150" type="move" name="bottom"/>
    </contour>
  </outline>
</glyph>
<glyph name="O" format="1">
  <advance width="2056.8" height="1448"/>
  <unicode hex="004F"/>
  <outline>
    <contour>
      <point x="158.4" y="1080" type="curve" smooth="yes"/>
      <point x="158.4" y="332" type="line" smooth="yes"/>
      <point x="158.4" y="58"/>
      <point x="306.4" y="-14"/>
      <point x="570.4" y="-14" type="curve" smooth="yes"/>
      <point x="1484.4" y="-14" type="line" smooth="yes"/>
      <point x="1748.4" y="-14"/>
      <point x="1898.4" y="56"/>
      <point x="1898.4" y="332" type="curve" smooth="yes"/>
      <point x="1898.4" y="1080" type="line" smooth="yes"/>
      <point x="1898.4" y="1348"/>
      <point x="1736.4" y="1414"/>
      <point x="1484.4" y="1414" type="curve" smooth="yes"/>
      <point x="570.4" y="1414" type="line" smooth="yes"/>
      <point x="318.4" y="1414"/>
      <point x="158.4" y="1348"/>
    </contour>
    <contour>
      <point x="730.4" y="930" type="line"/>
      <point x="730.4" y="930"/>
      <point x="730.4" y="930"/>
      <point x="730.4" y="930" type="curve"/>
      <point x="1326.4" y="930" type="line"/>
      <point x="1326.4" y="930"/>
      <point x="1326.4" y="930"/>
      <point x="1326.4" y="930" type="curve"/>
      <point x="1326.4" y="470" type="line"/>
      <point x="1326.4" y="470"/>
      <point x="1326.4" y="470"/>
      <point x="1326.4" y="470" type="curve"/>
      <point x="730.4" y="470" type="line"/>
      <point x="730.4" y="470"/>
      <point x="730.4" y="470"/>
      <point x="730.4" y="470" type="curve"/>
    </contour>
    <contour>
      <point x="1028" y="1564" type="move" name="top"/>
    </contour>
    <contour>
      <point x="1028" y="-164" type="move" name="bottom"/>
    </contour>
  </outline>
</glyph>
<glyph name="P" format="1">
  <advance width="1902.4"/>
  <unicode hex="0050"/>
  <outline>
    <contour>
      <point x="180" y="0" type="line"/>
      <point x="752" y="0" type="line"/>
      <point x="752" y="360" type="line"/>
      <point x="1330" y="360" type="line" smooth="yes"/>
      <point x="1582" y="360"/>
      <point x="1744" y="398"/>
      <point x="1744" y="666" type="curve" smooth="yes"/>
      <point x="1744" y="1066" type="line" smooth="yes"/>
      <point x="1744" y="1334"/>
      <point x="1582" y="1400"/>
      <point x="1330" y="1400" type="curve" smooth="yes"/>
      <point x="180" y="1400" type="line"/>
    </contour>
    <contour>
      <point x="752" y="800" type="line"/>
      <point x="752" y="960" type="line"/>
      <point x="1104" y="960" type="line" smooth="yes"/>
      <point x="1148" y="960"/>
      <point x="1172" y="936"/>
      <point x="1172" y="900" type="curve" smooth="yes"/>
      <point x="1172" y="860" type="line" smooth="yes"/>
      <point x="1172" y="824"/>
      <point x="1148" y="800"/>
      <point x="1104" y="800" type="curve" smooth="yes"/>
    </contour>
  </outline>
</glyph>
<glyph name="Q" format="1">
  <advance width="2056.8"/>
  <unicode hex="0051"/>
  <outline>
    <component base="O"/>
    <contour>
      <point x="1152" y="-282" type="line"/>
      <point x="1614" y="-282" type="line"/>
      <point x="1188" y="669" type="line"/>
      <point x="857" y="530" type="line"/>
    </contour>
    <contour>
      <point x="1029" y="1564" type="move" name="top"/>
    </contour>
    <contour>
      <point x="1029" y="-442" type="move" name="bottom"/>
    </contour>
  </outline>
</glyph>
<glyph name="R" format="1">
  <advance width="1945"/>
  <unicode hex="0052"/>
  <outline>
    <contour>
      <point x="456" y="400" type="line"/>
      <point x="1021" y="400" type="line"/>
      <point x="1021" y="448" type="line"/>
      <point x="1310" y="448" type="line" smooth="yes"/>
      <point x="1562" y="448"/>
      <point x="1724" y="514"/>
      <point x="1724" y="782" type="curve" smooth="yes"/>
      <point x="1724" y="1066" type="line" smooth="yes"/>
      <point x="1724" y="1334"/>
      <point x="1562" y="1400"/>
      <point x="1310" y="1400" type="curve" smooth="yes"/>
      <point x="456" y="1400" type="line"/>
      <point x="456" y="960" type="line"/>
      <point x="1094" y="960" type="line" smooth="yes"/>
      <point x="1138" y="960"/>
      <point x="1162" y="936"/>
      <point x="1162" y="900" type="curve" smooth="yes"/>
      <point x="1162" y="880" type="line" smooth="yes"/>
      <point x="1162" y="844"/>
      <point x="1138" y="820"/>
      <point x="1094" y="820" type="curve" smooth="yes"/>
      <point x="456" y="820" type="line"/>
    </contour>
    <contour>
      <point x="180" y="0" type="line"/>
      <point x="752" y="0" type="line"/>
      <point x="752" y="1400" type="line"/>
      <point x="456" y="1400" type="line"/>
      <point x="180" y="1400" type="line"/>
    </contour>
    <contour>
      <point x="1167" y="0" type="line"/>
      <point x="1850" y="0" type="line"/>
      <point x="1399" y="538" type="line"/>
      <point x="751" y="538" type="line"/>
    </contour>
    <contour>
      <point x="953" y="-150" type="move" name="bottom"/>
    </contour>
    <contour>
      <point x="923" y="1554" type="move" name="top"/>
    </contour>
  </outline>
</glyph>
<glyph name="T" format="2">
  <advance width="1624"/>
  <unicode hex="0054"/>
  <anchor x="812" y="1550" name="top"/>
  <anchor x="812" y="-150" name="bottom"/>
  <outline>
    <contour>
      <point x="526" y="0" type="line"/>
      <point x="1098" y="0" type="line"/>
      <point x="1098" y="916" type="line"/>
      <point x="1574" y="916" type="line"/>
      <point x="1574" y="1400" type="line"/>
      <point x="50" y="1400" type="line"/>
      <point x="50" y="916" type="line"/>
      <point x="526" y="916" type="line"/>
    </contour>
  </outline>
</glyph>
<glyph name="U" format="1">
  <advance width="1932.4"/>
  <unicode hex="0055"/>
  <outline>
    <contour>
      <point x="169.2" y="1400" type="line"/>
      <point x="741.2" y="1400" type="line"/>
      <point x="741.2" y="474" type="line"/>
      <point x="741.2" y="474"/>
      <point x="741.2" y="474"/>
      <point x="741.2" y="474" type="curve"/>
      <point x="1191.2" y="474" type="line"/>
      <point x="1191.2" y="474"/>
      <point x="1191.2" y="474"/>
      <point x="1191.2" y="474" type="curve"/>
      <point x="1191.2" y="1400" type="line"/>
      <point x="1763.2" y="1400" type="line"/>
      <point x="1763.2" y="333" type="line"/>
      <point x="1763.2" y="50"/>
      <point x="1608.2" y="-10"/>
      <point x="1351.2" y="-10" type="curve" smooth="yes"/>
      <point x="579.2" y="-10" type="line" smooth="yes"/>
      <point x="325.2" y="-10"/>
      <point x="169.2" y="50"/>
      <point x="169.2" y="333" type="curve"/>
    </contour>
    <contour>
      <point x="966" y="1550" type="move" name="top"/>
    </contour>
    <contour>
      <point x="966" y="-150" type="move" name="bottom"/>
    </contour>
  </outline>
</glyph>
<glyph name="V" format="1">
  <advance width="1928"/>
  <unicode hex="0056"/>
  <outline>
    <contour>
      <point x="702" y="0" type="line"/>
      <point x="0" y="1400" type="line"/>
      <point x="648" y="1400" type="line"/>
      <point x="1158" y="194" type="line"/>
      <point x="1158" y="0" type="line"/>
    </contour>
    <contour>
      <point x="810" y="0" type="line"/>
      <point x="722.957" y="130" type="line"/>
      <point x="1338" y="1400" type="line"/>
      <point x="1928" y="1400" type="line"/>
      <point x="1250" y="0" type="line"/>
    </contour>
    <contour>
      <point x="964" y="1550" type="move" name="top"/>
    </contour>
    <contour>
      <point x="964" y="-150" type="move" name="bottom"/>
    </contour>
  </outline>
</glyph>
<glyph name="W" format="2">
  <advance width="2450"/>
  <unicode hex="0057"/>
  <anchor x="1225" y="-150" name="bottom"/>
  <anchor x="1225" y="1550" name="top"/>
  <outline>
    <contour>
      <point x="0" y="1400" type="line"/>
      <point x="486" y="0" type="line"/>
      <point x="1037" y="0" type="line"/>
      <point x="1224" y="659" type="line"/>
      <point x="1410" y="0" type="line"/>
      <point x="1964" y="0" type="line"/>
      <point x="2450" y="1400" type="line"/>
      <point x="1852" y="1400" type="line"/>
      <point x="1656" y="707" type="line"/>
      <point x="1470" y="1400" type="line"/>
      <point x="993" y="1400" type="line"/>
      <point x="807" y="707" type="line"/>
      <point x="611" y="1400" type="line"/>
    </contour>
  </outline>
</glyph>
<glyph name="X" format="1">
  <advance width="1856"/>
  <unicode hex="0058"/>
  <outline>
    <contour>
      <point x="1204" y="816" type="line"/>
      <point x="974" y="975" type="line"/>
      <point x="641" y="1400" type="line"/>
      <point x="0" y="1400" type="line"/>
      <point x="592" y="678" type="line"/>
      <point x="812" y="525" type="line"/>
      <point x="1221" y="0" type="line"/>
      <point x="1856" y="0" type="line"/>
    </contour>
    <contour>
      <point x="606" y="766" type="line"/>
      <point x="0" y="0" type="line"/>
      <point x="577" y="0" type="line"/>
      <point x="1064.33" y="616" type="line"/>
      <point x="1215" y="678" type="line"/>
      <point x="1771" y="1400" type="line"/>
      <point x="1196" y="1400" type="line"/>
      <point x="770.914" y="848" type="line"/>
    </contour>
    <contour>
      <point x="928" y="1550" type="move" name="top"/>
    </contour>
    <contour>
      <point x="928" y="-150" type="move" name="bottom"/>
    </contour>
  </outline>
</glyph>
<glyph name="Y" format="1">
  <advance width="1905"/>
  <unicode hex="0059"/>
  <outline>
    <contour>
      <point x="971" y="243" type="line"/>
      <point x="995" y="273" type="line"/>
      <point x="1905" y="1400" type="line"/>
      <point x="1270" y="1400" type="line"/>
      <point x="981" y="988" type="line"/>
      <point x="692" y="1400" type="line"/>
      <point x="0" y="1400" type="line"/>
    </contour>
    <contour>
      <point x="680" y="0" type="line"/>
      <point x="1252" y="0" type="line"/>
      <point x="1252" y="676" type="line"/>
      <point x="967" y="663" type="line"/>
      <point x="680" y="650" type="line"/>
    </contour>
    <contour>
      <point x="953" y="1550" type="move" name="top"/>
    </contour>
    <contour>
      <point x="953" y="-150" type="move" name="bottom"/>
    </contour>
  </outline>
</glyph>
<glyph name="Z" format="1">
  <advance width="1586.86"/>
  <unicode hex="005A"/>
  <outline>
    <contour>
      <point x="51.4286" y="172" type="line"/>
      <point x="678.429" y="172" type="line"/>
      <point x="1523.43" y="1228" type="line"/>
      <point x="896.429" y="1228" type="line"/>
    </contour>
    <contour>
      <point x="51.4286" y="0" type="line"/>
      <point x="1535.43" y="0" type="line"/>
      <point x="1535.43" y="464" type="line"/>
      <point x="524.429" y="464" type="line"/>
      <point x="51.4286" y="172" type="line"/>
    </contour>
    <contour>
      <point x="145.429" y="936" type="line"/>
      <point x="1060.43" y="936" type="line"/>
      <point x="1523.43" y="1228" type="line"/>
      <point x="1523.43" y="1400" type="line"/>
      <point x="145.429" y="1400" type="line"/>
    </contour>
    <contour>
      <point x="642.286" y="1550" type="move" name="top"/>
    </contour>
    <contour>
      <point x="642.286" y="-150" type="move" name="bottom"/>
    </contour>
  </outline>
</glyph>
<glyph name="asciicircum" format="1">
  <advance width="1007.2"/>
  <unicode hex="005E"/>
  <outline>
    <contour>
      <point x="-129" y="850" type="line"/>
      <point x="247" y="1400" type="line"/>
      <point x="619" y="1400" type="line"/>
      <point x="995" y="850" type="line"/>
      <point x="570" y="850" type="line"/>
      <point x="429" y="1175" type="line"/>
      <point x="288" y="850" type="line"/>
    </contour>
  </outline>
</glyph>
<glyph name="a" format="1">
  <advance width="1572.56" height="1448"/>
  <unicode hex="0061"/>
  <outline>
    <contour>
      <point x="428.56" y="-10" type="line" smooth="yes"/>
      <point x="264.56" y="-10"/>
      <point x="132.56" y="46"/>
      <point x="132.56" y="244" type="curve" smooth="yes"/>
      <point x="132.56" y="362" type="line" smooth="yes"/>
      <point x="132.56" y="556"/>
      <point x="264.56" y="606"/>
      <point x="428.56" y="606" type="curve" smooth="yes"/>
      <point x="928.56" y="606" type="line"/>
      <point x="928.56" y="712" type="line"/>
      <point x="928.56" y="712"/>
      <point x="928.56" y="712"/>
      <point x="928.56" y="712" type="curve"/>
      <point x="650.56" y="712" type="line"/>
      <point x="650.56" y="712"/>
      <point x="650.56" y="712"/>
      <point x="650.56" y="712" type="curve"/>
      <point x="650.56" y="662" type="line"/>
      <point x="166.56" y="750" type="line"/>
      <point x="166.56" y="774" type="line" smooth="yes"/>
      <point x="166.56" y="972"/>
      <point x="286.56" y="1034"/>
      <point x="462.56" y="1034" type="curve" smooth="yes"/>
      <point x="1136.56" y="1034" type="line" smooth="yes"/>
      <point x="1312.56" y="1034"/>
      <point x="1432.56" y="982"/>
      <point x="1432.56" y="758" type="curve" smooth="yes"/>
      <point x="1432.56" y="0" type="line"/>
      <point x="928.56" y="0" type="line"/>
      <point x="928.56" y="150" type="line"/>
      <point x="894.56" y="28"/>
      <point x="786.56" y="-10"/>
      <point x="646.56" y="-10" type="curve" smooth="yes"/>
    </contour>
    <contour>
      <point x="636.56" y="262" type="line"/>
      <point x="636.56" y="262"/>
      <point x="636.56" y="262"/>
      <point x="636.56" y="262" type="curve"/>
      <point x="928.56" y="262" type="line"/>
      <point x="928.56" y="370" type="line"/>
      <point x="636.56" y="370" type="line"/>
      <point x="636.56" y="370"/>
      <point x="636.56" y="370"/>
      <point x="636.56" y="370" type="curve"/>
    </contour>
    <contour>
      <point x="802" y="1174" type="move" name="top"/>
    </contour>
    <contour>
      <point x="782" y="-150" type="move" name="bottom"/>
    </contour>
  </outline>
</glyph>
<glyph name="b" format="1">
  <advance width="1613" height="-1448"/>
  <unicode hex="0062"/>
  <outline>
    <contour>
      <point x="130" y="0" type="line"/>
      <point x="654" y="0" type="line"/>
      <point x="654" y="102" type="line"/>
      <point x="696" y="26"/>
      <point x="786" y="-10"/>
      <point x="928" y="-10" type="curve" smooth="yes"/>
      <point x="1192" y="-10" type="line" smooth="yes"/>
      <point x="1406" y="-10"/>
      <point x="1498" y="70"/>
      <point x="1498" y="254" type="curve" smooth="yes"/>
      <point x="1498" y="780" type="line" smooth="yes"/>
      <point x="1498" y="954"/>
      <point x="1404" y="1034"/>
      <point x="1192" y="1034" type="curve" smooth="yes"/>
      <point x="928" y="1034" type="line" smooth="yes"/>
      <point x="786" y="1034"/>
      <point x="698" y="998"/>
      <point x="654" y="922" type="curve"/>
      <point x="654" y="1472" type="line"/>
      <point x="130" y="1472" type="line"/>
    </contour>
    <contour>
      <point x="654" y="372" type="line"/>
      <point x="654" y="652" type="line"/>
      <point x="974" y="652" type="line"/>
      <point x="974" y="652"/>
      <point x="974" y="652"/>
      <point x="974" y="652" type="curve"/>
      <point x="974" y="372" type="line"/>
      <point x="974" y="372"/>
      <point x="974" y="372"/>
      <point x="974" y="372" type="curve"/>
    </contour>
    <contour>
      <point x="788" y="1598" type="move" name="top"/>
    </contour>
    <contour>
      <point x="788" y="-150" type="move" name="bottom"/>
    </contour>
  </outline>
</glyph>
<glyph name="c" format="1">
  <advance width="1590.61"/>
  <unicode hex="0063"/>
  <outline>
    <contour>
      <point x="142.56" y="260" type="curve"/>
      <point x="142.56" y="774" type="line"/>
      <point x="142.56" y="960"/>
      <point x="236.56" y="1034"/>
      <point x="468.56" y="1034" type="curve"/>
      <point x="1150.56" y="1034" type="line"/>
      <point x="1382.56" y="1034"/>
      <point x="1472.56" y="962"/>
      <point x="1472.56" y="778" type="curve"/>
      <point x="1472.56" y="660" type="line"/>
      <point x="948.56" y="562" type="line"/>
      <point x="948.56" y="652" type="line"/>
      <point x="948.56" y="652"/>
      <point x="948.56" y="652"/>
      <point x="948.56" y="652" type="curve"/>
      <point x="666.56" y="652" type="line"/>
      <point x="666.56" y="652"/>
      <point x="666.56" y="652"/>
      <point x="666.56" y="652" type="curve"/>
      <point x="666.56" y="372" type="line"/>
      <point x="666.56" y="372"/>
      <point x="666.56" y="372"/>
      <point x="666.56" y="372" type="curve"/>
      <point x="952.56" y="372" type="line"/>
      <point x="952.56" y="372"/>
      <point x="952.56" y="372"/>
      <point x="952.56" y="372" type="curve"/>
      <point x="952.56" y="464" type="line"/>
      <point x="1476.56" y="356" type="line"/>
      <point x="1476.56" y="260" type="line"/>
      <point x="1476.56" y="66"/>
      <point x="1388.56" y="-10"/>
      <point x="1152.56" y="-10" type="curve"/>
      <point x="466.56" y="-10" type="line"/>
      <point x="230.56" y="-10"/>
      <point x="142.56" y="66"/>
    </contour>
    <contour>
      <point x="810" y="1174" type="move" name="top"/>
    </contour>
    <contour>
      <point x="810" y="-150" type="move" name="bottom"/>
    </contour>
  </outline>
</glyph>
<glyph name="d" format="1">
  <advance width="1613" height="1448"/>
  <unicode hex="0064"/>
  <outline>
    <contour>
      <point x="115" y="254" type="curve" smooth="yes"/>
      <point x="115" y="780" type="line" smooth="yes"/>
      <point x="115" y="954"/>
      <point x="209" y="1034"/>
      <point x="421" y="1034" type="curve" smooth="yes"/>
      <point x="685" y="1034" type="line" smooth="yes"/>
      <point x="827" y="1034"/>
      <point x="915" y="998"/>
      <point x="959" y="922" type="curve"/>
      <point x="959" y="1472" type="line"/>
      <point x="1483" y="1472" type="line"/>
      <point x="1483" y="0" type="line"/>
      <point x="959" y="0" type="line"/>
      <point x="959" y="102" type="line"/>
      <point x="917" y="26"/>
      <point x="827" y="-10"/>
      <point x="685" y="-10" type="curve" smooth="yes"/>
      <point x="421" y="-10" type="line" smooth="yes"/>
      <point x="207" y="-10"/>
      <point x="115" y="70"/>
    </contour>
    <contour>
      <point x="959" y="652" type="line"/>
      <point x="639" y="652" type="line"/>
      <point x="639" y="652"/>
      <point x="639" y="652"/>
      <point x="639" y="652" type="curve"/>
      <point x="639" y="372" type="line"/>
      <point x="639" y="372"/>
      <point x="639" y="372"/>
      <point x="639" y="372" type="curve"/>
      <point x="959" y="372" type="line"/>
    </contour>
    <contour>
      <point x="824" y="1598" type="move" name="top"/>
    </contour>
    <contour>
      <point x="824" y="-150" type="move" name="bottom"/>
    </contour>
  </outline>
</glyph>
<glyph name="e" format="1">
  <advance width="1617.12" height="1448"/>
  <unicode hex="0065"/>
  <outline>
    <contour>
      <point x="142.56" y="300" type="curve" smooth="yes"/>
      <point x="142.56" y="734" type="line" smooth="yes"/>
      <point x="142.56" y="942"/>
      <point x="254.56" y="1034"/>
      <point x="540.56" y="1034" type="curve" smooth="yes"/>
      <point x="1056.56" y="1034" type="line" smooth="yes"/>
      <point x="1344.56" y="1034"/>
      <point x="1474.56" y="944"/>
      <point x="1474.56" y="734" type="curve" smooth="yes"/>
      <point x="1474.56" y="404" type="line"/>
      <point x="666.56" y="404" type="line"/>
      <point x="666.56" y="292" type="line"/>
      <point x="666.56" y="292"/>
      <point x="666.56" y="292"/>
      <point x="666.56" y="292" type="curve"/>
      <point x="950.56" y="292" type="line"/>
      <point x="950.56" y="292"/>
      <point x="950.56" y="292"/>
      <point x="950.56" y="292" type="curve"/>
      <point x="950.56" y="368" type="line"/>
      <point x="1474.56" y="280" type="line"/>
      <point x="1474.56" y="266" type="line"/>
      <point x="1474.56" y="66"/>
      <point x="1344.56" y="-10"/>
      <point x="1056.56" y="-10" type="curve" smooth="yes"/>
      <point x="540.56" y="-10" type="line" smooth="yes"/>
      <point x="252.56" y="-10"/>
      <point x="142.56" y="84"/>
    </contour>
    <contour>
      <point x="666.56" y="628" type="line"/>
      <point x="950.56" y="628" type="line"/>
      <point x="950.56" y="732" type="line"/>
      <point x="950.56" y="732"/>
      <point x="950.56" y="732"/>
      <point x="950.56" y="732" type="curve"/>
      <point x="666.56" y="732" type="line"/>
      <point x="666.56" y="732"/>
      <point x="666.56" y="732"/>
      <point x="666.56" y="732" type="curve"/>
    </contour>
    <contour>
      <point x="808" y="1174" type="move" name="top"/>
    </contour>
    <contour>
      <point x="808" y="-150" type="move" name="bottom"/>
    </contour>
  </outline>
</glyph>
<glyph name="f" format="1">
  <advance width="943.6"/>
  <unicode hex="0066"/>
  <outline>
    <contour>
      <point x="169.6" y="0" type="line"/>
      <point x="169.6" y="1176" type="line"/>
      <point x="169.6" y="1384"/>
      <point x="277.6" y="1472"/>
      <point x="483.6" y="1472" type="curve"/>
      <point x="973.6" y="1472" type="line"/>
      <point x="913.6" y="1170" type="line"/>
      <point x="693.6" y="1170" type="line"/>
      <point x="693.6" y="1170"/>
      <point x="693.6" y="1170"/>
      <point x="693.6" y="1170" type="curve"/>
      <point x="693.6" y="0" type="line"/>
    </contour>
    <contour>
      <point x="57.6" y="722" type="line"/>
      <point x="57.6" y="1024" type="line"/>
      <point x="913.6" y="1024" type="line"/>
      <point x="913.6" y="722" type="line"/>
    </contour>
  </outline>
</glyph>
<glyph name="g" format="1">
  <advance width="1654.56" height="1448"/>
  <unicode hex="0067"/>
  <outline>
    <contour>
      <point x="666.56" y="422" type="curve"/>
      <point x="666.56" y="642" type="line"/>
      <point x="666.56" y="642"/>
      <point x="666.56" y="642"/>
      <point x="666.56" y="642" type="curve"/>
      <point x="986.56" y="642" type="line"/>
      <point x="986.56" y="422" type="line"/>
      <point x="666.56" y="422" type="line"/>
      <point x="666.56" y="422"/>
      <point x="666.56" y="422"/>
    </contour>
    <contour>
      <point x="228.56" y="-428" type="line"/>
      <point x="1250.56" y="-428" type="line" smooth="yes"/>
      <point x="1446.15" y="-428"/>
      <point x="1510.56" y="-313.988"/>
      <point x="1510.56" y="-100.126" type="curve" smooth="yes"/>
      <point x="1510.56" y="1024" type="line"/>
      <point x="986.56" y="1024" type="line"/>
      <point x="986.56" y="912" type="line"/>
      <point x="942.56" y="988"/>
      <point x="854.56" y="1024"/>
      <point x="712.56" y="1024" type="curve" smooth="yes"/>
      <point x="448.56" y="1024" type="line" smooth="yes"/>
      <point x="236.56" y="1024"/>
      <point x="142.56" y="944"/>
      <point x="142.56" y="770" type="curve" smooth="yes"/>
      <point x="142.56" y="304" type="line" smooth="yes"/>
      <point x="142.56" y="120"/>
      <point x="234.56" y="40"/>
      <point x="448.56" y="40" type="curve" smooth="yes"/>
      <point x="712.56" y="40" type="line" smooth="yes"/>
      <point x="854.56" y="40"/>
      <point x="944.56" y="76"/>
      <point x="986.56" y="152" type="curve"/>
      <point x="986.56" y="-78" type="line"/>
      <point x="986.56" y="-78"/>
      <point x="986.56" y="-78"/>
      <point x="986.56" y="-78" type="curve"/>
      <point x="156.56" y="-78" type="line"/>
    </contour>
    <contour>
      <point x="828" y="1174" type="move" name="top"/>
    </contour>
    <contour>
      <point x="828" y="-578" type="move" name="bottom"/>
    </contour>
  </outline>
</glyph>
<glyph name="h" format="1">
  <advance width="1546" height="1448"/>
  <unicode hex="0068"/>
  <outline>
    <contour>
      <point x="144" y="0" type="line"/>
      <point x="144" y="1472" type="line"/>
      <point x="668" y="1472" type="line"/>
      <point x="668" y="930" type="line"/>
      <point x="710" y="1002"/>
      <point x="798" y="1034"/>
      <point x="954" y="1034" type="curve" smooth="yes"/>
      <point x="1042" y="1034" type="line" smooth="yes"/>
      <point x="1298" y="1034"/>
      <point x="1410" y="942"/>
      <point x="1410" y="734" type="curve" smooth="yes"/>
      <point x="1410" y="0" type="line"/>
      <point x="886" y="0" type="line"/>
      <point x="886" y="602" type="line"/>
      <point x="886" y="602"/>
      <point x="886" y="602"/>
      <point x="886" y="602" type="curve"/>
      <point x="668" y="602" type="line"/>
      <point x="668" y="0" type="line"/>
    </contour>
    <contour>
      <point x="406" y="1622" type="move" name="top"/>
    </contour>
    <contour>
      <point x="778" y="-150" type="move" name="bottom"/>
    </contour>
    <contour>
      <point x="44" y="518" type="move" name="left"/>
    </contour>
  </outline>
</glyph>
<glyph name="k" format="1">
  <advance width="1859" height="1448"/>
  <unicode hex="006B"/>
  <outline>
    <contour>
      <point x="130" y="0" type="line"/>
      <point x="654" y="0" type="line"/>
      <point x="654" y="1472" type="line"/>
      <point x="130" y="1472" type="line"/>
    </contour>
    <contour>
      <point x="1042" y="0" type="line"/>
      <point x="1852" y="0" type="line"/>
      <point x="1064" y="726" type="line"/>
      <point x="564" y="500" type="line"/>
    </contour>
    <contour>
      <point x="558" y="520" type="line"/>
      <point x="1174" y="520" type="line"/>
      <point x="1692" y="1024" type="line"/>
      <point x="1076" y="1024" type="line"/>
    </contour>
    <contour>
      <point x="392" y="1598" type="move" name="top"/>
    </contour>
    <contour>
      <point x="812" y="-150" type="move" name="bottom"/>
    </contour>
  </outline>
</glyph>
<glyph name="l" format="1">
  <advance width="812" height="1448"/>
  <unicode hex="006C"/>
  <outline>
    <contour>
      <point x="144" y="0" type="line"/>
      <point x="668" y="0" type="line"/>
      <point x="668" y="1472" type="line"/>
      <point x="144" y="1472" type="line"/>
    </contour>
    <contour>
      <point x="406" y="1598" type="move" name="top"/>
    </contour>
    <contour>
      <point x="406" y="-150" type="move" name="bottom"/>
    </contour>
  </outline>
</glyph>
<glyph name="m" format="1">
  <advance width="2172" height="1448"/>
  <unicode hex="006D"/>
  <outline>
    <contour>
      <point x="144" y="0" type="line"/>
      <point x="144" y="1024" type="line"/>
      <point x="668" y="1024" type="line"/>
      <point x="668" y="930" type="line"/>
      <point x="710" y="1002"/>
      <point x="798" y="1034"/>
      <point x="954" y="1034" type="curve" smooth="yes"/>
      <point x="982" y="1034" type="line" smooth="yes"/>
      <point x="1123" y="1034"/>
      <point x="1285" y="1009"/>
      <point x="1334" y="853" type="curve"/>
      <point x="1350" y="734" type="line" smooth="yes"/>
      <point x="1350" y="0" type="line"/>
      <point x="826" y="0" type="line"/>
      <point x="826" y="602" type="line"/>
      <point x="668" y="602" type="line"/>
      <point x="668" y="0" type="line"/>
    </contour>
    <contour>
      <point x="1319" y="791" type="line"/>
      <point x="1319" y="961"/>
      <point x="1402" y="1034"/>
      <point x="1636" y="1034" type="curve" smooth="yes"/>
      <point x="1664" y="1034" type="line" smooth="yes"/>
      <point x="1920" y="1034"/>
      <point x="2032" y="942"/>
      <point x="2032" y="734" type="curve" smooth="yes"/>
      <point x="2032" y="0" type="line"/>
      <point x="1508" y="0" type="line"/>
      <point x="1508" y="602" type="line"/>
      <point x="1320" y="602" type="line"/>
      <point x="1320" y="602"/>
      <point x="1320" y="602"/>
      <point x="1320" y="602" type="curve"/>
    </contour>
    <contour>
      <point x="1086" y="1184" type="move" name="top"/>
    </contour>
    <contour>
      <point x="1086" y="-150" type="move" name="bottom"/>
    </contour>
    <contour>
      <point x="44" y="518" type="move" name="left"/>
    </contour>
  </outline>
</glyph>
<glyph name="n" format="1">
  <advance width="1522" height="1448"/>
  <unicode hex="006E"/>
  <outline>
    <contour>
      <point x="130" y="0" type="line"/>
      <point x="130" y="1024" type="line"/>
      <point x="654" y="1024" type="line"/>
      <point x="654" y="930" type="line"/>
      <point x="696" y="1002"/>
      <point x="784" y="1034"/>
      <point x="940" y="1034" type="curve" smooth="yes"/>
      <point x="1028" y="1034" type="line" smooth="yes"/>
      <point x="1284" y="1034"/>
      <point x="1396" y="942"/>
      <point x="1396" y="734" type="curve" smooth="yes"/>
      <point x="1396" y="0" type="line"/>
      <point x="872" y="0" type="line"/>
      <point x="872" y="602" type="line"/>
      <point x="872" y="602"/>
      <point x="872" y="602"/>
      <point x="872" y="602" type="curve"/>
      <point x="654" y="602" type="line"/>
      <point x="654" y="0" type="line"/>
    </contour>
    <contour>
      <point x="764" y="1184" type="move" name="top"/>
    </contour>
    <contour>
      <point x="764" y="-150" type="move" name="bottom"/>
    </contour>
    <contour>
      <point x="30" y="518" type="move" name="left"/>
    </contour>
  </outline>
</glyph>
<glyph name="o" format="1">
  <advance width="1570" height="1448"/>
  <unicode hex="006F"/>
  <outline>
    <contour>
      <point x="115" y="254" type="curve" smooth="yes"/>
      <point x="115" y="780" type="line" smooth="yes"/>
      <point x="115" y="954"/>
      <point x="209" y="1034"/>
      <point x="421" y="1034" type="curve" smooth="yes"/>
      <point x="1149" y="1034" type="line" smooth="yes"/>
      <point x="1361" y="1034"/>
      <point x="1455" y="954"/>
      <point x="1455" y="780" type="curve" smooth="yes"/>
      <point x="1455" y="254" type="line" smooth="yes"/>
      <point x="1455" y="70"/>
      <point x="1365" y="-10"/>
      <point x="1149" y="-10" type="curve" smooth="yes"/>
      <point x="421" y="-10" type="line" smooth="yes"/>
      <point x="207" y="-10"/>
      <point x="115" y="70"/>
    </contour>
    <contour>
      <point x="639" y="372" type="line"/>
      <point x="639" y="372"/>
      <point x="639" y="372"/>
      <point x="639" y="372" type="curve"/>
      <point x="931" y="372" type="line"/>
      <point x="931" y="372"/>
      <point x="931" y="372"/>
      <point x="931" y="372" type="curve"/>
      <point x="931" y="652" type="line"/>
      <point x="931" y="652"/>
      <point x="931" y="652"/>
      <point x="931" y="652" type="curve"/>
      <point x="639" y="652" type="line"/>
      <point x="639" y="652"/>
      <point x="639" y="652"/>
      <point x="639" y="652" type="curve"/>
    </contour>
    <contour>
      <point x="784" y="1174" type="move" name="top"/>
    </contour>
    <contour>
      <point x="784" y="-150" type="move" name="bottom"/>
    </contour>
  </outline>
</glyph>
<glyph name="p" format="1">
  <advance width="1654.56" height="1448"/>
  <unicode hex="0070"/>
  <outline>
    <contour>
      <point x="144" y="-428" type="line"/>
      <point x="144" y="1024" type="line"/>
      <point x="668" y="1024" type="line"/>
      <point x="668" y="922" type="line"/>
      <point x="710" y="998"/>
      <point x="800" y="1034"/>
      <point x="942" y="1034" type="curve" smooth="yes"/>
      <point x="1206" y="1034" type="line" smooth="yes"/>
      <point x="1420" y="1034"/>
      <point x="1512" y="954"/>
      <point x="1512" y="770" type="curve" smooth="yes"/>
      <point x="1512" y="244" type="line" smooth="yes"/>
      <point x="1512" y="70"/>
      <point x="1418" y="-10"/>
      <point x="1206" y="-10" type="curve" smooth="yes"/>
      <point x="942" y="-10" type="line" smooth="yes"/>
      <point x="800" y="-10"/>
      <point x="712" y="26"/>
      <point x="668" y="102" type="curve"/>
      <point x="668" y="-428" type="line"/>
    </contour>
    <contour>
      <point x="668" y="382" type="line"/>
      <point x="988" y="382" type="line"/>
      <point x="988" y="382"/>
      <point x="988" y="382"/>
      <point x="988" y="382" type="curve"/>
      <point x="988" y="642" type="line"/>
      <point x="988" y="642"/>
      <point x="988" y="642"/>
      <point x="988" y="642" type="curve"/>
      <point x="668" y="642" type="line"/>
    </contour>
    <contour>
      <point x="831" y="1598" type="move" name="top"/>
    </contour>
    <contour>
      <point x="827" y="-578" type="move" name="bottom"/>
    </contour>
  </outline>
</glyph>
<glyph name="q" format="2">
  <advance width="1613" height="1448"/>
  <unicode hex="0071"/>
  <anchor x="824" y="1598" name="top"/>
  <anchor x="824" y="-150" name="bottom"/>
  <outline>
    <contour>
      <point x="115" y="254" type="line"/>
      <point x="115" y="780" type="line" smooth="yes"/>
      <point x="115" y="845"/>
      <point x="151" y="941"/>
      <point x="226" y="1004"/>
      <point x="342" y="1034"/>
      <point x="421" y="1034" type="qcurve" smooth="yes"/>
      <point x="685" y="1034" type="line" smooth="yes"/>
      <point x="792" y="1034"/>
      <point x="926" y="979"/>
      <point x="959" y="922" type="qcurve"/>
      <point x="959" y="1024" type="line"/>
      <point x="1483" y="1024" type="line"/>
      <point x="1483" y="-428" type="line"/>
      <point x="959" y="-428" type="line"/>
      <point x="959" y="102" type="line"/>
      <point x="927" y="45"/>
      <point x="792" y="-10"/>
      <point x="685" y="-10" type="qcurve" smooth="yes"/>
      <point x="421" y="-10" type="line" smooth="yes"/>
      <point x="341" y="-10"/>
      <point x="225" y="21"/>
      <point x="150" y="85"/>
      <point x="115" y="185"/>
      <point x="115" y="254" type="qcurve"/>
    </contour>
    <contour>
      <point x="639" y="382" type="line"/>
      <point x="639" y="382"/>
      <point x="639" y="382"/>
      <point x="639" y="382" type="qcurve"/>
      <point x="959" y="382" type="line"/>
      <point x="959" y="652" type="line"/>
      <point x="639" y="652" type="line"/>
      <point x="639" y="652"/>
      <point x="639" y="652"/>
      <point x="639" y="652" type="qcurve"/>
    </contour>
  </outline>
  <guideline y="988"/>
  <guideline y="42"/>
</glyph>
<glyph name="r" format="1">
  <advance width="1450.62" height="1448"/>
  <unicode hex="0072"/>
  <outline>
    <contour>
      <point x="144" y="0" type="line"/>
      <point x="144" y="1024" type="line"/>
      <point x="668" y="1024" type="line"/>
      <point x="668" y="930" type="line"/>
      <point x="710" y="1002"/>
      <point x="798" y="1034"/>
      <point x="954" y="1034" type="curve" smooth="yes"/>
      <point x="1022" y="1034" type="line" smooth="yes"/>
      <point x="1278" y="1034"/>
      <point x="1390" y="942"/>
      <point x="1390" y="734" type="curve" smooth="yes"/>
      <point x="1390" y="596" type="line"/>
      <point x="866" y="517" type="line"/>
      <point x="866" y="602" type="line"/>
      <point x="866" y="602"/>
      <point x="866" y="602"/>
      <point x="866" y="602" type="curve"/>
      <point x="668" y="602" type="line"/>
      <point x="668" y="0" type="line"/>
    </contour>
    <contour>
      <point x="767" y="1184" type="move" name="top"/>
    </contour>
    <contour>
      <point x="406" y="-150" type="move" name="bottom"/>
    </contour>
    <contour>
      <point x="44" y="517" type="move" name="left"/>
    </contour>
  </outline>
</glyph>
<glyph name="s" format="1">
  <advance width="1524"/>
  <unicode hex="0073"/>
  <outline>
    <contour>
      <point x="109" y="258" type="line"/>
      <point x="623" y="336" type="line"/>
      <point x="623" y="262" type="line"/>
      <point x="623" y="262"/>
      <point x="623" y="262"/>
      <point x="623" y="262" type="curve"/>
      <point x="887" y="262" type="line"/>
      <point x="887" y="262"/>
      <point x="887" y="262"/>
      <point x="887" y="262" type="curve"/>
      <point x="887" y="358" type="line"/>
      <point x="887" y="358"/>
      <point x="887" y="358"/>
      <point x="887" y="358" type="curve"/>
      <point x="397" y="358" type="line"/>
      <point x="225" y="358"/>
      <point x="121" y="426"/>
      <point x="121" y="616" type="curve"/>
      <point x="121" y="808" type="line"/>
      <point x="121" y="994"/>
      <point x="237" y="1034"/>
      <point x="403" y="1034" type="curve"/>
      <point x="1105" y="1034" type="line"/>
      <point x="1271" y="1034"/>
      <point x="1383" y="986"/>
      <point x="1383" y="802" type="curve"/>
      <point x="1383" y="772" type="line"/>
      <point x="869" y="694" type="line"/>
      <point x="869" y="762" type="line"/>
      <point x="869" y="762"/>
      <point x="869" y="762"/>
      <point x="869" y="762" type="curve"/>
      <point x="645" y="762" type="line"/>
      <point x="645" y="762"/>
      <point x="645" y="762"/>
      <point x="645" y="762" type="curve"/>
      <point x="645" y="676" type="line"/>
      <point x="645" y="676"/>
      <point x="645" y="676"/>
      <point x="645" y="676" type="curve"/>
      <point x="1133" y="676" type="line"/>
      <point x="1299" y="676"/>
      <point x="1411" y="642"/>
      <point x="1411" y="454" type="curve"/>
      <point x="1411" y="222" type="line"/>
      <point x="1411" y="30"/>
      <point x="1307" y="-10"/>
      <point x="1133" y="-10" type="curve"/>
      <point x="385" y="-10" type="line"/>
      <point x="213" y="-10"/>
      <point x="109" y="40"/>
      <point x="109" y="232" type="curve"/>
    </contour>
    <contour>
      <point x="765" y="1174" type="move" name="top"/>
    </contour>
    <contour>
      <point x="765" y="-150" type="move" name="bottom"/>
    </contour>
  </outline>
</glyph>
<glyph name="t" format="1">
  <advance width="1033"/>
  <unicode hex="0074"/>
  <outline>
    <contour>
      <point x="184" y="246" type="curve"/>
      <point x="184" y="1244" type="line"/>
      <point x="708" y="1244" type="line"/>
      <point x="708" y="292" type="line"/>
      <point x="708" y="292"/>
      <point x="708" y="292"/>
      <point x="708" y="292" type="curve"/>
      <point x="908" y="292" type="line"/>
      <point x="858" y="-10" type="line"/>
      <point x="490" y="-10" type="line"/>
      <point x="270" y="-10"/>
      <point x="184" y="62"/>
    </contour>
    <contour>
      <point x="52" y="722" type="line"/>
      <point x="52" y="1024" type="line"/>
      <point x="938" y="1024" type="line"/>
      <point x="938" y="722" type="line"/>
    </contour>
    <contour>
      <point x="496" y="1394" type="move" name="top"/>
    </contour>
    <contour>
      <point x="496" y="-160" type="move" name="bottom"/>
    </contour>
  </outline>
</glyph>
<glyph name="u" format="2">
  <advance width="1525"/>
  <unicode hex="0075"/>
  <anchor x="762.5" y="1174" name="top"/>
  <anchor x="762.5" y="-150" name="bottom"/>
  <anchor x="948.5" y="0" name="ogonek"/>
  <anchor x="1402.5" y="1024" name="horn"/>
  <outline>
    <contour>
      <point x="122.5" y="204" type="line"/>
      <point x="122.5" y="1024" type="line"/>
      <point x="646.5" y="1024" type="line"/>
      <point x="646.5" y="412" type="line"/>
      <point x="646.5" y="412"/>
      <point x="646.5" y="412"/>
      <point x="646.5" y="412" type="qcurve"/>
      <point x="878.5" y="412" type="line"/>
      <point x="878.5" y="412"/>
      <point x="878.5" y="412"/>
      <point x="878.5" y="412" type="qcurve"/>
      <point x="878.5" y="1024" type="line"/>
      <point x="1402.5" y="1024" type="line"/>
      <point x="1402.5" y="204" type="line" smooth="yes"/>
      <point x="1402.5" y="141"/>
      <point x="1368.5" y="62"/>
      <point x="1304.5" y="17"/>
      <point x="1213.5" y="0"/>
      <point x="1156.5" y="0" type="qcurve" smooth="yes"/>
      <point x="366.5" y="0" type="line" smooth="yes"/>
      <point x="309.5" y="0"/>
      <point x="219.5" y="17"/>
      <point x="156.5" y="62"/>
      <point x="122.5" y="141"/>
      <point x="122.5" y="204" type="qcurve"/>
    </contour>
  </outline>
</glyph>
<glyph name="v" format="1">
  <advance width="1575.4"/>
  <unicode hex="0076"/>
  <outline>
    <contour>
      <point x="521.2" y="0" type="line"/>
      <point x="7.2" y="1024" type="line"/>
      <point x="567.2" y="1024" type="line"/>
      <point x="875.2" y="278" type="line"/>
      <point x="875.2" y="0" type="line"/>
    </contour>
    <contour>
      <point x="667.2" y="0" type="line"/>
      <point x="667.2" y="172" type="line"/>
      <point x="1079.2" y="1024" type="line"/>
      <point x="1568.2" y="1024" type="line"/>
      <point x="1073.2" y="0" type="line"/>
    </contour>
    <contour>
      <point x="820.2" y="1174" type="move" name="top"/>
    </contour>
    <contour>
      <point x="791.2" y="-150" type="move" name="bottom"/>
    </contour>
  </outline>
</glyph>
<glyph name="w" format="1">
  <advance width="2225.4"/>
  <unicode hex="0077"/>
  <outline>
    <contour>
      <point x="467.2" y="0" type="line"/>
      <point x="7.2" y="1024" type="line"/>
      <point x="591.2" y="1024" type="line"/>
      <point x="872.2" y="172" type="line"/>
      <point x="872.2" y="0" type="line"/>
    </contour>
    <contour>
      <point x="648.2" y="0" type="line"/>
      <point x="648.2" y="172" type="line"/>
      <point x="929.2" y="1024" type="line"/>
      <point x="1211.2" y="1024" type="line"/>
      <point x="1211.2" y="798" type="line"/>
      <point x="938.2" y="0" type="line"/>
    </contour>
    <contour>
      <point x="1296.2" y="0" type="line"/>
      <point x="1023.2" y="798" type="line"/>
      <point x="1023.2" y="1024" type="line"/>
      <point x="1342.2" y="1024" type="line"/>
      <point x="1624.2" y="172" type="line"/>
      <point x="1623.2" y="0" type="line"/>
    </contour>
    <contour>
      <point x="1402.2" y="0" type="line"/>
      <point x="1402.2" y="172" type="line"/>
      <point x="1683.2" y="1024" type="line"/>
      <point x="2218.2" y="1024" type="line"/>
      <point x="1777.2" y="0" type="line"/>
    </contour>
    <contour>
      <point x="1222" y="1174" type="move" name="top"/>
    </contour>
    <contour>
      <point x="1115" y="-150" type="move" name="bottom"/>
    </contour>
  </outline>
</glyph>
<glyph name="x" format="1">
  <advance width="1595"/>
  <unicode hex="0078"/>
  <outline>
    <contour>
      <point x="930" y="0" type="line"/>
      <point x="1582" y="0" type="line"/>
      <point x="947" y="654" type="line"/>
      <point x="890" y="688" type="line"/>
      <point x="638" y="1024" type="line"/>
      <point x="13" y="1024" type="line"/>
      <point x="586" y="397" type="line"/>
      <point x="629" y="383" type="line"/>
    </contour>
    <contour>
      <point x="13" y="0" type="line"/>
      <point x="588" y="0" type="line"/>
      <point x="869" y="373" type="line"/>
      <point x="968" y="417" type="line"/>
      <point x="1506" y="1024" type="line"/>
      <point x="926" y="1024" type="line"/>
      <point x="670" y="683" type="line"/>
      <point x="558" y="625" type="line"/>
    </contour>
    <contour>
      <point x="798" y="1174" type="move" name="top"/>
    </contour>
    <contour>
      <point x="798" y="-150" type="move" name="bottom"/>
    </contour>
  </outline>
</glyph>
<glyph name="y" format="1">
  <advance width="1465"/>
  <unicode hex="0079"/>
  <outline>
    <contour>
      <point x="519" y="0" type="line"/>
      <point x="923" y="0" type="line"/>
      <point x="923" y="278" type="line"/>
      <point x="565" y="1024" type="line"/>
      <point x="5" y="1024" type="line"/>
    </contour>
    <contour>
      <point x="103" y="-428" type="line"/>
      <point x="360" y="-428" type="line"/>
      <point x="702" y="-428"/>
      <point x="810" y="-346"/>
      <point x="942" y="-68" type="curve"/>
      <point x="1465" y="1024" type="line"/>
      <point x="965" y="1024" type="line"/>
      <point x="623" y="297" type="line"/>
      <point x="608" y="265" type="line"/>
      <point x="446" y="-80" type="line"/>
      <point x="446" y="-80"/>
      <point x="446" y="-80"/>
      <point x="446" y="-80" type="curve"/>
      <point x="31" y="-80" type="line"/>
    </contour>
    <contour>
      <point x="735" y="1174" type="move" name="top"/>
    </contour>
    <contour>
      <point x="735" y="-578" type="move" name="bottom"/>
    </contour>
  </outline>
</glyph>
<glyph name="z" format="1">
  <advance width="1348.76"/>
  <unicode hex="007A"/>
  <outline>
    <contour>
      <point x="54.88" y="217" type="line"/>
      <point x="656.88" y="217" type="line"/>
      <point x="1267.88" y="807" type="line"/>
      <point x="665.88" y="807" type="line"/>
    </contour>
    <contour>
      <point x="54.88" y="0" type="line"/>
      <point x="1273.88" y="0" type="line"/>
      <point x="1273.88" y="382" type="line"/>
      <point x="460.88" y="382" type="line"/>
      <point x="54.88" y="217" type="line"/>
    </contour>
    <contour>
      <point x="115.88" y="642" type="line"/>
      <point x="861.88" y="642" type="line"/>
      <point x="1267.88" y="807" type="line"/>
      <point x="1267.88" y="1024" type="line"/>
      <point x="115.88" y="1024" type="line"/>
    </contour>
    <contour>
      <point x="664" y="1174" type="move" name="top"/>
    </contour>
    <contour>
      <point x="664" y="-150" type="move" name="bottom"/>
    </contour>
  </outline>
</glyph>
<glyph name="braceleft" format="1">
  <advance width="1088.77"/>
  <unicode hex="007B"/>
  <outline>
    <contour>
      <point x="306.343" y="18" type="curve" smooth="yes"/>
      <point x="306.343" y="257" type="line" smooth="yes"/>
      <point x="306.343" y="366"/>
      <point x="248.343" y="435"/>
      <point x="96.3429" y="435" type="curve"/>
      <point x="96.3429" y="759" type="line"/>
      <point x="248.343" y="759"/>
      <point x="306.343" y="829"/>
      <point x="306.343" y="937" type="curve" smooth="yes"/>
      <point x="306.343" y="1164" type="line" smooth="yes"/>
      <point x="306.343" y="1344"/>
      <point x="424.343" y="1448"/>
      <point x="604.343" y="1448" type="curve" smooth="yes"/>
      <point x="1037.34" y="1448" type="line"/>
      <point x="1037.34" y="1098" type="line"/>
      <point x="868.343" y="1098" type="line" smooth="yes"/>
      <point x="781.343" y="1098"/>
      <point x="746.343" y="1063"/>
      <point x="746.343" y="986" type="curve" smooth="yes"/>
      <point x="746.343" y="877" type="line" smooth="yes"/>
      <point x="746.343" y="729"/>
      <point x="674.343" y="633"/>
      <point x="546.343" y="597" type="curve"/>
      <point x="674.343" y="561"/>
      <point x="746.343" y="465"/>
      <point x="746.343" y="317" type="curve" smooth="yes"/>
      <point x="746.343" y="206" type="line" smooth="yes"/>
      <point x="746.343" y="129"/>
      <point x="781.343" y="94"/>
      <point x="868.343" y="94" type="curve" smooth="yes"/>
      <point x="1037.34" y="94" type="line"/>
      <point x="1037.34" y="-256" type="line"/>
      <point x="604.343" y="-256" type="line" smooth="yes"/>
      <point x="424.343" y="-256"/>
      <point x="306.343" y="-152"/>
    </contour>
  </outline>
</glyph>
<glyph name="cent" format="1">
  <advance width="1590.61"/>
  <unicode hex="00A2"/>
  <outline>
    <contour>
      <point x="769.56" y="-100" type="line"/>
      <point x="853.56" y="-100" type="line"/>
      <point x="853.56" y="1400" type="line"/>
      <point x="769.56" y="1400" type="line"/>
    </contour>
    <contour>
      <point x="952.56" y="614" type="line"/>
      <point x="952.56" y="522" type="line"/>
      <point x="952.56" y="522"/>
      <point x="952.56" y="522"/>
      <point x="952.56" y="522" type="curve"/>
      <point x="666.56" y="522" type="line"/>
      <point x="666.56" y="522"/>
      <point x="666.56" y="522"/>
      <point x="666.56" y="522" type="curve"/>
      <point x="666.56" y="802" type="line"/>
      <point x="666.56" y="802"/>
      <point x="666.56" y="802"/>
      <point x="666.56" y="802" type="curve"/>
      <point x="948.56" y="802" type="line"/>
      <point x="948.56" y="802"/>
      <point x="948.56" y="802"/>
      <point x="948.56" y="802" type="curve"/>
      <point x="948.56" y="712" type="line"/>
      <point x="1472.56" y="810" type="line"/>
      <point x="1472.56" y="928" type="line" smooth="yes"/>
      <point x="1472.56" y="1112"/>
      <point x="1382.56" y="1184"/>
      <point x="1150.56" y="1184" type="curve" smooth="yes"/>
      <point x="468.56" y="1184" type="line" smooth="yes"/>
      <point x="236.56" y="1184"/>
      <point x="142.56" y="1110"/>
      <point x="142.56" y="924" type="curve" smooth="yes"/>
      <point x="142.56" y="410" type="line" smooth="yes"/>
      <point x="142.56" y="216"/>
      <point x="230.56" y="140"/>
      <point x="466.56" y="140" type="curve" smooth="yes"/>
      <point x="1152.56" y="140" type="line" smooth="yes"/>
      <point x="1388.56" y="140"/>
      <point x="1476.56" y="216"/>
      <point x="1476.56" y="410" type="curve" smooth="yes"/>
      <point x="1476.56" y="506" type="line"/>
    </contour>
    <contour>
      <point x="810" y="1324" type="move" name="top"/>
    </contour>
    <contour>
      <point x="810" y="0" type="move" name="bottom"/>
    </contour>
  </outline>
</glyph>
<glyph name="sterling" format="1">
  <advance width="1847.15"/>
  <unicode hex="00A3"/>
  <outline>
    <contour>
      <point x="66.4286" y="0" type="line"/>
      <point x="472.429" y="0" type="line" smooth="yes"/>
      <point x="724.429" y="0"/>
      <point x="884.429" y="66"/>
      <point x="884.429" y="334" type="curve" smooth="yes"/>
      <point x="884.429" y="950" type="line" smooth="yes"/>
      <point x="884.429" y="1016"/>
      <point x="918.429" y="1050"/>
      <point x="984.429" y="1050" type="curve" smooth="yes"/>
      <point x="1032.43" y="1050" type="line" smooth="yes"/>
      <point x="1102.43" y="1050"/>
      <point x="1132.43" y="1020"/>
      <point x="1132.43" y="950" type="curve" smooth="yes"/>
      <point x="1132.43" y="880" type="line"/>
      <point x="1704.43" y="986" type="line"/>
      <point x="1704.43" y="1080" type="line" smooth="yes"/>
      <point x="1704.43" y="1348"/>
      <point x="1542.43" y="1414"/>
      <point x="1290.43" y="1414" type="curve" smooth="yes"/>
      <point x="724.429" y="1414" type="line" smooth="yes"/>
      <point x="472.429" y="1414"/>
      <point x="312.429" y="1348"/>
      <point x="312.429" y="1080" type="curve" smooth="yes"/>
      <point x="312.429" y="464" type="line" smooth="yes"/>
      <point x="312.429" y="394"/>
      <point x="282.429" y="364"/>
      <point x="212.429" y="364" type="curve" smooth="yes"/>
      <point x="66.4286" y="364" type="line"/>
    </contour>
    <contour>
      <point x="372.429" y="334" type="line"/>
      <point x="564.429" y="130"/>
      <point x="797.429" y="0"/>
      <point x="1020.43" y="0" type="curve" smooth="yes"/>
      <point x="1316.43" y="0" type="line" smooth="yes"/>
      <point x="1580.43" y="0"/>
      <point x="1730.43" y="70"/>
      <point x="1730.43" y="346" type="curve" smooth="yes"/>
      <point x="1730.43" y="468" type="line"/>
      <point x="1158.43" y="580" type="line"/>
      <point x="1158.43" y="464" type="line" smooth="yes"/>
      <point x="1158.43" y="394"/>
      <point x="1128.43" y="364"/>
      <point x="1058.43" y="364" type="curve" smooth="yes"/>
      <point x="1028.43" y="364" type="line" smooth="yes"/>
      <point x="879.429" y="364"/>
      <point x="717.429" y="439"/>
      <point x="597.429" y="559" type="curve"/>
    </contour>
    <contour>
      <point x="195.429" y="543" type="line"/>
      <point x="1041.43" y="543" type="line"/>
      <point x="1090.43" y="785" type="line"/>
      <point x="195.429" y="785" type="line"/>
    </contour>
  </outline>
</glyph>
<glyph name="currency" format="1">
  <advance width="1662" height="1448"/>
  <unicode hex="00A4"/>
  <outline>
    <contour>
      <point x="151" y="454" type="curve" smooth="yes"/>
      <point x="151" y="980" type="line" smooth="yes"/>
      <point x="151" y="1154"/>
      <point x="245" y="1234"/>
      <point x="457" y="1234" type="curve" smooth="yes"/>
      <point x="1205" y="1234" type="line" smooth="yes"/>
      <point x="1417" y="1234"/>
      <point x="1511" y="1154"/>
      <point x="1511" y="980" type="curve" smooth="yes"/>
      <point x="1511" y="454" type="line" smooth="yes"/>
      <point x="1511" y="270"/>
      <point x="1421" y="190"/>
      <point x="1205" y="190" type="curve" smooth="yes"/>
      <point x="457" y="190" type="line" smooth="yes"/>
      <point x="243" y="190"/>
      <point x="151" y="270"/>
    </contour>
    <contour>
      <point x="675" y="572" type="line"/>
      <point x="675" y="572"/>
      <point x="675" y="572"/>
      <point x="675" y="572" type="curve"/>
      <point x="987" y="572" type="line"/>
      <point x="987" y="572"/>
      <point x="987" y="572"/>
      <point x="987" y="572" type="curve"/>
      <point x="987" y="852" type="line"/>
      <point x="987" y="852"/>
      <point x="987" y="852"/>
      <point x="987" y="852" type="curve"/>
      <point x="675" y="852" type="line"/>
      <point x="675" y="852"/>
      <point x="675" y="852"/>
      <point x="675" y="852" type="curve"/>
    </contour>
    <contour>
      <point x="186" y="-38" type="line"/>
      <point x="15" y="133" type="line"/>
      <point x="454" y="572" type="line"/>
      <point x="625" y="401" type="line"/>
    </contour>
    <contour>
      <point x="15" y="1291" type="line"/>
      <point x="186" y="1462" type="line"/>
      <point x="625" y="1023" type="line"/>
      <point x="454" y="852" type="line"/>
    </contour>
    <contour>
      <point x="1476" y="1462" type="line"/>
      <point x="1647" y="1291" type="line"/>
      <point x="1208" y="852" type="line"/>
      <point x="1037" y="1023" type="line"/>
    </contour>
    <contour>
      <point x="1647" y="133" type="line"/>
      <point x="1476" y="-38" type="line"/>
      <point x="1037" y="401" type="line"/>
      <point x="1208" y="572" type="line"/>
    </contour>
  </outline>
</glyph>
<glyph name="yen" format="2">
  <advance width="1905"/>
  <unicode hex="00A5"/>
  <outline>
    <component base="Y"/>
    <contour>
      <point x="271" y="625" type="line"/>
      <point x="1633" y="625" type="line"/>
      <point x="1633" y="785" type="line"/>
      <point x="271" y="785" type="line"/>
    </contour>
    <contour>
      <point x="271" y="395" type="line"/>
      <point x="1633" y="395" type="line"/>
      <point x="1633" y="555" type="line"/>
      <point x="271" y="555" type="line"/>
    </contour>
  </outline>
</glyph>
<glyph name="section" format="2">
  <advance width="1684"/>
  <unicode hex="00A7"/>
  <outline>
    <contour>
      <point x="183" y="118" type="line"/>
      <point x="697" y="196" type="line"/>
      <point x="697" y="122" type="line"/>
      <point x="697" y="122"/>
      <point x="697" y="122"/>
      <point x="697" y="122" type="qcurve"/>
      <point x="961" y="122" type="line"/>
      <point x="961" y="122"/>
      <point x="961" y="122"/>
      <point x="961" y="122" type="qcurve"/>
      <point x="961" y="284" type="line"/>
      <point x="961" y="284"/>
      <point x="961" y="284"/>
      <point x="961" y="284" type="qcurve"/>
      <point x="371" y="284" type="line" smooth="yes"/>
      <point x="307" y="284"/>
      <point x="204" y="311"/>
      <point x="133" y="372"/>
      <point x="95" y="471"/>
      <point x="95" y="542" type="qcurve" smooth="yes"/>
      <point x="95" y="726" type="line" smooth="yes"/>
      <point x="95" y="796"/>
      <point x="136" y="884"/>
      <point x="211" y="934"/>
      <point x="315" y="952"/>
      <point x="377" y="952" type="qcurve" smooth="yes"/>
      <point x="843" y="952" type="line"/>
      <point x="843" y="720" type="line"/>
      <point x="619" y="720" type="line"/>
      <point x="619" y="720"/>
      <point x="619" y="720"/>
      <point x="619" y="720" type="qcurve"/>
      <point x="619" y="556" type="line"/>
      <point x="619" y="556"/>
      <point x="619" y="556"/>
      <point x="619" y="556" type="qcurve"/>
      <point x="1207" y="556" type="line" smooth="yes"/>
      <point x="1269" y="556"/>
      <point x="1372" y="540"/>
      <point x="1445" y="492"/>
      <point x="1485" y="405"/>
      <point x="1485" y="334" type="qcurve" smooth="yes"/>
      <point x="1485" y="82" type="line" smooth="yes"/>
      <point x="1485" y="10"/>
      <point x="1447" y="-81"/>
      <point x="1375" y="-132"/>
      <point x="1272" y="-150"/>
      <point x="1207" y="-150" type="qcurve" smooth="yes"/>
      <point x="459" y="-150" type="line" smooth="yes"/>
      <point x="395" y="-150"/>
      <point x="292" y="-128"/>
      <point x="221" y="-74"/>
      <point x="183" y="20"/>
      <point x="183" y="92" type="qcurve" smooth="yes"/>
    </contour>
    <contour>
      <point x="1061" y="556" type="line"/>
      <point x="1061" y="556"/>
      <point x="1061" y="556"/>
      <point x="1061" y="556" type="qcurve"/>
      <point x="1061" y="720" type="line"/>
      <point x="1061" y="720"/>
      <point x="1061" y="720"/>
      <point x="1061" y="720"/>
      <point x="1061" y="720"/>
      <point x="1061" y="720" type="qcurve"/>
      <point x="566" y="720" type="line"/>
      <point x="471" y="720" type="line" smooth="yes"/>
      <point x="407" y="720"/>
      <point x="304" y="747"/>
      <point x="233" y="808"/>
      <point x="195" y="907"/>
      <point x="195" y="978" type="qcurve" smooth="yes"/>
      <point x="195" y="1174" type="line" smooth="yes"/>
      <point x="195" y="1244"/>
      <point x="236" y="1332"/>
      <point x="311" y="1382"/>
      <point x="415" y="1400"/>
      <point x="477" y="1400" type="qcurve" smooth="yes"/>
      <point x="1179" y="1400" type="line" smooth="yes"/>
      <point x="1241" y="1400"/>
      <point x="1344" y="1379"/>
      <point x="1417" y="1327"/>
      <point x="1457" y="1237"/>
      <point x="1457" y="1168" type="qcurve" smooth="yes"/>
      <point x="1457" y="1159" type="line"/>
      <point x="943" y="1041" type="line"/>
      <point x="943" y="1128" type="line"/>
      <point x="943" y="1128"/>
      <point x="943" y="1128"/>
      <point x="943" y="1128" type="qcurve"/>
      <point x="719" y="1128" type="line"/>
      <point x="719" y="1128"/>
      <point x="719" y="1128"/>
      <point x="719" y="1128" type="qcurve"/>
      <point x="719" y="992" type="line"/>
      <point x="719" y="992"/>
      <point x="719" y="992"/>
      <point x="719" y="992" type="qcurve"/>
      <point x="1307" y="992" type="line" smooth="yes"/>
      <point x="1369" y="992"/>
      <point x="1472" y="976"/>
      <point x="1545" y="928"/>
      <point x="1585" y="841"/>
      <point x="1585" y="770" type="qcurve" smooth="yes"/>
      <point x="1585" y="566" type="line" smooth="yes"/>
      <point x="1585" y="494"/>
      <point x="1547" y="404"/>
      <point x="1475" y="353"/>
      <point x="1372" y="334"/>
      <point x="1307" y="334" type="qcurve" smooth="yes"/>
      <point x="843" y="334" type="line"/>
      <point x="843" y="556" type="line"/>
    </contour>
  </outline>
</glyph>
<glyph name="copyright" format="1">
  <advance width="1975"/>
  <unicode hex="00A9"/>
  <outline>
    <contour>
      <point x="462.4" y="548" type="curve"/>
      <point x="462.4" y="862" type="line"/>
      <point x="462.4" y="1048"/>
      <point x="556.4" y="1122"/>
      <point x="788.4" y="1122" type="curve"/>
      <point x="1190.4" y="1122" type="line"/>
      <point x="1422.4" y="1122"/>
      <point x="1512.4" y="1050"/>
      <point x="1512.4" y="866" type="curve"/>
      <point x="1512.4" y="834" type="line"/>
      <point x="1078.4" y="745" type="line"/>
      <point x="1078.4" y="790" type="line"/>
      <point x="1078.4" y="790"/>
      <point x="1078.4" y="790"/>
      <point x="1078.4" y="790" type="curve"/>
      <point x="896.4" y="790" type="line"/>
      <point x="896.4" y="790"/>
      <point x="896.4" y="790"/>
      <point x="896.4" y="790" type="curve"/>
      <point x="896.4" y="610" type="line"/>
      <point x="896.4" y="610"/>
      <point x="896.4" y="610"/>
      <point x="896.4" y="610" type="curve"/>
      <point x="1082.4" y="610" type="line"/>
      <point x="1082.4" y="610"/>
      <point x="1082.4" y="610"/>
      <point x="1082.4" y="610" type="curve"/>
      <point x="1082.4" y="662" type="line"/>
      <point x="1516.4" y="573" type="line"/>
      <point x="1516.4" y="548" type="line"/>
      <point x="1516.4" y="354"/>
      <point x="1428.4" y="278"/>
      <point x="1192.4" y="278" type="curve"/>
      <point x="786.4" y="278" type="line"/>
      <point x="550.4" y="278"/>
      <point x="462.4" y="354"/>
    </contour>
    <contour>
      <point x="158.4" y="1044" type="line" smooth="yes"/>
      <point x="158.4" y="1310"/>
      <point x="307.4" y="1378"/>
      <point x="570.4" y="1378" type="curve" smooth="yes"/>
      <point x="1386.4" y="1378" type="line" smooth="yes"/>
      <point x="1650.4" y="1378"/>
      <point x="1800.4" y="1320"/>
      <point x="1800.4" y="1044" type="curve" smooth="yes"/>
      <point x="1800.4" y="368" type="line" smooth="yes"/>
      <point x="1800.4" y="92"/>
      <point x="1650.4" y="22"/>
      <point x="1386.4" y="22" type="curve" smooth="yes"/>
      <point x="570.4" y="22" type="line" smooth="yes"/>
      <point x="306.4" y="22"/>
      <point x="158.4" y="90"/>
      <point x="158.4" y="368" type="curve" smooth="yes"/>
    </contour>
    <contour>
      <point x="352.4" y="1050" type="curve" smooth="yes"/>
      <point x="352.4" y="367" type="line" smooth="yes"/>
      <point x="352.4" y="227"/>
      <point x="430.4" y="192"/>
      <point x="570.4" y="192" type="curve" smooth="yes"/>
      <point x="1386.4" y="192" type="line" smooth="yes"/>
      <point x="1527.4" y="192"/>
      <point x="1606.4" y="226"/>
      <point x="1606.4" y="366" type="curve" smooth="yes"/>
      <point x="1606.4" y="1051" type="line" smooth="yes"/>
      <point x="1606.4" y="1177"/>
      <point x="1526.4" y="1208"/>
      <point x="1386.4" y="1208" type="curve" smooth="yes"/>
      <point x="570.4" y="1208" type="line" smooth="yes"/>
      <point x="431.4" y="1208"/>
      <point x="352.4" y="1177"/>
    </contour>
  </outline>
</glyph>
<glyph name="ordfeminine" format="1">
  <advance width="1067"/>
  <unicode hex="00AA"/>
  <outline>
    <contour>
      <point x="273" y="599" type="line" smooth="yes"/>
      <point x="165" y="599"/>
      <point x="79" y="636"/>
      <point x="79" y="765" type="curve" smooth="yes"/>
      <point x="79" y="843" type="line" smooth="yes"/>
      <point x="79" y="970"/>
      <point x="166" y="1002"/>
      <point x="273" y="1002" type="curve" smooth="yes"/>
      <point x="634" y="1002" type="line"/>
      <point x="634" y="1074" type="line"/>
      <point x="634" y="1074"/>
      <point x="634" y="1074"/>
      <point x="634" y="1074" type="curve"/>
      <point x="442" y="1074" type="line"/>
      <point x="442" y="1074"/>
      <point x="442" y="1074"/>
      <point x="442" y="1074" type="curve"/>
      <point x="442" y="1039" type="line"/>
      <point x="102" y="1101" type="line"/>
      <point x="102" y="1114" type="line" smooth="yes"/>
      <point x="102" y="1243"/>
      <point x="180" y="1283"/>
      <point x="294" y="1283" type="curve" smooth="yes"/>
      <point x="780" y="1283" type="line" smooth="yes"/>
      <point x="895" y="1283"/>
      <point x="973" y="1249"/>
      <point x="973" y="1103" type="curve" smooth="yes"/>
      <point x="973" y="606" type="line"/>
      <point x="634" y="606" type="line"/>
      <point x="634" y="704" type="line"/>
      <point x="611" y="624"/>
      <point x="541" y="599"/>
      <point x="449" y="599" type="curve" smooth="yes"/>
    </contour>
    <contour>
      <point x="419" y="777" type="line"/>
      <point x="419" y="777"/>
      <point x="419" y="777"/>
      <point x="419" y="777" type="curve"/>
      <point x="634" y="777" type="line"/>
      <point x="634" y="848" type="line"/>
      <point x="419" y="848" type="line"/>
      <point x="419" y="848"/>
      <point x="419" y="848"/>
      <point x="419" y="848" type="curve"/>
    </contour>
  </outline>
</glyph>
<glyph name="registered" format="2">
  <advance width="835"/>
  <unicode hex="00AE"/>
  <outline>
    <contour>
      <point x="58" y="1057" type="line"/>
      <point x="58" y="1410" type="line" smooth="yes"/>
      <point x="58" y="1479"/>
      <point x="133" y="1552"/>
      <point x="202" y="1552" type="qcurve" smooth="yes"/>
      <point x="633" y="1552" type="line" smooth="yes"/>
      <point x="702" y="1552"/>
      <point x="778" y="1479"/>
      <point x="778" y="1410" type="qcurve" smooth="yes"/>
      <point x="778" y="1057" type="line" smooth="yes"/>
      <point x="778" y="988"/>
      <point x="702" y="914"/>
      <point x="633" y="914" type="qcurve" smooth="yes"/>
      <point x="202" y="914" type="line" smooth="yes"/>
      <point x="133" y="914"/>
      <point x="58" y="988"/>
      <point x="58" y="1057" type="qcurve"/>
    </contour>
    <contour>
      <point x="145" y="1395" type="line"/>
      <point x="145" y="1072" type="line" smooth="yes"/>
      <point x="145" y="1032"/>
      <point x="182" y="990"/>
      <point x="222" y="990" type="qcurve" smooth="yes"/>
      <point x="627" y="990" type="line" smooth="yes"/>
      <point x="666" y="990"/>
      <point x="691" y="1032"/>
      <point x="691" y="1072" type="qcurve" smooth="yes"/>
      <point x="691" y="1395" type="line" smooth="yes"/>
      <point x="691" y="1435"/>
      <point x="652" y="1476"/>
      <point x="613" y="1476" type="qcurve" smooth="yes"/>
      <point x="222" y="1476" type="line" smooth="yes"/>
      <point x="182" y="1476"/>
      <point x="145" y="1435"/>
      <point x="145" y="1395" type="qcurve"/>
    </contour>
    <contour>
      <point x="225" y="1400" type="line"/>
      <point x="520" y="1400" type="line" smooth="yes"/>
      <point x="564" y="1400"/>
      <point x="617" y="1369"/>
      <point x="617" y="1321" type="qcurve" smooth="yes"/>
      <point x="617" y="1250" type="line" smooth="yes"/>
      <point x="617" y="1229"/>
      <point x="606" y="1201"/>
      <point x="585" y="1183"/>
      <point x="556" y="1174"/>
      <point x="538" y="1173" type="qcurve"/>
      <point x="538" y="1173" type="line"/>
      <point x="647" y="1060" type="line"/>
      <point x="490" y="1060" type="line"/>
      <point x="397" y="1163" type="line"/>
      <point x="352" y="1163" type="line"/>
      <point x="352" y="1060" type="line"/>
      <point x="225" y="1060" type="line"/>
    </contour>
    <contour>
      <point x="352" y="1258" type="line"/>
      <point x="475" y="1258" type="line" smooth="yes"/>
      <point x="483" y="1258"/>
      <point x="493" y="1266"/>
      <point x="493" y="1274" type="qcurve" smooth="yes"/>
      <point x="493" y="1285" type="line" smooth="yes"/>
      <point x="493" y="1293"/>
      <point x="483" y="1301"/>
      <point x="475" y="1301" type="qcurve" smooth="yes"/>
      <point x="352" y="1301" type="line"/>
    </contour>
  </outline>
</glyph>
<glyph name="degree" format="2">
  <advance width="687"/>
  <unicode hex="00B0"/>
  <outline>
    <contour>
      <point x="58" y="1159" type="line"/>
      <point x="58" y="1364" type="line" smooth="yes"/>
      <point x="58" y="1450"/>
      <point x="153" y="1530"/>
      <point x="257" y="1530" type="qcurve" smooth="yes"/>
      <point x="430" y="1530" type="line" smooth="yes"/>
      <point x="535" y="1530"/>
      <point x="630" y="1450"/>
      <point x="630" y="1364" type="qcurve" smooth="yes"/>
      <point x="630" y="1159" type="line" smooth="yes"/>
      <point x="630" y="1069"/>
      <point x="537" y="986"/>
      <point x="430" y="986" type="qcurve" smooth="yes"/>
      <point x="257" y="986" type="line" smooth="yes"/>
      <point x="151" y="986"/>
      <point x="58" y="1068"/>
      <point x="58" y="1159" type="qcurve"/>
    </contour>
    <contour>
      <point x="283" y="1200" type="line"/>
      <point x="283" y="1200"/>
      <point x="283" y="1200"/>
      <point x="283" y="1200" type="qcurve"/>
      <point x="405" y="1200" type="line"/>
      <point x="405" y="1200"/>
      <point x="405" y="1200"/>
      <point x="405" y="1200" type="qcurve"/>
      <point x="405" y="1316" type="line"/>
      <point x="405" y="1316"/>
      <point x="405" y="1316"/>
      <point x="405" y="1316" type="qcurve"/>
      <point x="283" y="1316" type="line"/>
      <point x="283" y="1316"/>
      <point x="283" y="1316"/>
      <point x="283" y="1316" type="qcurve"/>
    </contour>
  </outline>
</glyph>
<glyph name="plusminus" format="2">
  <advance width="1448"/>
  <unicode hex="00B1"/>
  <outline>
    <contour>
      <point x="1331" y="1044" type="line"/>
      <point x="1331" y="754" type="line"/>
      <point x="885" y="754" type="line"/>
      <point x="885" y="398" type="line"/>
      <point x="563" y="398" type="line"/>
      <point x="563" y="754" type="line"/>
      <point x="117" y="754" type="line"/>
      <point x="117" y="1044" type="line"/>
      <point x="563" y="1044" type="line"/>
      <point x="563" y="1400" type="line"/>
      <point x="885" y="1400" type="line"/>
      <point x="885" y="1044" type="line"/>
    </contour>
    <contour>
      <point x="117" y="0" type="line"/>
      <point x="117" y="290" type="line"/>
      <point x="1331" y="290" type="line"/>
      <point x="1331" y="0" type="line"/>
    </contour>
  </outline>
</glyph>
<glyph name="three.sups" format="1">
  <advance width="1145" height="1448"/>
  <unicode hex="00B3"/>
  <outline>
    <contour>
      <point x="102" y="1254" type="curve" smooth="yes"/>
      <point x="102" y="1356" type="line"/>
      <point x="404" y="1404" type="line"/>
      <point x="404" y="1320" type="line"/>
      <point x="660" y="1320" type="line" smooth="yes"/>
      <point x="692" y="1320"/>
      <point x="716" y="1326"/>
      <point x="716" y="1364" type="curve" smooth="yes"/>
      <point x="716" y="1384" type="line" smooth="yes"/>
      <point x="716" y="1406"/>
      <point x="692" y="1420"/>
      <point x="666" y="1420" type="curve" smooth="yes"/>
      <point x="534" y="1420" type="line"/>
      <point x="534" y="1542" type="line"/>
      <point x="632" y="1542" type="line" smooth="yes"/>
      <point x="660" y="1542"/>
      <point x="682" y="1554"/>
      <point x="682" y="1576" type="curve" smooth="yes"/>
      <point x="682" y="1590" type="line" smooth="yes"/>
      <point x="682" y="1616"/>
      <point x="660" y="1630"/>
      <point x="632" y="1630" type="curve" smooth="yes"/>
      <point x="410" y="1630" type="line"/>
      <point x="410" y="1552" type="line"/>
      <point x="116" y="1602" type="line"/>
      <point x="116" y="1702" type="line" smooth="yes"/>
      <point x="116" y="1822"/>
      <point x="190" y="1882"/>
      <point x="342" y="1882" type="curve" smooth="yes"/>
      <point x="752" y="1882" type="line" smooth="yes"/>
      <point x="904" y="1882"/>
      <point x="976" y="1816"/>
      <point x="976" y="1696" type="curve" smooth="yes"/>
      <point x="976" y="1658" type="line" smooth="yes"/>
      <point x="976" y="1552"/>
      <point x="938" y="1502"/>
      <point x="846" y="1486" type="curve"/>
      <point x="946" y="1480"/>
      <point x="1010" y="1432"/>
      <point x="1010" y="1306" type="curve" smooth="yes"/>
      <point x="1010" y="1260" type="line" smooth="yes"/>
      <point x="1010" y="1112"/>
      <point x="916" y="1068"/>
      <point x="774" y="1068" type="curve" smooth="yes"/>
      <point x="334" y="1068" type="line" smooth="yes"/>
      <point x="194" y="1068"/>
      <point x="102" y="1106"/>
    </contour>
  </outline>
</glyph>
<glyph name="paragraph" format="1">
  <advance width="1688"/>
  <unicode hex="00B6"/>
  <outline>
    <contour>
      <point x="1508" y="0" type="line"/>
      <point x="1316" y="0" type="line"/>
      <point x="1316" y="1238" type="line"/>
      <point x="1128" y="1238" type="line"/>
      <point x="1128" y="0" type="line"/>
      <point x="936" y="0" type="line"/>
      <point x="936" y="360" type="line"/>
      <point x="558" y="360" type="line" smooth="yes"/>
      <point x="306" y="360"/>
      <point x="144" y="398"/>
      <point x="144" y="666" type="curve" smooth="yes"/>
      <point x="144" y="1066" type="line" smooth="yes"/>
      <point x="144" y="1334"/>
      <point x="306" y="1400"/>
      <point x="558" y="1400" type="curve" smooth="yes"/>
      <point x="1508" y="1400" type="line"/>
    </contour>
  </outline>
</glyph>
<glyph name="periodcentered" format="2">
  <advance width="814"/>
  <unicode hex="00B7"/>
  <outline>
    <contour>
      <point x="162" y="491" type="line"/>
      <point x="162" y="702" type="line" smooth="yes"/>
      <point x="162" y="746"/>
      <point x="172" y="800"/>
      <point x="203" y="830"/>
      <point x="258" y="840"/>
      <point x="303" y="840" type="qcurve" smooth="yes"/>
      <point x="510" y="840" type="line" smooth="yes"/>
      <point x="555" y="840"/>
      <point x="611" y="830"/>
      <point x="641" y="800"/>
      <point x="652" y="745"/>
      <point x="652" y="700" type="qcurve" smooth="yes"/>
      <point x="652" y="491" type="line" smooth="yes"/>
      <point x="652" y="446"/>
      <point x="642" y="391"/>
      <point x="611" y="360"/>
      <point x="556" y="350"/>
      <point x="511" y="350" type="qcurve" smooth="yes"/>
      <point x="303" y="350" type="line" smooth="yes"/>
      <point x="258" y="350"/>
      <point x="203" y="360"/>
      <point x="172" y="391"/>
      <point x="162" y="446"/>
      <point x="162" y="491" type="qcurve"/>
    </contour>
  </outline>
</glyph>
<glyph name="ordmasculine" format="1">
  <advance width="1028"/>
  <unicode hex="00BA"/>
  <outline>
    <contour>
      <point x="79" y="772" type="curve" smooth="yes"/>
      <point x="79" y="1117" type="line" smooth="yes"/>
      <point x="79" y="1231"/>
      <point x="140" y="1283"/>
      <point x="278" y="1283" type="curve" smooth="yes"/>
      <point x="761" y="1283" type="line" smooth="yes"/>
      <point x="900" y="1283"/>
      <point x="961" y="1231"/>
      <point x="961" y="1117" type="curve" smooth="yes"/>
      <point x="961" y="772" type="line" smooth="yes"/>
      <point x="961" y="652"/>
      <point x="903" y="599"/>
      <point x="761" y="599" type="curve" smooth="yes"/>
      <point x="278" y="599" type="line" smooth="yes"/>
      <point x="138" y="599"/>
      <point x="79" y="652"/>
    </contour>
    <contour>
      <point x="419" y="848" type="line"/>
      <point x="419" y="848"/>
      <point x="419" y="848"/>
      <point x="419" y="848" type="curve"/>
      <point x="621" y="848" type="line"/>
      <point x="621" y="848"/>
      <point x="621" y="848"/>
      <point x="621" y="848" type="curve"/>
      <point x="621" y="1034" type="line"/>
      <point x="621" y="1034"/>
      <point x="621" y="1034"/>
      <point x="621" y="1034" type="curve"/>
      <point x="419" y="1034" type="line"/>
      <point x="419" y="1034"/>
      <point x="419" y="1034"/>
      <point x="419" y="1034" type="curve"/>
    </contour>
  </outline>
</glyph>
<glyph name="AE" format="1">
  <advance width="3818"/>
  <unicode hex="00C6"/>
  <outline>
    <contour>
      <point x="0" y="0" type="line"/>
      <point x="1446" y="1400" type="line"/>
      <point x="1792" y="1400" type="line"/>
      <point x="1812" y="1130" type="line"/>
      <point x="588" y="0" type="line"/>
    </contour>
    <contour>
      <point x="754" y="176" type="line"/>
      <point x="914" y="516" type="line"/>
      <point x="1844" y="516" type="line"/>
      <point x="2006" y="176" type="line"/>
    </contour>
    <contour>
      <point x="1782" y="0" type="line"/>
      <point x="1782" y="1400" type="line"/>
      <point x="3282" y="1400" type="line"/>
      <point x="3282" y="976" type="line"/>
      <point x="2354" y="976" type="line"/>
      <point x="2354" y="890" type="line"/>
      <point x="2896" y="890" type="line"/>
      <point x="2896" y="520" type="line"/>
      <point x="2354" y="520" type="line"/>
      <point x="2354" y="424" type="line"/>
      <point x="3302" y="424" type="line"/>
      <point x="3302" y="0" type="line"/>
    </contour>
    <contour>
      <point x="1002" y="1550" type="move" name="top"/>
    </contour>
    <contour>
      <point x="1002" y="-150" type="move" name="bottom"/>
    </contour>
  </outline>
</glyph>
<glyph name="multiply" format="2">
  <advance width="1305"/>
  <unicode hex="00D7"/>
  <outline>
    <contour>
      <point x="322" y="51" type="line"/>
      <point x="117" y="256" type="line"/>
      <point x="448" y="587" type="line"/>
      <point x="117" y="918" type="line"/>
      <point x="322" y="1123" type="line"/>
      <point x="653" y="792" type="line"/>
      <point x="983" y="1122" type="line"/>
      <point x="1188" y="917" type="line"/>
      <point x="858" y="587" type="line"/>
      <point x="1188" y="257" type="line"/>
      <point x="983" y="52" type="line"/>
      <point x="653" y="382" type="line"/>
    </contour>
  </outline>
  <guideline x="322" y="51" angle="45" color="1,0,0,1"/>
  <guideline x="117" y="918" angle="315" color="1,0,0,1"/>
</glyph>
<glyph name="Oslash" format="2">
  <advance width="2096"/>
  <unicode hex="00D8"/>
  <anchor x="1048" y="1610" name="top"/>
  <outline>
    <contour>
      <point x="178" y="1080" type="line"/>
      <point x="178" y="332" type="line" smooth="yes"/>
      <point x="178" y="229"/>
      <point x="233" y="95"/>
      <point x="338" y="17"/>
      <point x="491" y="-14"/>
      <point x="590" y="-14" type="qcurve" smooth="yes"/>
      <point x="1504" y="-14" type="line" smooth="yes"/>
      <point x="1603" y="-14"/>
      <point x="1757" y="17"/>
      <point x="1863" y="95"/>
      <point x="1918" y="229"/>
      <point x="1918" y="332" type="qcurve" smooth="yes"/>
      <point x="1918" y="1080" type="line" smooth="yes"/>
      <point x="1918" y="1181"/>
      <point x="1860" y="1310"/>
      <point x="1752" y="1385"/>
      <point x="1599" y="1414"/>
      <point x="1504" y="1414" type="qcurve" smooth="yes"/>
      <point x="590" y="1414" type="line" smooth="yes"/>
      <point x="496" y="1414"/>
      <point x="343" y="1385"/>
      <point x="236" y="1310"/>
      <point x="178" y="1181"/>
      <point x="178" y="1080" type="qcurve"/>
    </contour>
    <contour>
      <point x="750" y="950" type="line"/>
      <point x="750" y="950"/>
      <point x="750" y="950"/>
      <point x="750" y="950"/>
      <point x="750" y="950"/>
      <point x="750" y="950" type="qcurve"/>
      <point x="1346" y="950" type="line"/>
      <point x="1346" y="950"/>
      <point x="1346" y="950"/>
      <point x="1346" y="950"/>
      <point x="1346" y="950"/>
      <point x="1346" y="950" type="qcurve"/>
      <point x="1346" y="450" type="line"/>
      <point x="1346" y="450"/>
      <point x="1346" y="450"/>
      <point x="1346" y="450"/>
      <point x="1346" y="450"/>
      <point x="1346" y="450" type="qcurve"/>
      <point x="750" y="450" type="line"/>
      <point x="750" y="450"/>
      <point x="750" y="450"/>
      <point x="750" y="450"/>
      <point x="750" y="450"/>
      <point x="750" y="450" type="qcurve"/>
    </contour>
    <contour>
      <point x="141" y="-60" type="line"/>
      <point x="420" y="155" type="line"/>
      <point x="596" y="266" type="line"/>
      <point x="1663" y="1030" type="line"/>
      <point x="1811" y="1123" type="line"/>
      <point x="2064" y="1317" type="line"/>
      <point x="1954" y="1460" type="line"/>
      <point x="1703" y="1267" type="line"/>
      <point x="1561" y="1178" type="line"/>
      <point x="495" y="415" type="line"/>
      <point x="316" y="302" type="line"/>
      <point x="32" y="83" type="line"/>
    </contour>
  </outline>
  <guideline y="-60"/>
  <guideline y="-60"/>
  <guideline y="1460"/>
</glyph>
<glyph name="Thorn" format="1">
  <advance width="1834.56"/>
  <unicode hex="00DE"/>
  <outline>
    <contour>
      <point x="144" y="0" type="line"/>
      <point x="716" y="0" type="line"/>
      <point x="716" y="178" type="line"/>
      <point x="1278" y="178" type="line" smooth="yes"/>
      <point x="1530" y="178"/>
      <point x="1692" y="236"/>
      <point x="1692" y="504" type="curve" smooth="yes"/>
      <point x="1692" y="914" type="line" smooth="yes"/>
      <point x="1692" y="1182"/>
      <point x="1530" y="1248"/>
      <point x="1278" y="1248" type="curve" smooth="yes"/>
      <point x="716" y="1248" type="line"/>
      <point x="716" y="1400" type="line"/>
      <point x="144" y="1400" type="line"/>
    </contour>
    <contour>
      <point x="716" y="638" type="line"/>
      <point x="716" y="778" type="line"/>
      <point x="1068" y="778" type="line" smooth="yes"/>
      <point x="1112" y="778"/>
      <point x="1136" y="754"/>
      <point x="1136" y="718" type="curve" smooth="yes"/>
      <point x="1136" y="698" type="line" smooth="yes"/>
      <point x="1136" y="662"/>
      <point x="1112" y="638"/>
      <point x="1068" y="638" type="curve" smooth="yes"/>
    </contour>
  </outline>
</glyph>
<glyph name="germandbls" format="2">
  <advance width="1599"/>
  <unicode hex="00DF"/>
  <outline>
    <contour>
      <point x="123" y="0" type="line"/>
      <point x="647" y="0" type="line"/>
      <point x="647" y="1180" type="line"/>
      <point x="647" y="1180"/>
      <point x="647" y="1180"/>
      <point x="647" y="1180" type="qcurve"/>
      <point x="911" y="1180" type="line"/>
      <point x="911" y="1180"/>
      <point x="911" y="1180"/>
      <point x="911" y="1180" type="qcurve"/>
      <point x="911" y="1024" type="line"/>
      <point x="911" y="1024"/>
      <point x="911" y="1024"/>
      <point x="911" y="1024" type="qcurve"/>
      <point x="760" y="1024" type="line"/>
      <point x="760" y="642" type="line"/>
      <point x="970" y="642" type="line"/>
      <point x="970" y="642"/>
      <point x="970" y="642"/>
      <point x="970" y="642"/>
      <point x="970" y="642"/>
      <point x="970" y="642" type="qcurve"/>
      <point x="970" y="372" type="line"/>
      <point x="970" y="372"/>
      <point x="970" y="372"/>
      <point x="970" y="372"/>
      <point x="970" y="372"/>
      <point x="970" y="372" type="qcurve"/>
      <point x="748" y="372" type="line"/>
      <point x="748" y="-10" type="line"/>
      <point x="1216" y="-10" type="line" smooth="yes"/>
      <point x="1281" y="-10"/>
      <point x="1384" y="9"/>
      <point x="1456" y="60"/>
      <point x="1494" y="150"/>
      <point x="1494" y="222" type="qcurve" smooth="yes"/>
      <point x="1494" y="732" type="line" smooth="yes"/>
      <point x="1494" y="786"/>
      <point x="1470" y="862"/>
      <point x="1425" y="913"/>
      <point x="1361" y="941"/>
      <point x="1321" y="947" type="qcurve"/>
      <point x="1381" y="977"/>
      <point x="1435" y="1089"/>
      <point x="1435" y="1176" type="qcurve" smooth="yes"/>
      <point x="1435" y="1228" type="line" smooth="yes"/>
      <point x="1435" y="1359"/>
      <point x="1288" y="1482"/>
      <point x="1129" y="1482" type="qcurve" smooth="yes"/>
      <point x="429" y="1482" type="line" smooth="yes"/>
      <point x="350" y="1482"/>
      <point x="234" y="1452"/>
      <point x="159" y="1389"/>
      <point x="123" y="1293"/>
      <point x="123" y="1228" type="qcurve" smooth="yes"/>
    </contour>
  </outline>
</glyph>
<glyph name="ae" format="1">
  <advance width="2276"/>
  <unicode hex="00E6"/>
  <outline>
    <contour>
      <point x="133" y="742" type="line"/>
      <point x="647" y="664" type="line"/>
      <point x="647" y="732" type="line"/>
      <point x="647" y="732"/>
      <point x="647" y="732"/>
      <point x="647" y="732" type="curve"/>
      <point x="871" y="732" type="line"/>
      <point x="871" y="732"/>
      <point x="871" y="732"/>
      <point x="871" y="732" type="curve"/>
      <point x="871" y="626" type="line"/>
      <point x="383" y="626" type="line" smooth="yes"/>
      <point x="217" y="626"/>
      <point x="105" y="592"/>
      <point x="105" y="404" type="curve" smooth="yes"/>
      <point x="105" y="222" type="line" smooth="yes"/>
      <point x="105" y="30"/>
      <point x="209" y="-10"/>
      <point x="383" y="-10" type="curve" smooth="yes"/>
      <point x="837" y="-10" type="line" smooth="yes"/>
      <point x="1017" y="-10"/>
      <point x="1128" y="61"/>
      <point x="1128" y="227" type="curve"/>
      <point x="1048" y="227" type="line"/>
      <point x="1048" y="62"/>
      <point x="1158" y="-10"/>
      <point x="1336" y="-10" type="curve" smooth="yes"/>
      <point x="1877" y="-10" type="line" smooth="yes"/>
      <point x="2049" y="-10"/>
      <point x="2153" y="70"/>
      <point x="2153" y="262" type="curve" smooth="yes"/>
      <point x="2153" y="288" type="line"/>
      <point x="1639" y="366" type="line"/>
      <point x="1639" y="292" type="line"/>
      <point x="1639" y="292"/>
      <point x="1639" y="292"/>
      <point x="1639" y="292" type="curve"/>
      <point x="1395" y="292" type="line"/>
      <point x="1395" y="292"/>
      <point x="1395" y="292"/>
      <point x="1395" y="292" type="curve"/>
      <point x="1395" y="408" type="line"/>
      <point x="2161" y="408" type="line"/>
      <point x="2161" y="808" type="line" smooth="yes"/>
      <point x="2161" y="994"/>
      <point x="2045" y="1034"/>
      <point x="1879" y="1034" type="curve" smooth="yes"/>
      <point x="1488" y="1034" type="line" smooth="yes"/>
      <point x="1297" y="1034"/>
      <point x="1172" y="974"/>
      <point x="1172" y="805" type="curve"/>
      <point x="1252" y="805" type="line"/>
      <point x="1252" y="967"/>
      <point x="1141" y="1034"/>
      <point x="964" y="1034" type="curve" smooth="yes"/>
      <point x="411" y="1034" type="line" smooth="yes"/>
      <point x="245" y="1034"/>
      <point x="133" y="956"/>
      <point x="133" y="772" type="curve" smooth="yes"/>
    </contour>
    <contour>
      <point x="872" y="402" type="line"/>
      <point x="872" y="292" type="line"/>
      <point x="872" y="292"/>
      <point x="872" y="292"/>
      <point x="872" y="292" type="curve"/>
      <point x="629" y="292" type="line"/>
      <point x="629" y="292"/>
      <point x="629" y="292"/>
      <point x="629" y="292" type="curve"/>
      <point x="629" y="402" type="line"/>
      <point x="629" y="402"/>
      <point x="629" y="402"/>
      <point x="629" y="402" type="curve"/>
    </contour>
    <contour>
      <point x="1395" y="632" type="line"/>
      <point x="1395" y="732" type="line"/>
      <point x="1395" y="732"/>
      <point x="1395" y="732"/>
      <point x="1395" y="732" type="curve"/>
      <point x="1637" y="732" type="line"/>
      <point x="1637" y="732"/>
      <point x="1637" y="732"/>
      <point x="1637" y="732" type="curve"/>
      <point x="1637" y="632" type="line"/>
    </contour>
    <contour>
      <point x="2391" y="1174" type="move" name="top"/>
    </contour>
    <contour>
      <point x="2391" y="-150" type="move" name="bottom"/>
    </contour>
  </outline>
</glyph>
<glyph name="eth" format="2">
  <advance width="1595"/>
  <unicode hex="00F0"/>
  <outline>
    <contour>
      <point x="331" y="1347" type="line"/>
      <point x="449" y="1323"/>
      <point x="630" y="1256"/>
      <point x="763" y="1176"/>
      <point x="853" y="1087"/>
      <point x="908" y="994"/>
      <point x="931" y="898"/>
      <point x="931" y="852" type="qcurve"/>
      <point x="1454" y="527" type="line"/>
      <point x="1454" y="673"/>
      <point x="1403" y="920"/>
      <point x="1307" y="1123"/>
      <point x="1172" y="1282"/>
      <point x="1004" y="1397"/>
      <point x="807" y="1468"/>
      <point x="698" y="1482" type="qcurve"/>
    </contour>
    <contour>
      <point x="115" y="680" type="line"/>
      <point x="115" y="254" type="line" smooth="yes"/>
      <point x="115" y="185"/>
      <point x="150" y="85"/>
      <point x="225" y="21"/>
      <point x="341" y="-10"/>
      <point x="421" y="-10" type="qcurve" smooth="yes"/>
      <point x="1149" y="-10" type="line" smooth="yes"/>
      <point x="1230" y="-10"/>
      <point x="1346" y="21"/>
      <point x="1421" y="85"/>
      <point x="1455" y="185"/>
      <point x="1455" y="254" type="qcurve"/>
      <point x="1454" y="527" type="line"/>
      <point x="931" y="934" type="line"/>
      <point x="421" y="934" type="line" smooth="yes"/>
      <point x="342" y="934"/>
      <point x="226" y="904"/>
      <point x="151" y="841"/>
      <point x="115" y="745"/>
      <point x="115" y="680" type="qcurve"/>
    </contour>
    <contour>
      <point x="639" y="552" type="line"/>
      <point x="639" y="552"/>
      <point x="639" y="552"/>
      <point x="639" y="552" type="qcurve"/>
      <point x="931" y="552" type="line"/>
      <point x="931" y="552" type="line"/>
      <point x="931" y="372" type="line"/>
      <point x="931" y="372"/>
      <point x="931" y="372"/>
      <point x="931" y="372" type="qcurve"/>
      <point x="639" y="372" type="line"/>
      <point x="639" y="372"/>
      <point x="639" y="372"/>
      <point x="639" y="372" type="qcurve"/>
    </contour>
    <contour>
      <point x="331" y="1164" type="line"/>
      <point x="365" y="1001" type="line"/>
      <point x="1480" y="1237" type="line"/>
      <point x="1446" y="1400" type="line"/>
    </contour>
  </outline>
</glyph>
<glyph name="divide" format="1">
  <advance width="1317"/>
  <unicode hex="00F7"/>
  <outline>
    <component base="uni2212" xOffset="1.63487e-06"/>
    <contour>
      <point x="501" y="131" type="curve" smooth="yes"/>
      <point x="501" y="210" type="line" smooth="yes"/>
      <point x="501" y="325"/>
      <point x="503" y="327"/>
      <point x="620" y="327" type="curve" smooth="yes"/>
      <point x="696" y="327" type="line" smooth="yes"/>
      <point x="813" y="327"/>
      <point x="816" y="325"/>
      <point x="816" y="210" type="curve" smooth="yes"/>
      <point x="816" y="131" type="line" smooth="yes"/>
      <point x="816" y="14"/>
      <point x="813" y="12"/>
      <point x="696" y="12" type="curve" smooth="yes"/>
      <point x="620" y="12" type="line" smooth="yes"/>
      <point x="503" y="12"/>
      <point x="501" y="14"/>
    </contour>
    <contour>
      <point x="501" y="966" type="curve" smooth="yes"/>
      <point x="501" y="1045" type="line" smooth="yes"/>
      <point x="501" y="1160"/>
      <point x="503" y="1162"/>
      <point x="620" y="1162" type="curve" smooth="yes"/>
      <point x="696" y="1162" type="line" smooth="yes"/>
      <point x="813" y="1162"/>
      <point x="816" y="1160"/>
      <point x="816" y="1045" type="curve" smooth="yes"/>
      <point x="816" y="966" type="line" smooth="yes"/>
      <point x="816" y="849"/>
      <point x="813" y="847"/>
      <point x="696" y="847" type="curve" smooth="yes"/>
      <point x="620" y="847" type="line" smooth="yes"/>
      <point x="503" y="847"/>
      <point x="501" y="849"/>
    </contour>
  </outline>
</glyph>
<glyph name="oslash" format="1">
  <advance width="1625.12" height="1448"/>
  <unicode hex="00F8"/>
  <outline>
    <contour>
      <point x="142.56" y="254" type="curve" smooth="yes"/>
      <point x="142.56" y="780" type="line" smooth="yes"/>
      <point x="142.56" y="954"/>
      <point x="236.56" y="1034"/>
      <point x="448.56" y="1034" type="curve" smooth="yes"/>
      <point x="1176.56" y="1034" type="line" smooth="yes"/>
      <point x="1388.56" y="1034"/>
      <point x="1482.56" y="954"/>
      <point x="1482.56" y="780" type="curve" smooth="yes"/>
      <point x="1482.56" y="254" type="line" smooth="yes"/>
      <point x="1482.56" y="70"/>
      <point x="1392.56" y="-10"/>
      <point x="1176.56" y="-10" type="curve" smooth="yes"/>
      <point x="448.56" y="-10" type="line" smooth="yes"/>
      <point x="234.56" y="-10"/>
      <point x="142.56" y="70"/>
    </contour>
    <contour>
      <point x="666.56" y="372" type="line"/>
      <point x="666.56" y="372"/>
      <point x="666.56" y="372"/>
      <point x="666.56" y="372" type="curve"/>
      <point x="958.56" y="372" type="line"/>
      <point x="958.56" y="372"/>
      <point x="958.56" y="372"/>
      <point x="958.56" y="372" type="curve"/>
      <point x="958.56" y="652" type="line"/>
      <point x="958.56" y="652"/>
      <point x="958.56" y="652"/>
      <point x="958.56" y="652" type="curve"/>
      <point x="666.56" y="652" type="line"/>
      <point x="666.56" y="652"/>
      <point x="666.56" y="652"/>
      <point x="666.56" y="652" type="curve"/>
    </contour>
    <contour>
      <point x="812" y="1198" type="move" name="top"/>
    </contour>
    <contour>
      <point x="812" y="-174" type="move" name="bottom"/>
    </contour>
  </outline>
</glyph>
<glyph name="Hbar" format="1">
  <advance width="2174"/>
  <unicode hex="0126"/>
  <outline>
    <contour>
      <point x="230" y="0" type="line"/>
      <point x="802" y="0" type="line"/>
      <point x="802" y="1400" type="line"/>
      <point x="230" y="1400" type="line"/>
    </contour>
    <contour>
      <point x="1372" y="0" type="line"/>
      <point x="1944" y="0" type="line"/>
      <point x="1944" y="1400" type="line"/>
      <point x="1372" y="1400" type="line"/>
    </contour>
    <contour>
      <point x="772" y="482" type="line"/>
      <point x="1402" y="482" type="line"/>
      <point x="1402" y="794" type="line"/>
      <point x="772" y="794" type="line"/>
    </contour>
    <contour>
      <point x="130" y="894" type="line"/>
      <point x="2044" y="894" type="line"/>
      <point x="2044" y="1206" type="line"/>
      <point x="130" y="1206" type="line"/>
    </contour>
    <contour>
      <point x="1088" y="1550" type="move" name="top"/>
    </contour>
    <contour>
      <point x="1088" y="-150" type="move" name="bottom"/>
    </contour>
    <contour>
      <point x="130" y="700" type="move" name="left"/>
    </contour>
  </outline>
</glyph>
<glyph name="hbar" format="1">
  <advance width="1646"/>
  <unicode hex="0127"/>
  <outline>
    <contour>
      <point x="244" y="0" type="line"/>
      <point x="244" y="1472" type="line"/>
      <point x="768" y="1472" type="line"/>
      <point x="768" y="920" type="line"/>
      <point x="810" y="992"/>
      <point x="898" y="1024"/>
      <point x="1054" y="1024" type="curve" smooth="yes"/>
      <point x="1142" y="1024" type="line" smooth="yes"/>
      <point x="1398" y="1024"/>
      <point x="1510" y="932"/>
      <point x="1510" y="724" type="curve" smooth="yes"/>
      <point x="1510" y="0" type="line"/>
      <point x="986" y="0" type="line"/>
      <point x="986" y="602" type="line"/>
      <point x="986" y="602"/>
      <point x="986" y="602"/>
      <point x="986" y="602" type="curve"/>
      <point x="768" y="602" type="line"/>
      <point x="768" y="0" type="line"/>
    </contour>
    <contour>
      <point x="94" y="1379" type="line"/>
      <point x="1054" y="1379" type="line"/>
      <point x="1054" y="1103" type="line"/>
      <point x="94" y="1103" type="line"/>
    </contour>
    <contour>
      <point x="506" y="1622" type="move" name="top"/>
    </contour>
    <contour>
      <point x="878" y="-150" type="move" name="bottom"/>
    </contour>
    <contour>
      <point x="144" y="518" type="move" name="left"/>
    </contour>
  </outline>
</glyph>
<glyph name="dotlessi" format="1">
  <advance width="840"/>
  <unicode hex="0131"/>
  <outline>
    <contour>
      <point x="142" y="0" type="line"/>
      <point x="666" y="0" type="line"/>
      <point x="666" y="1024" type="line"/>
      <point x="142" y="1024" type="line"/>
    </contour>
    <contour>
      <point x="404" y="-150" type="move" name="bottom"/>
    </contour>
    <contour>
      <point x="404" y="1174" type="move" name="top"/>
    </contour>
  </outline>
</glyph>
<glyph name="Lslash" format="2">
  <advance width="1555"/>
  <unicode hex="0141"/>
  <outline>
    <contour>
      <point x="180" y="0" type="line"/>
      <point x="180" y="487" type="line"/>
      <point x="48" y="439" type="line"/>
      <point x="48" y="599" type="line"/>
      <point x="180" y="647" type="line"/>
      <point x="180" y="1400" type="line"/>
      <point x="752" y="1400" type="line"/>
      <point x="752" y="856" type="line"/>
      <point x="1068" y="971" type="line"/>
      <point x="1068" y="811" type="line"/>
      <point x="752" y="696" type="line"/>
      <point x="752" y="484" type="line"/>
      <point x="1504" y="484" type="line"/>
      <point x="1504" y="0" type="line"/>
    </contour>
  </outline>
</glyph>
<glyph name="lslash" format="2">
  <advance width="824"/>
  <unicode hex="0142"/>
  <outline>
    <contour>
      <point x="150" y="0" type="line"/>
      <point x="674" y="0" type="line"/>
      <point x="674" y="722" type="line"/>
      <point x="764" y="755" type="line"/>
      <point x="764" y="915" type="line"/>
      <point x="674" y="882" type="line"/>
      <point x="674" y="1472" type="line"/>
      <point x="150" y="1472" type="line"/>
      <point x="150" y="692" type="line"/>
      <point x="60" y="659" type="line"/>
      <point x="60" y="499" type="line"/>
      <point x="150" y="532" type="line"/>
    </contour>
  </outline>
  <guideline y="724"/>
</glyph>
<glyph name="Eng" format="2">
  <advance width="2070"/>
  <unicode hex="014A"/>
  <outline>
    <contour>
      <point x="180" y="0" type="line"/>
      <point x="712" y="0" type="line"/>
      <point x="712" y="609" type="line"/>
      <point x="1466" y="0" type="line"/>
      <point x="1890" y="0" type="line"/>
      <point x="1890" y="1400" type="line"/>
      <point x="1358" y="1400" type="line"/>
      <point x="1358" y="782" type="line"/>
      <point x="602" y="1400" type="line"/>
      <point x="180" y="1400" type="line"/>
    </contour>
    <contour>
      <point x="999" y="-80" type="line"/>
      <point x="1071" y="-428" type="line"/>
      <point x="1630" y="-428" type="line" smooth="yes"/>
      <point x="1689" y="-428"/>
      <point x="1784" y="-381"/>
      <point x="1853" y="-296"/>
      <point x="1890" y="-176"/>
      <point x="1890" y="-102" type="qcurve" smooth="yes"/>
      <point x="1890" y="0" type="line"/>
      <point x="1368" y="100" type="line"/>
      <point x="1368" y="-80" type="line"/>
      <point x="1368" y="-80"/>
      <point x="1368" y="-80"/>
      <point x="1368" y="-80" type="qcurve"/>
    </contour>
  </outline>
  <guideline x="1035"/>
</glyph>
<glyph name="eng" format="1">
  <advance width="1570"/>
  <unicode hex="014B"/>
  <outline>
    <contour>
      <point x="144" y="0" type="line"/>
      <point x="668" y="0" type="line"/>
      <point x="668" y="602" type="line"/>
      <point x="886" y="602" type="line"/>
      <point x="886" y="602"/>
      <point x="886" y="602"/>
      <point x="886" y="602" type="curve"/>
      <point x="886" y="-80" type="line"/>
      <point x="886" y="-80"/>
      <point x="886" y="-80"/>
      <point x="886" y="-80" type="curve"/>
      <point x="705" y="-80" type="line"/>
      <point x="777" y="-428" type="line"/>
      <point x="1150" y="-428" type="line" smooth="yes"/>
      <point x="1306" y="-428"/>
      <point x="1410" y="-298"/>
      <point x="1410" y="-102" type="curve" smooth="yes"/>
      <point x="1410" y="734" type="line" smooth="yes"/>
      <point x="1410" y="942"/>
      <point x="1298" y="1034"/>
      <point x="1042" y="1034" type="curve" smooth="yes"/>
      <point x="954" y="1034" type="line" smooth="yes"/>
      <point x="798" y="1034"/>
      <point x="710" y="1002"/>
      <point x="668" y="930" type="curve"/>
      <point x="668" y="1024" type="line"/>
      <point x="144" y="1024" type="line"/>
    </contour>
    <contour>
      <point x="1081" y="1174" type="move" name="top"/>
    </contour>
    <contour>
      <point x="778" y="-150" type="move" name="bottom"/>
    </contour>
    <contour>
      <point x="44" y="518" type="move" name="left"/>
    </contour>
  </outline>
</glyph>
<glyph name="OE" format="1">
  <advance width="2962"/>
  <unicode hex="0152"/>
  <outline>
    <contour>
      <point x="158" y="1080" type="curve" smooth="yes"/>
      <point x="158" y="332" type="line" smooth="yes"/>
      <point x="158" y="58"/>
      <point x="306" y="0"/>
      <point x="570" y="0" type="curve"/>
      <point x="1898" y="0" type="line"/>
      <point x="1898" y="1400" type="line"/>
      <point x="570" y="1400" type="line"/>
      <point x="318" y="1400"/>
      <point x="158" y="1348"/>
    </contour>
    <contour>
      <point x="730" y="976" type="line"/>
      <point x="730" y="976"/>
      <point x="730" y="976"/>
      <point x="730" y="976" type="curve"/>
      <point x="1326" y="976" type="line"/>
      <point x="1326" y="424" type="line"/>
      <point x="730" y="424" type="line"/>
      <point x="730" y="424"/>
      <point x="730" y="424"/>
      <point x="730" y="424" type="curve"/>
    </contour>
    <contour>
      <point x="2846" y="0" type="line"/>
      <point x="2846" y="424" type="line"/>
      <point x="1898" y="424" type="line"/>
      <point x="1898" y="520" type="line"/>
      <point x="2440" y="520" type="line"/>
      <point x="2440" y="890" type="line"/>
      <point x="1898" y="890" type="line"/>
      <point x="1898" y="976" type="line"/>
      <point x="2826" y="976" type="line"/>
      <point x="2826" y="1400" type="line"/>
      <point x="1326" y="1400" type="line"/>
      <point x="1326" y="0" type="line"/>
    </contour>
  </outline>
</glyph>
<glyph name="oe" format="1">
  <advance width="3242"/>
  <unicode hex="0153"/>
  <outline>
    <contour>
      <point x="143.44" y="254" type="curve" smooth="yes"/>
      <point x="143.44" y="780" type="line" smooth="yes"/>
      <point x="143.44" y="954"/>
      <point x="237.44" y="1034"/>
      <point x="449.44" y="1034" type="curve" smooth="yes"/>
      <point x="1177.44" y="1034" type="line" smooth="yes"/>
      <point x="1389.44" y="1034"/>
      <point x="1483.44" y="954"/>
      <point x="1483.44" y="780" type="curve" smooth="yes"/>
      <point x="1483.44" y="254" type="line" smooth="yes"/>
      <point x="1483.44" y="70"/>
      <point x="1393.44" y="-10"/>
      <point x="1177.44" y="-10" type="curve" smooth="yes"/>
      <point x="449.44" y="-10" type="line" smooth="yes"/>
      <point x="235.44" y="-10"/>
      <point x="143.44" y="70"/>
    </contour>
    <contour>
      <point x="667.44" y="372" type="line"/>
      <point x="959.44" y="372" type="line"/>
      <point x="959.44" y="652" type="line"/>
      <point x="667.44" y="652" type="line"/>
    </contour>
    <contour>
      <point x="3099.56" y="280" type="line"/>
      <point x="3099.56" y="266" type="line"/>
      <point x="3099.56" y="66"/>
      <point x="2969.56" y="-10"/>
      <point x="2681.56" y="-10" type="curve" smooth="yes"/>
      <point x="2165.56" y="-10" type="line" smooth="yes"/>
      <point x="1877.56" y="-10"/>
      <point x="1767.56" y="84"/>
      <point x="1767.56" y="300" type="curve" smooth="yes"/>
      <point x="1767.56" y="734" type="line" smooth="yes"/>
      <point x="1767.56" y="942"/>
      <point x="1879.56" y="1034"/>
      <point x="2165.56" y="1034" type="curve" smooth="yes"/>
      <point x="2681.56" y="1034" type="line" smooth="yes"/>
      <point x="2969.56" y="1034"/>
      <point x="3099.56" y="944"/>
      <point x="3099.56" y="734" type="curve" smooth="yes"/>
      <point x="3099.56" y="404" type="line"/>
      <point x="2291.56" y="404" type="line"/>
      <point x="2291.56" y="292" type="line"/>
      <point x="2575.56" y="292" type="line"/>
      <point x="2575.56" y="368" type="line"/>
    </contour>
    <contour>
      <point x="2575.56" y="628" type="line"/>
      <point x="2575.56" y="732" type="line"/>
      <point x="2291.56" y="732" type="line"/>
      <point x="2291.56" y="628" type="line"/>
    </contour>
    <contour>
      <point x="2433" y="1174" type="move" name="top"/>
    </contour>
    <contour>
      <point x="2433" y="-150" type="move" name="bottom"/>
    </contour>
  </outline>
</glyph>
<glyph name="Tbar" format="1">
  <advance width="1660.86"/>
  <unicode hex="0166"/>
  <outline>
    <component base="T" xOffset="34"/>
    <contour>
      <point x="392.999" y="794" type="line"/>
      <point x="1302" y="794" type="line"/>
      <point x="1302" y="482" type="line"/>
      <point x="392.999" y="482" type="line"/>
    </contour>
    <contour>
      <point x="846.999" y="1550" type="move" name="top"/>
    </contour>
    <contour>
      <point x="846.999" y="-150" type="move" name="bottom"/>
    </contour>
  </outline>
</glyph>
<glyph name="uni018F" format="2">
  <advance width="1964"/>
  <unicode hex="018F"/>
  <anchor x="977" y="1550" name="top"/>
  <anchor x="977" y="-150" name="bottom"/>
  <outline>
    <contour>
      <point x="148" y="346" type="line"/>
      <point x="148" y="874" type="line"/>
      <point x="1806" y="874" type="line"/>
      <point x="1806" y="504" type="line"/>
      <point x="720" y="504" type="line"/>
      <point x="720" y="424" type="line"/>
      <point x="720" y="424"/>
      <point x="720" y="424"/>
      <point x="720" y="424"/>
      <point x="720" y="424"/>
      <point x="720" y="424" type="qcurve"/>
      <point x="1234" y="424" type="line"/>
      <point x="1234" y="424"/>
      <point x="1234" y="424"/>
      <point x="1234" y="424"/>
      <point x="1234" y="424"/>
      <point x="1234" y="424" type="qcurve"/>
      <point x="1234" y="976" type="line"/>
      <point x="1234" y="976"/>
      <point x="1234" y="976"/>
      <point x="1234" y="976"/>
      <point x="1234" y="976"/>
      <point x="1234" y="976" type="qcurve"/>
      <point x="726" y="976" type="line"/>
      <point x="726" y="976"/>
      <point x="726" y="976"/>
      <point x="726" y="976"/>
      <point x="726" y="976"/>
      <point x="726" y="976" type="qcurve"/>
      <point x="726" y="906" type="line"/>
      <point x="154" y="1012" type="line"/>
      <point x="154" y="1066" type="line" smooth="yes"/>
      <point x="154" y="1167"/>
      <point x="213" y="1296"/>
      <point x="321" y="1371"/>
      <point x="474" y="1400"/>
      <point x="568" y="1400" type="qcurve" smooth="yes"/>
      <point x="1394" y="1400" type="line" smooth="yes"/>
      <point x="1489" y="1400"/>
      <point x="1641" y="1371"/>
      <point x="1748" y="1296"/>
      <point x="1806" y="1167"/>
      <point x="1806" y="1066" type="qcurve" smooth="yes"/>
      <point x="1806" y="346" type="line" smooth="yes"/>
      <point x="1806" y="243"/>
      <point x="1752" y="109"/>
      <point x="1647" y="31"/>
      <point x="1493" y="0"/>
      <point x="1394" y="0" type="qcurve" smooth="yes"/>
      <point x="562" y="0" type="line" smooth="yes"/>
      <point x="463" y="0"/>
      <point x="309" y="31"/>
      <point x="203" y="109"/>
      <point x="148" y="243"/>
      <point x="148" y="346" type="qcurve"/>
    </contour>
  </outline>
</glyph>
<glyph name="uni0237" format="1">
  <advance width="840"/>
  <unicode hex="0237"/>
  <outline>
    <contour>
      <point x="-456" y="-80" type="line"/>
      <point x="-384" y="-428" type="line"/>
      <point x="420" y="-428" type="line" smooth="yes"/>
      <point x="576" y="-428"/>
      <point x="680" y="-298"/>
      <point x="680" y="-102" type="curve" smooth="yes"/>
      <point x="680" y="1024" type="line"/>
      <point x="156" y="1024" type="line"/>
      <point x="156" y="-80" type="line"/>
      <point x="156" y="-80"/>
      <point x="156" y="-80"/>
      <point x="156" y="-80" type="curve"/>
    </contour>
    <contour>
      <point x="418" y="1174" type="move" name="top"/>
    </contour>
  </outline>
</glyph>
<glyph name="acutecomb" format="1">
  <unicode hex="0301"/>
  <outline>
    <contour>
      <point x="-308" y="1100" type="line"/>
      <point x="-6" y="1448" type="line"/>
      <point x="544" y="1448" type="line"/>
      <point x="142" y="1100" type="line"/>
    </contour>
    <contour>
      <point x="0" y="1174" type="move" name="_top"/>
    </contour>
  </outline>
</glyph>
<glyph name="uni0302" format="1">
  <unicode hex="0302"/>
  <outline>
    <contour>
      <point x="-478" y="1100" type="line"/>
      <point x="-186" y="1448" type="line"/>
      <point x="186" y="1448" type="line"/>
      <point x="478" y="1100" type="line"/>
      <point x="53" y="1100" type="line"/>
      <point x="-4" y="1243" type="line"/>
      <point x="-61" y="1100" type="line"/>
    </contour>
    <contour>
      <point x="0" y="1174" type="move" name="_top"/>
    </contour>
  </outline>
</glyph>
<glyph name="tildecomb" format="1">
  <unicode hex="0303"/>
  <outline>
    <contour>
      <point x="-615" y="1134" type="line"/>
      <point x="-561" y="1413"/>
      <point x="-416" y="1482"/>
      <point x="-223" y="1482" type="curve" smooth="yes"/>
      <point x="-41" y="1482"/>
      <point x="93" y="1402"/>
      <point x="191" y="1402" type="curve" smooth="yes"/>
      <point x="266" y="1402"/>
      <point x="280" y="1456"/>
      <point x="285" y="1482" type="curve"/>
      <point x="615" y="1424" type="line"/>
      <point x="561" y="1145"/>
      <point x="416" y="1076"/>
      <point x="223" y="1076" type="curve" smooth="yes"/>
      <point x="41" y="1076"/>
      <point x="-93" y="1156"/>
      <point x="-191" y="1156" type="curve" smooth="yes"/>
      <point x="-266" y="1156"/>
      <point x="-280" y="1102"/>
      <point x="-285" y="1076" type="curve"/>
    </contour>
    <contour>
      <point x="0" y="1150" type="move" name="_top"/>
    </contour>
  </outline>
</glyph>
<glyph name="uni0306" format="1">
  <unicode hex="0306"/>
  <outline>
    <contour>
      <point x="-380" y="1461" type="line"/>
      <point x="-380" y="1196"/>
      <point x="-337" y="1099"/>
      <point x="0" y="1099" type="curve" smooth="yes"/>
      <point x="337" y="1099"/>
      <point x="378" y="1196"/>
      <point x="378" y="1461" type="curve"/>
      <point x="113" y="1461" type="line"/>
      <point x="113" y="1365"/>
      <point x="94" y="1331"/>
      <point x="0" y="1331" type="curve" smooth="yes"/>
      <point x="-97" y="1331"/>
      <point x="-115" y="1365"/>
      <point x="-115" y="1461" type="curve"/>
    </contour>
    <contour>
      <point x="0" y="1174" type="move" name="_top"/>
    </contour>
  </outline>
</glyph>
<glyph name="uni0307" format="2">
  <unicode hex="0307"/>
  <anchor x="0" y="1174" name="_top"/>
  <anchor x="0" y="1622" name="_bottom"/>
  <anchor x="0" y="1540" name="top"/>
  <outline>
    <contour>
      <point x="-196" y="1220" type="line"/>
      <point x="-196" y="1352" type="line" smooth="yes"/>
      <point x="-196" y="1392"/>
      <point x="-192" y="1435"/>
      <point x="-171" y="1456"/>
      <point x="-127" y="1460"/>
      <point x="-86" y="1460" type="qcurve" smooth="yes"/>
      <point x="86" y="1460" type="line" smooth="yes"/>
      <point x="127" y="1460"/>
      <point x="171" y="1456"/>
      <point x="192" y="1435"/>
      <point x="196" y="1392"/>
      <point x="196" y="1352" type="qcurve" smooth="yes"/>
      <point x="196" y="1220" type="line" smooth="yes"/>
      <point x="196" y="1180"/>
      <point x="192" y="1135"/>
      <point x="171" y="1114"/>
      <point x="127" y="1110"/>
      <point x="86" y="1110" type="qcurve" smooth="yes"/>
      <point x="-86" y="1110" type="line" smooth="yes"/>
      <point x="-127" y="1110"/>
      <point x="-171" y="1114"/>
      <point x="-192" y="1135"/>
      <point x="-196" y="1180"/>
      <point x="-196" y="1220" type="qcurve"/>
    </contour>
  </outline>
</glyph>
<glyph name="uni0308" format="2">
  <unicode hex="0308"/>
  <anchor x="0" y="1172" name="_top"/>
  <anchor x="0" y="1622" name="_bottom"/>
  <anchor x="0" y="1540" name="top"/>
  <outline>
    <contour>
      <point x="-446" y="1220" type="line" smooth="yes"/>
      <point x="-446" y="1180"/>
      <point x="-442" y="1135"/>
      <point x="-421" y="1114"/>
      <point x="-377" y="1110"/>
      <point x="-336" y="1110" type="qcurve" smooth="yes"/>
      <point x="-194" y="1110" type="line" smooth="yes"/>
      <point x="-154" y="1110"/>
      <point x="-109" y="1114"/>
      <point x="-88" y="1135"/>
      <point x="-84" y="1180"/>
      <point x="-84" y="1220" type="qcurve" smooth="yes"/>
      <point x="-84" y="1342" type="line" smooth="yes"/>
      <point x="-84" y="1382"/>
      <point x="-88" y="1425"/>
      <point x="-109" y="1446"/>
      <point x="-154" y="1450"/>
      <point x="-194" y="1450" type="qcurve" smooth="yes"/>
      <point x="-336" y="1450" type="line" smooth="yes"/>
      <point x="-377" y="1450"/>
      <point x="-421" y="1446"/>
      <point x="-442" y="1425"/>
      <point x="-446" y="1382"/>
      <point x="-446" y="1342" type="qcurve" smooth="yes"/>
    </contour>
    <contour>
      <point x="84" y="1220" type="line" smooth="yes"/>
      <point x="84" y="1180"/>
      <point x="88" y="1135"/>
      <point x="109" y="1114"/>
      <point x="154" y="1110"/>
      <point x="194" y="1110" type="qcurve" smooth="yes"/>
      <point x="336" y="1110" type="line" smooth="yes"/>
      <point x="377" y="1110"/>
      <point x="421" y="1114"/>
      <point x="442" y="1135"/>
      <point x="446" y="1180"/>
      <point x="446" y="1220" type="qcurve" smooth="yes"/>
      <point x="446" y="1342" type="line" smooth="yes"/>
      <point x="446" y="1382"/>
      <point x="442" y="1425"/>
      <point x="421" y="1446"/>
      <point x="377" y="1450"/>
      <point x="336" y="1450" type="qcurve" smooth="yes"/>
      <point x="194" y="1450" type="line" smooth="yes"/>
      <point x="154" y="1450"/>
      <point x="109" y="1446"/>
      <point x="88" y="1425"/>
      <point x="84" y="1382"/>
      <point x="84" y="1342" type="qcurve" smooth="yes"/>
    </contour>
  </outline>
</glyph>
<glyph name="uni0309" format="2">
  <unicode hex="0309"/>
  <anchor x="0" y="1174" name="_top"/>
  <anchor x="-33" y="1100" name="_topright"/>
  <outline>
    <contour>
      <point x="-93" y="1100" type="line"/>
      <point x="108" y="1100" type="line"/>
      <point x="140" y="1116"/>
      <point x="194" y="1156"/>
      <point x="234" y="1203"/>
      <point x="257" y="1257"/>
      <point x="257" y="1287" type="qcurve" smooth="yes"/>
      <point x="257" y="1330"/>
      <point x="223" y="1401"/>
      <point x="159" y="1452"/>
      <point x="69" y="1480"/>
      <point x="13" y="1480" type="qcurve" smooth="yes"/>
      <point x="-22" y="1480"/>
      <point x="-90" y="1467"/>
      <point x="-151" y="1446"/>
      <point x="-203" y="1417"/>
      <point x="-224" y="1400" type="qcurve"/>
      <point x="-150" y="1244" type="line"/>
      <point x="-134" y="1253"/>
      <point x="-98" y="1266"/>
      <point x="-74" y="1266" type="qcurve" smooth="yes"/>
      <point x="-45" y="1266"/>
      <point x="-9" y="1229"/>
      <point x="-9" y="1199" type="qcurve" smooth="yes"/>
      <point x="-9" y="1166"/>
      <point x="-58" y="1119"/>
      <point x="-93" y="1100" type="qcurve"/>
    </contour>
  </outline>
</glyph>
<glyph name="uni030A" format="1">
  <unicode hex="030A"/>
  <outline>
    <contour>
      <point x="-264" y="1274" type="curve" smooth="yes"/>
      <point x="-264" y="1114"/>
      <point x="-224" y="1092"/>
      <point x="0" y="1092" type="curve" smooth="yes"/>
      <point x="224" y="1092"/>
      <point x="264" y="1114"/>
      <point x="264" y="1274" type="curve" smooth="yes"/>
      <point x="264" y="1434"/>
      <point x="224" y="1456"/>
      <point x="0" y="1456" type="curve" smooth="yes"/>
      <point x="-224" y="1456"/>
      <point x="-264" y="1434"/>
    </contour>
    <contour>
      <point x="-60" y="1274" type="curve" smooth="yes"/>
      <point x="-60" y="1318"/>
      <point x="-44" y="1325"/>
      <point x="0" y="1325" type="curve" smooth="yes"/>
      <point x="44" y="1325"/>
      <point x="60" y="1318"/>
      <point x="60" y="1274" type="curve" smooth="yes"/>
      <point x="60" y="1231"/>
      <point x="44" y="1223"/>
      <point x="0" y="1223" type="curve" smooth="yes"/>
      <point x="-44" y="1223"/>
      <point x="-60" y="1231"/>
    </contour>
    <contour>
      <point x="0" y="1174" type="move" name="_top"/>
    </contour>
  </outline>
</glyph>
<glyph name="uni0326" format="1">
  <unicode hex="0326"/>
  <outline>
    <contour>
      <point x="-196" y="-381" type="curve" smooth="yes"/>
      <point x="-196" y="-219" type="line" smooth="yes"/>
      <point x="-196" y="-140"/>
      <point x="-182" y="-126"/>
      <point x="-99" y="-126" type="curve" smooth="yes"/>
      <point x="99" y="-126" type="line" smooth="yes"/>
      <point x="182" y="-126"/>
      <point x="196" y="-140"/>
      <point x="196" y="-219" type="curve" smooth="yes"/>
      <point x="196" y="-381" type="line" smooth="yes"/>
      <point x="196" y="-461"/>
      <point x="182" y="-475"/>
      <point x="99" y="-475" type="curve" smooth="yes"/>
      <point x="-99" y="-475" type="line" smooth="yes"/>
      <point x="-182" y="-475"/>
      <point x="-196" y="-461"/>
    </contour>
    <contour>
      <point x="-160" y="-678" type="curve"/>
      <point x="-160" y="-678"/>
      <point x="-45" y="-463"/>
      <point x="-45" y="-463" type="curve"/>
      <point x="182" y="-454" type="line"/>
      <point x="-14" y="-708" type="line"/>
      <point x="-14" y="-708"/>
      <point x="-160" y="-678"/>
    </contour>
    <contour>
      <point x="0" y="-150" type="move" name="_bottom"/>
    </contour>
  </outline>
</glyph>
<glyph name="uni0328" format="2">
  <unicode hex="0328"/>
  <anchor x="0" y="-150" name="_bottom"/>
  <anchor x="163" y="0" name="_ogonek"/>
  <outline>
    <contour>
      <point x="163" y="0" type="line"/>
      <point x="129" y="0"/>
      <point x="76" y="-11"/>
      <point x="38" y="-32"/>
      <point x="18" y="-61"/>
      <point x="18" y="-80" type="qcurve" smooth="yes"/>
      <point x="18" y="-98"/>
      <point x="36" y="-127"/>
      <point x="70" y="-146"/>
      <point x="119" y="-157"/>
      <point x="150" y="-157" type="qcurve" smooth="yes"/>
      <point x="173" y="-157"/>
      <point x="222" y="-151"/>
      <point x="272" y="-142"/>
      <point x="323" y="-129"/>
      <point x="348" y="-121" type="qcurve"/>
      <point x="297" y="-376" type="line"/>
      <point x="231" y="-405"/>
      <point x="62" y="-438"/>
      <point x="-29" y="-438" type="qcurve" smooth="yes"/>
      <point x="-110" y="-438"/>
      <point x="-230" y="-410"/>
      <point x="-309" y="-355"/>
      <point x="-349" y="-275"/>
      <point x="-349" y="-224" type="qcurve" smooth="yes"/>
      <point x="-349" y="-189"/>
      <point x="-331" y="-124"/>
      <point x="-296" y="-67"/>
      <point x="-244" y="-18"/>
      <point x="-209" y="0" type="qcurve"/>
    </contour>
  </outline>
</glyph>
<glyph name="uni0402" format="1">
  <advance width="2048"/>
  <unicode hex="0402"/>
  <outline>
    <contour>
      <point x="51" y="1024" type="line"/>
      <point x="1575" y="1024" type="line"/>
      <point x="1575" y="1400" type="line"/>
      <point x="51" y="1400" type="line"/>
    </contour>
    <contour>
      <point x="488" y="0" type="line"/>
      <point x="1060" y="0" type="line"/>
      <point x="1060" y="507" type="line"/>
      <point x="1313" y="507" type="line"/>
      <point x="1357" y="507"/>
      <point x="1381" y="483"/>
      <point x="1381" y="447" type="curve" smooth="yes"/>
      <point x="1381" y="429" type="line" smooth="yes"/>
      <point x="1381" y="393"/>
      <point x="1357" y="369"/>
      <point x="1313" y="369" type="curve"/>
      <point x="1240" y="369" type="line"/>
      <point x="1240" y="-1" type="line"/>
      <point x="1539" y="-1" type="line"/>
      <point x="1791" y="-1"/>
      <point x="1953" y="65"/>
      <point x="1953" y="333" type="curve" smooth="yes"/>
      <point x="1953" y="557" type="line" smooth="yes"/>
      <point x="1953" y="825"/>
      <point x="1791" y="883"/>
      <point x="1539" y="883" type="curve" smooth="yes"/>
      <point x="1060" y="883" type="line"/>
      <point x="1060" y="1400" type="line"/>
      <point x="488" y="1400" type="line"/>
    </contour>
  </outline>
</glyph>
<glyph name="uni0404" format="1">
  <advance width="1903.12"/>
  <unicode hex="0404"/>
  <outline>
    <contour>
      <point x="1234.4" y="556" type="line"/>
      <point x="1234.4" y="410" type="line"/>
      <point x="1234.4" y="410"/>
      <point x="1234.4" y="410"/>
      <point x="1234.4" y="410" type="curve"/>
      <point x="710.4" y="410" type="line"/>
      <point x="710.4" y="410"/>
      <point x="710.4" y="410"/>
      <point x="710.4" y="410" type="curve"/>
      <point x="710.4" y="990" type="line"/>
      <point x="710.4" y="990"/>
      <point x="710.4" y="990"/>
      <point x="710.4" y="990" type="curve"/>
      <point x="1228.4" y="990" type="line"/>
      <point x="1228.4" y="990"/>
      <point x="1228.4" y="990"/>
      <point x="1228.4" y="990" type="curve"/>
      <point x="1228.4" y="870" type="line"/>
      <point x="1770.4" y="936" type="line"/>
      <point x="1770.4" y="1080" type="line" smooth="yes"/>
      <point x="1770.4" y="1348"/>
      <point x="1608.4" y="1414"/>
      <point x="1356.4" y="1414" type="curve" smooth="yes"/>
      <point x="570.4" y="1414" type="line" smooth="yes"/>
      <point x="318.4" y="1414"/>
      <point x="158.4" y="1348"/>
      <point x="158.4" y="1080" type="curve" smooth="yes"/>
      <point x="158.4" y="332" type="line" smooth="yes"/>
      <point x="158.4" y="58"/>
      <point x="306.4" y="-14"/>
      <point x="570.4" y="-14" type="curve" smooth="yes"/>
      <point x="1362.4" y="-14" type="line" smooth="yes"/>
      <point x="1626.4" y="-14"/>
      <point x="1776.4" y="56"/>
      <point x="1776.4" y="332" type="curve" smooth="yes"/>
      <point x="1776.4" y="484" type="line"/>
    </contour>
    <contour>
      <point x="650.4" y="520.423" type="line"/>
      <point x="1110.1" y="520.423" type="line"/>
      <point x="1110.1" y="890.423" type="line"/>
      <point x="650.4" y="890.423" type="line"/>
    </contour>
  </outline>
</glyph>
<glyph name="uni0409" format="1">
  <advance width="2842.04"/>
  <unicode hex="0409"/>
  <outline>
    <contour>
      <point x="0" y="0" type="line"/>
      <point x="668" y="0" type="line"/>
      <point x="1654" y="1400" type="line"/>
      <point x="1026" y="1400" type="line"/>
    </contour>
    <contour>
      <point x="1313" y="0" type="line"/>
      <point x="2362" y="0" type="line" smooth="yes"/>
      <point x="2598" y="0"/>
      <point x="2747" y="66"/>
      <point x="2747" y="334" type="curve" smooth="yes"/>
      <point x="2747" y="674" type="line" smooth="yes"/>
      <point x="2747" y="941"/>
      <point x="2593" y="1000"/>
      <point x="2362" y="1000" type="curve" smooth="yes"/>
      <point x="1884" y="1000" type="line"/>
      <point x="1884" y="1400" type="line"/>
      <point x="1313" y="1400" type="line"/>
    </contour>
    <contour>
      <point x="1884" y="439" type="line"/>
      <point x="1884" y="560" type="line"/>
      <point x="2139" y="560" type="line" smooth="yes"/>
      <point x="2174" y="560"/>
      <point x="2194" y="546"/>
      <point x="2194" y="510" type="curve" smooth="yes"/>
      <point x="2194" y="489" type="line" smooth="yes"/>
      <point x="2194" y="453"/>
      <point x="2174" y="439"/>
      <point x="2139" y="439" type="curve" smooth="yes"/>
    </contour>
  </outline>
</glyph>
<glyph name="uni040A" format="1">
  <advance width="2735.04"/>
  <unicode hex="040A"/>
  <outline>
    <contour>
      <point x="180" y="0" type="line"/>
      <point x="751" y="0" type="line"/>
      <point x="751" y="1400" type="line"/>
      <point x="180" y="1400" type="line"/>
    </contour>
    <contour>
      <point x="724" y="516" type="line"/>
      <point x="1233" y="516" type="line"/>
      <point x="1233" y="1000" type="line"/>
      <point x="724" y="1000" type="line"/>
    </contour>
    <contour>
      <point x="1206" y="0" type="line"/>
      <point x="2255" y="0" type="line" smooth="yes"/>
      <point x="2491" y="0"/>
      <point x="2640" y="66"/>
      <point x="2640" y="334" type="curve" smooth="yes"/>
      <point x="2640" y="674" type="line" smooth="yes"/>
      <point x="2640" y="941"/>
      <point x="2486" y="1000"/>
      <point x="2255" y="1000" type="curve" smooth="yes"/>
      <point x="1777" y="1000" type="line"/>
      <point x="1777" y="1400" type="line"/>
      <point x="1206" y="1400" type="line"/>
    </contour>
    <contour>
      <point x="1777" y="439" type="line"/>
      <point x="1777" y="560" type="line"/>
      <point x="2032" y="560" type="line" smooth="yes"/>
      <point x="2067" y="560"/>
      <point x="2087" y="546"/>
      <point x="2087" y="510" type="curve" smooth="yes"/>
      <point x="2087" y="489" type="line" smooth="yes"/>
      <point x="2087" y="453"/>
      <point x="2067" y="439"/>
      <point x="2032" y="439" type="curve" smooth="yes"/>
    </contour>
  </outline>
</glyph>
<glyph name="uni040B" format="1">
  <advance width="2048"/>
  <unicode hex="040B"/>
  <outline>
    <contour>
      <point x="51" y="1024" type="line"/>
      <point x="1575" y="1024" type="line"/>
      <point x="1575" y="1400" type="line"/>
      <point x="51" y="1400" type="line"/>
    </contour>
    <contour>
      <point x="488" y="0" type="line"/>
      <point x="1060" y="0" type="line"/>
      <point x="1060" y="508" type="line"/>
      <point x="1313" y="508" type="line" smooth="yes"/>
      <point x="1357" y="508"/>
      <point x="1381" y="484"/>
      <point x="1381" y="448" type="curve" smooth="yes"/>
      <point x="1381" y="0" type="line"/>
      <point x="1953" y="0" type="line"/>
      <point x="1953" y="558" type="line" smooth="yes"/>
      <point x="1953" y="826"/>
      <point x="1791" y="884"/>
      <point x="1539" y="884" type="curve" smooth="yes"/>
      <point x="1060" y="884" type="line"/>
      <point x="1060" y="1400" type="line"/>
      <point x="488" y="1400" type="line"/>
    </contour>
  </outline>
</glyph>
<glyph name="uni040F" format="1">
  <advance width="2020"/>
  <unicode hex="040F"/>
  <outline>
    <contour>
      <point x="1268" y="0" type="line"/>
      <point x="1840" y="0" type="line"/>
      <point x="1840" y="1400" type="line"/>
      <point x="1268" y="1400" type="line"/>
    </contour>
    <contour>
      <point x="180" y="0" type="line"/>
      <point x="752" y="0" type="line"/>
      <point x="752" y="1400" type="line"/>
      <point x="180" y="1400" type="line"/>
    </contour>
    <contour>
      <point x="722" y="0" type="line"/>
      <point x="1268" y="0" type="line"/>
      <point x="1268" y="484" type="line"/>
      <point x="722" y="484" type="line"/>
    </contour>
    <contour>
      <point x="773.36" y="-260" type="line"/>
      <point x="1257" y="-260" type="line"/>
      <point x="1257" y="484" type="line"/>
      <point x="747.76" y="484" type="line"/>
      <point x="747.76" y="0" type="line"/>
    </contour>
  </outline>
</glyph>
<glyph name="uni0411" format="1">
  <advance width="1825.04"/>
  <unicode hex="0411"/>
  <outline>
    <contour>
      <point x="180" y="0" type="line"/>
      <point x="1316" y="0" type="line" smooth="yes"/>
      <point x="1568" y="0"/>
      <point x="1730" y="66"/>
      <point x="1730" y="334" type="curve" smooth="yes"/>
      <point x="1730" y="560" type="line" smooth="yes"/>
      <point x="1730" y="828"/>
      <point x="1568" y="886"/>
      <point x="1316" y="886" type="curve" smooth="yes"/>
      <point x="752" y="886" type="line"/>
      <point x="752" y="1400" type="line"/>
      <point x="180" y="1400" type="line"/>
    </contour>
    <contour>
      <point x="752" y="376" type="line"/>
      <point x="752" y="516" type="line"/>
      <point x="1090" y="516" type="line" smooth="yes"/>
      <point x="1134" y="516"/>
      <point x="1158" y="492"/>
      <point x="1158" y="456" type="curve" smooth="yes"/>
      <point x="1158" y="436" type="line" smooth="yes"/>
      <point x="1158" y="400"/>
      <point x="1134" y="376"/>
      <point x="1090" y="376" type="curve" smooth="yes"/>
    </contour>
    <contour>
      <point x="466" y="1024" type="line"/>
      <point x="1651.8" y="1024" type="line"/>
      <point x="1651.8" y="1400" type="line"/>
      <point x="466" y="1400" type="line"/>
    </contour>
  </outline>
</glyph>
<glyph name="uni0413" format="1">
  <advance width="1515.71"/>
  <unicode hex="0413"/>
  <outline>
    <contour>
      <point x="180" y="0" type="line"/>
      <point x="752" y="0" type="line"/>
      <point x="752" y="916" type="line"/>
      <point x="1464.28" y="916" type="line"/>
      <point x="1464.28" y="1400" type="line"/>
      <point x="180" y="1400" type="line"/>
    </contour>
  </outline>
</glyph>
<glyph name="uni0414" format="1">
  <advance width="1990.24"/>
  <unicode hex="0414"/>
  <outline>
    <contour>
      <point x="32.2379" y="0" type="line"/>
      <point x="622.238" y="0" type="line"/>
      <point x="1158.24" y="1330" type="line"/>
      <point x="1158.24" y="1400" type="line"/>
      <point x="710.238" y="1400" type="line"/>
    </contour>
    <contour>
      <point x="810.238" y="1266" type="line"/>
      <point x="1332.24" y="0" type="line"/>
      <point x="1960.24" y="0" type="line"/>
      <point x="1258.24" y="1400" type="line"/>
      <point x="810.238" y="1400" type="line"/>
    </contour>
    <contour>
      <point x="622.238" y="0" type="line"/>
      <point x="1332.24" y="0" type="line"/>
      <point x="1332.24" y="404" type="line"/>
      <point x="622.238" y="404" type="line"/>
    </contour>
    <contour>
      <point x="1472.32" y="-260" type="line"/>
      <point x="1955.96" y="-260" type="line"/>
      <point x="1955.96" y="484" type="line"/>
      <point x="1382.24" y="484" type="line"/>
      <point x="1382.24" y="0" type="line"/>
      <point x="1446.72" y="0" type="line"/>
    </contour>
    <contour>
      <point x="513.64" y="-260" type="line"/>
      <point x="30" y="-260" type="line"/>
      <point x="30" y="484" type="line"/>
      <point x="603.72" y="484" type="line"/>
      <point x="603.72" y="0" type="line"/>
      <point x="539.24" y="0" type="line"/>
    </contour>
  </outline>
</glyph>
<glyph name="uni0416" format="1">
  <advance width="2808.4"/>
  <unicode hex="0416"/>
  <outline>
    <contour>
      <point x="2023.2" y="0" type="line"/>
      <point x="2801.2" y="0" type="line"/>
      <point x="2137.2" y="827" type="line"/>
      <point x="2127.2" y="701" type="line"/>
      <point x="2708.2" y="1400" type="line"/>
      <point x="2082.2" y="1400" type="line"/>
      <point x="1554.2" y="704" type="line"/>
    </contour>
    <contour>
      <point x="1117" y="0" type="line"/>
      <point x="1689" y="0" type="line"/>
      <point x="1689" y="1400" type="line"/>
      <point x="1117" y="1400" type="line"/>
    </contour>
    <contour>
      <point x="785.2" y="3" type="line"/>
      <point x="7.2" y="3" type="line"/>
      <point x="671.2" y="830" type="line"/>
      <point x="681.2" y="704" type="line"/>
      <point x="100.2" y="1403" type="line"/>
      <point x="726.2" y="1403" type="line"/>
      <point x="1254.2" y="707" type="line"/>
    </contour>
    <contour>
      <point x="1236" y="1598" type="move" name="top"/>
    </contour>
    <contour>
      <point x="1236" y="-150" type="move" name="bottom"/>
    </contour>
  </outline>
</glyph>
<glyph name="uni0417" format="1">
  <advance width="1714"/>
  <unicode hex="0417"/>
  <outline>
    <contour>
      <point x="180.001" y="417.926" type="line"/>
      <point x="180.001" y="319.809" type="line" smooth="yes"/>
      <point x="180.001" y="65.9353"/>
      <point x="305.896" y="0"/>
      <point x="520.266" y="0" type="curve" smooth="yes"/>
      <point x="1212.57" y="0" type="line" smooth="yes"/>
      <point x="1435.1" y="0"/>
      <point x="1555.59" y="105.819"/>
      <point x="1555.59" y="365.835" type="curve" smooth="yes"/>
      <point x="1555.59" y="429.971" type="line" smooth="yes"/>
      <point x="1555.59" y="561.084"/>
      <point x="1506.83" y="648.139"/>
      <point x="1445.53" y="704.065" type="curve"/>
      <point x="1501.51" y="759.01"/>
      <point x="1542.53" y="844.032"/>
      <point x="1542.53" y="970.084" type="curve" smooth="yes"/>
      <point x="1542.53" y="1034.19" type="line" smooth="yes"/>
      <point x="1542.53" y="1294.18"/>
      <point x="1422.04" y="1400"/>
      <point x="1199.51" y="1400" type="curve" smooth="yes"/>
      <point x="520.266" y="1400" type="line" smooth="yes"/>
      <point x="289.576" y="1400"/>
      <point x="180.001" y="1296.06"/>
      <point x="180.001" y="1092.19" type="curve" smooth="yes"/>
      <point x="180.001" y="964.078" type="line"/>
      <point x="635.45" y="880.194" type="line"/>
      <point x="635.45" y="1028.41" type="line"/>
      <point x="635.45" y="1028.41"/>
      <point x="635.45" y="1028.41"/>
      <point x="635.45" y="1028.41" type="curve"/>
      <point x="956.735" y="1028.41" type="line" smooth="yes"/>
      <point x="993.084" y="1028.41"/>
      <point x="1008.61" y="1004.39"/>
      <point x="1008.61" y="968.285" type="curve" smooth="yes"/>
      <point x="1008.61" y="947.958" type="line" smooth="yes"/>
      <point x="1008.61" y="911.822"/>
      <point x="993.084" y="887.828"/>
      <point x="956.735" y="887.828" type="curve" smooth="yes"/>
      <point x="688.934" y="887.828" type="line"/>
      <point x="688.934" y="516.265" type="line"/>
      <point x="951.328" y="516.265" type="line" smooth="yes"/>
      <point x="987.676" y="516.265"/>
      <point x="1003.21" y="492.272"/>
      <point x="1003.21" y="456.136" type="curve" smooth="yes"/>
      <point x="1003.21" y="435.702" type="line" smooth="yes"/>
      <point x="1003.21" y="399.599"/>
      <point x="987.676" y="375.573"/>
      <point x="951.328" y="375.573" type="curve" smooth="yes"/>
      <point x="635.45" y="375.573" type="line"/>
      <point x="635.45" y="375.573"/>
      <point x="635.45" y="375.573"/>
      <point x="635.45" y="375.573" type="curve"/>
      <point x="635.45" y="501.806" type="line"/>
    </contour>
    <contour>
      <point x="868" y="1550" type="move" name="top"/>
    </contour>
  </outline>
</glyph>
<glyph name="uni0418" format="1">
  <advance width="2070"/>
  <unicode hex="0418"/>
  <outline>
    <contour>
      <point x="180" y="0" type="line"/>
      <point x="644" y="0" type="line"/>
      <point x="1501.01" y="846.66" type="line"/>
      <point x="1318" y="846.66" type="line"/>
      <point x="1318" y="0" type="line"/>
      <point x="1890" y="0" type="line"/>
      <point x="1890" y="1400" type="line"/>
      <point x="1426" y="1400" type="line"/>
      <point x="571.51" y="555.775" type="line"/>
      <point x="752" y="555.775" type="line"/>
      <point x="752" y="1400" type="line"/>
      <point x="180" y="1400" type="line"/>
    </contour>
  </outline>
</glyph>
<glyph name="uni041B" format="1">
  <advance width="1928"/>
  <unicode hex="041B"/>
  <outline>
    <contour>
      <point x="0" y="0" type="line"/>
      <point x="590" y="0" type="line"/>
      <point x="1118" y="1270" type="line"/>
      <point x="1118" y="1400" type="line"/>
      <point x="678" y="1400" type="line"/>
    </contour>
    <contour>
      <point x="770" y="1206" type="line"/>
      <point x="1280" y="0" type="line"/>
      <point x="1928" y="0" type="line"/>
      <point x="1226" y="1400" type="line"/>
      <point x="770" y="1400" type="line"/>
    </contour>
  </outline>
</glyph>
<glyph name="uni041F" format="1">
  <advance width="2054"/>
  <unicode hex="041F"/>
  <outline>
    <contour>
      <point x="180" y="0" type="line"/>
      <point x="752" y="0" type="line"/>
      <point x="752" y="1400" type="line"/>
      <point x="180" y="1400" type="line"/>
    </contour>
    <contour>
      <point x="1302" y="0" type="line"/>
      <point x="1874" y="0" type="line"/>
      <point x="1874" y="1400" type="line"/>
      <point x="1302" y="1400" type="line"/>
    </contour>
    <contour>
      <point x="722" y="916" type="line"/>
      <point x="1332" y="916" type="line"/>
      <point x="1332" y="1400" type="line"/>
      <point x="722" y="1400" type="line"/>
    </contour>
  </outline>
</glyph>
<glyph name="uni0423" format="2">
  <advance width="1932"/>
  <unicode hex="0423"/>
  <anchor x="966" y="1550" name="top"/>
  <outline>
    <contour>
      <point x="579" y="-14" type="line"/>
      <point x="1353" y="-11" type="line"/>
      <point x="1449" y="-11"/>
      <point x="1601" y="16"/>
      <point x="1707" y="91"/>
      <point x="1763" y="224"/>
      <point x="1763" y="330" type="qcurve" smooth="yes"/>
      <point x="1763" y="1400" type="line"/>
      <point x="1191" y="1400" type="line"/>
      <point x="1191" y="954" type="line"/>
      <point x="751" y="954" type="line"/>
      <point x="751" y="954"/>
      <point x="751" y="954"/>
      <point x="751" y="954"/>
      <point x="751" y="954"/>
      <point x="751" y="954" type="qcurve"/>
      <point x="751" y="1400" type="line"/>
      <point x="179" y="1400" type="line"/>
      <point x="179" y="912" type="line" smooth="yes"/>
      <point x="179" y="806"/>
      <point x="235" y="672"/>
      <point x="340" y="596"/>
      <point x="492" y="568"/>
      <point x="587" y="568" type="qcurve" smooth="yes"/>
      <point x="1191" y="568" type="line"/>
      <point x="1191" y="382" type="line"/>
      <point x="1191" y="382"/>
      <point x="1191" y="382"/>
      <point x="1191" y="382"/>
      <point x="1191" y="382"/>
      <point x="1191" y="382" type="qcurve"/>
      <point x="725" y="382" type="line"/>
      <point x="725" y="382"/>
      <point x="725" y="382"/>
      <point x="725" y="382"/>
      <point x="725" y="382"/>
      <point x="725" y="382" type="qcurve"/>
      <point x="725" y="496" type="line"/>
      <point x="169" y="444" type="line"/>
      <point x="169" y="338" type="line" smooth="yes"/>
      <point x="169" y="232"/>
      <point x="226" y="96"/>
      <point x="332" y="16"/>
      <point x="484" y="-14"/>
      <point x="579" y="-14" type="qcurve"/>
    </contour>
  </outline>
</glyph>
